<?xml version="1.0" encoding="utf-8"?>
<!-- Generator: Adobe Illustrator 19.0.0, SVG Export Plug-In . SVG Version: 6.00 Build 0)  -->
<svg version="1.2" baseProfile="tiny" id="Layer_1" xmlns="http://www.w3.org/2000/svg" xmlns:xlink="http://www.w3.org/1999/xlink"
	 x="0px" y="0px" viewBox="7 -7 17 17" xml:space="preserve">
<g>
	<g id="XMLID_3_">
		<path fill="#383E42" d="M22.6-2.9C22.5-3,22.5-3,22.6-2.9C22.5-3,22.6-3,22.6-2.9z"/>
		<path fill="#383E42" d="M21.8,6.8L21.8,6.8L21.8,6.8z"/>
		<path fill="#383E42" d="M21.2,4.9L21.2,4.9C21.1,4.9,21.1,4.9,21.2,4.9C21.1,4.9,21.2,4.9,21.2,4.9z"/>
		<path fill="#383E42" d="M18.8,9.1C18.7,9.2,18.7,9.2,18.8,9.1C18.7,9.2,18.7,9.1,18.8,9.1z"/>
		<path fill="#383E42" d="M23.8,0.8L23.8,0.8c-0.1-1.4-0.5-2.7-1.2-3.8V-3l0,0c-1.2-1.9-3.2-3.3-5.3-3.8C16.6-6.9,16-7,15.4-7
			c-0.6,0-1.2,0.1-1.8,0.2l0,0l0,0c-2.3,0.5-4.3,2-5.3,4l0,0c0,0,0,0,0,0.1c-0.6,1-0.9,2.1-1.1,3.2l0,0l0,0C7,0.8,7,1.1,7,1.4
			c0,2.3,0.9,4.3,2.3,5.8c0,0,0,0,0.1,0.1c0.8,0.8,1.7,1.5,2.8,1.9l0,0c0,0,0,0,0.1,0l0,0c1,0.4,2.1,0.7,3.3,0.7s2.3-0.2,3.3-0.7
			c0,0,0,0,0.1,0c1.2-0.5,2.3-1.3,3.1-2.3l0,0c0,0,0,0,0.1-0.1c1.2-1.5,2-3.4,2-5.4C23.8,1.2,23.8,1,23.8,0.8z M21.7-3.3l-0.6-0.2
			c-1-1.3-2.7-2.2-2.9-2.4l0,0L18-6C19.5-5.5,20.7-4.5,21.7-3.3z M18-5.4c0.4,0.2,1.8,1.1,2.7,2.2c0.2,0.7,0.4,1.8,0.1,2.2l-2.5,0.7
			l-2.6-1.8v-2.5C16.1-4.7,17.2-5.2,18-5.4z M15.1-4.6v2.6l-2.5,1.7l-2.4-0.7c-0.3-0.5-0.1-1.6,0-2.3c1.2-1.3,2.4-1.9,2.7-2
			C13.4-5.2,14.7-4.9,15.1-4.6z M12.9-6l-0.2,0.2c-0.3,0.1-1.6,0.7-2.9,2.1L9.2-3.3C10.1-4.6,11.4-5.5,12.9-6z M7.5,1.4
			c0-0.1,0-0.3,0-0.4l0.6,0.5c0.1,2.2,0.8,3.2,1.1,3.6C9.1,5.3,9,5.6,9,6C8.1,4.7,7.5,3.1,7.5,1.4z M12,5.5c-0.8-0.1-2-0.3-2.3-0.6
			l0,0c-0.1-0.1-0.9-1-1.1-3.4c0.4-0.7,1.1-1.7,1.5-2l2.4,0.6l0.9,3.1L12,5.5z M15.4,9.3c-0.9,0-1.7-0.1-2.5-0.4l0.8-0.4
			c0.4,0,2,0.2,3.3,0l0.9,0.4C17.1,9.1,16.3,9.3,15.4,9.3z M16.9,8c-1.2,0.2-2.7,0-3.1,0c-0.2-0.3-1.1-1.5-1.4-2.3l1.4-2.3h3.3
			l1.5,2.3C18.4,6.2,17.5,7.3,16.9,8z M21.2,4.9L21.2,4.9C21.1,4.9,21.1,4.9,21.2,4.9c-0.3,0.1-1.3,0.5-2.2,0.6l-1.5-2.3
			c0.6-1.6,0.9-2.7,1-3.2l2.3-0.6c0.4,0.5,1.3,1.5,1.5,2C22.3,1.8,22.2,3.6,21.2,4.9z M21.8,5.9c0-0.3,0-0.5-0.1-0.6
			c0-0.1,0-0.2-0.1-0.3c1-1.3,1.2-3,1.2-3.5l0.4-0.3v0.1C23.3,3.1,22.7,4.7,21.8,5.9z"/>
		<path fill="#383E42" d="M12.1,9.2C12.1,9.2,12.1,9.1,12.1,9.2C12.1,9.1,12.1,9.2,12.1,9.2z"/>
		<path fill="#383E42" d="M9.4,7.2L9.4,7.2L9.4,7.2z"/>
		<path fill="#383E42" d="M8.2-2.8C8.2-2.8,8.1-2.8,8.2-2.8C8.1-2.8,8.1-2.8,8.2-2.8z"/>
	</g>
</g>
</svg>
