<svg width="25" height="25" viewBox="0 0 25 25" fill="none" xmlns="http://www.w3.org/2000/svg">
<path d="M23.9083 0.549805H1.09185C0.557816 0.549805 0.125 0.972106 0.125 1.49317C0.125 4.12021 1.27918 6.62822 3.29162 8.37363L7.52592 12.0457C8.26012 12.6825 8.68123 13.5975 8.68123 14.5561V23.7554C8.68123 24.5071 9.54233 24.9578 10.1842 24.5401L15.8884 20.8299C16.1573 20.6548 16.319 20.3604 16.319 20.045V14.5561C16.319 13.5975 16.7401 12.6825 17.4743 12.0457L21.7084 8.37363C23.7208 6.62822 24.875 4.12021 24.875 1.49317C24.875 0.972106 24.4422 0.549805 23.9083 0.549805ZM20.4237 6.96337L16.1896 10.6357C15.043 11.6302 14.3853 13.0591 14.3853 14.556V19.5401L10.6147 21.9927V14.5561C10.6147 13.0591 9.95702 11.6302 8.8104 10.6357L4.57628 6.96356C3.21929 5.78638 2.35309 4.17346 2.1212 2.43634H22.8788C22.6469 4.17346 21.7809 5.78638 20.4237 6.96337Z" fill="black"/>
</svg>
