<svg width="20" height="20" viewBox="0 0 20 20" fill="none" xmlns="http://www.w3.org/2000/svg">
<circle cx="10" cy="10" r="10" fill="#F4F4F4"/>
<path d="M9.13138 8.60655L6.71876 5.15369L9.65463 2.41602L13.7546 3.89049L13.6182 7.75451L9.13138 8.60655Z" fill="#6D6F76"/>
<path d="M10.6946 15.603L8.48667 17.9027L4.63005 16.2563L4.00022 12.8488L7.82859 12.3774L10.6946 15.603Z" fill="#6D6F76"/>
<path d="M18.4291 13.2222L18.3804 13.2818C17.0685 16.6288 13.812 19 9.99995 19C5.02917 19 0.999964 14.9708 0.999964 9.99998C1 5.02943 5.02921 1 9.99998 1C14.9706 1 19 5.02968 19 9.99998C19 11.1129 18.7966 12.1783 18.4272 13.1624L18.4291 13.2222ZM18.5308 9.99998C18.5308 8.8634 18.3055 7.77893 17.9001 6.78605L15.7711 4.14458L15.2193 3.25974C13.7752 2.13901 11.9648 1.46926 9.99965 1.46926C9.95241 1.46926 9.90592 1.47216 9.85838 1.47267L8.90629 1.82337L6.80779 2.09115C5.46403 2.63556 4.28869 3.51188 3.38526 4.61947L3.73473 6.14115L2.35595 10.0295L1.47514 10.2526C1.61039 14.8402 5.38056 18.5304 9.99969 18.5304C12.2995 18.5304 14.388 17.6142 15.9239 16.1295L14.2682 14.7073L15.8483 10.6343L18.3206 9.78275L18.3778 11.5989C18.4767 11.0811 18.5308 10.5469 18.5308 9.99998Z" fill="#6D6F76"/>
</svg>
