<svg width="18" height="18" viewBox="0 0 18 18" fill="none" xmlns="http://www.w3.org/2000/svg">
<g clip-path="url(#clip0)">
<path d="M8.13113 7.60679L5.71851 4.15393L8.65439 1.41626L12.7544 2.89073L12.6179 6.75475L8.13113 7.60679Z" fill="#6D6F76"/>
<path d="M9.69482 14.6031L7.48691 16.9027L3.6303 15.2564L3.00046 11.8489L6.82884 11.3775L9.69482 14.6031Z" fill="#6D6F76"/>
<path d="M17.4291 12.2222L17.3804 12.2818C16.0685 15.6288 12.812 18 8.99995 18C4.02917 18 -3.62396e-05 13.9708 -3.62396e-05 8.99998C0 4.02943 4.02921 0 8.99998 0C13.9706 0 18 4.02968 18 8.99998C18 10.1129 17.7966 11.1783 17.4272 12.1624L17.4291 12.2222ZM17.5308 8.99998C17.5308 7.8634 17.3055 6.77893 16.9001 5.78605L14.7711 3.14458L14.2193 2.25974C12.7752 1.13901 10.9648 0.469258 8.99965 0.469258C8.95241 0.469258 8.90592 0.472161 8.85838 0.472669L7.90629 0.82337L5.80779 1.09115C4.46403 1.63556 3.28869 2.51188 2.38526 3.61947L2.73473 5.14115L1.35595 9.02948L0.475136 9.25259C0.610386 13.8402 4.38056 17.5304 8.99969 17.5304C11.2995 17.5304 13.388 16.6142 14.9239 15.1295L13.2682 13.7073L14.8483 9.63428L17.3206 8.78275L17.3778 10.5989C17.4767 10.0811 17.5308 9.5469 17.5308 8.99998Z" fill="#6D6F76"/>
</g>
<path d="M7.44434 8C7.44434 7.44771 7.89205 7 8.44434 7H16.9999C17.5522 7 17.9999 7.44772 17.9999 8V17C17.9999 17.5523 17.5522 18 16.9999 18H8.44434C7.89205 18 7.44434 17.5523 7.44434 17V8Z" fill="#D33E3B"/>
<path d="M12.2308 12.2941H12.7638C13.2619 12.2941 13.6347 12.2047 13.882 12.026C14.1294 11.844 14.253 11.5807 14.253 11.236C14.253 10.8881 14.1485 10.6311 13.9395 10.4651C13.734 10.2991 13.41 10.2161 12.9676 10.2161H12.2308V12.2941ZM15.8886 11.1833C15.8886 11.9366 15.6308 12.5128 15.1152 12.9118C14.6031 13.3108 13.8733 13.5103 12.9257 13.5103H12.2308V16H10.6108V9H13.0512C13.9778 9 14.6815 9.18354 15.1623 9.55062C15.6465 9.9145 15.8886 10.4587 15.8886 11.1833Z" fill="white"/>
<defs>
<clipPath id="clip0">
<rect width="18" height="18" fill="white" transform="matrix(-1 0 0 1 18 0)"/>
</clipPath>
</defs>
</svg>
