<?xml version="1.0" encoding="utf-8"?>
<!-- Generator: Adobe Illustrator 19.0.0, SVG Export Plug-In . SVG Version: 6.00 Build 0)  -->
<svg version="1.1" baseProfile="tiny" xmlns="http://www.w3.org/2000/svg" xmlns:xlink="http://www.w3.org/1999/xlink" x="0px"
	 y="0px" viewBox="-296 388 17.3 17" xml:space="preserve">
<g id="Layer_1">
	<g id="Layer_2" display="none">
		<rect x="-593" y="776" display="inline" fill="#383E42" width="17" height="17"/>
	</g>
	
		<line id="XMLID_63_" display="none" fill="#505050" stroke="#FF0000" stroke-width="2" stroke-miterlimit="10" x1="-280.1" y1="389" x2="-294.5" y2="404"/>
</g>
<g id="Layer_2_1_">
	<g id="XMLID_3_">
		<path id="XMLID_25_" fill="#9C2F2E" d="M-280.1,392.1C-280.2,392-280.2,392-280.1,392.1C-280.2,392-280.1,392-280.1,392.1z"/>
		<path id="XMLID_24_" fill="#9C2F2E" d="M-280.9,402L-280.9,402L-280.9,402z"/>
		<path id="XMLID_23_" fill="#9C2F2E" d="M-281.5,400L-281.5,400C-281.6,400-281.6,400-281.5,400C-281.6,400-281.5,400-281.5,400z"
			/>
		<path id="XMLID_22_" fill="#9C2F2E" d="M-284,404.3C-284.1,404.4-284.1,404.4-284,404.3C-284.1,404.4-284.1,404.3-284,404.3z"/>
		<path id="XMLID_10_" fill="#9C2F2E" d="M-280.1,392c-1.2-1.9-3-3.3-5.4-3.8c-0.6-0.1-1.3-0.2-1.9-0.2s-1.2,0.1-1.8,0.2
			c-2.3,0.5-4.2,2.1-5.4,4c-0.6,0.9-1.1,2.6-1.2,3.9v0.1c0,0,0,0.3,0,0.5c0,1.2,0.4,2.5,0.4,2.5c0.5,1.6,1.4,2.7,1.9,3.2
			c0,0,0,0,0.1,0.1c0.8,0.8,1.7,1.5,2.8,1.9c0,0,1.7,0.6,3.4,0.6c1.7,0,3.2-0.5,3.4-0.6c1.2-0.6,2.3-1.3,3.1-2.3c0,0,0,0,0.1-0.1
			c0.8-1.1,2-2.7,1.6-6.9C-279.2,393.8-279.6,392.8-280.1,392z M-281,391.7l-0.6-0.2c-1-1.3-2.7-2.2-2.9-2.4l0,0l-0.3-0.1
			C-283.3,389.5-282,390.5-281,391.7z M-284.8,389.6c0.4,0.2,1.8,1.1,2.7,2.2c0.1,0.5,0.1,2.2,0.1,2.2l-2.5,0.7l-2.6-1.8v-2.5
			C-286.7,390.3-285.6,389.8-284.8,389.6z M-287.7,390.4v2.6l-2.5,1.7l-2.4-0.7c0,0-0.1-1.6,0-2.3c1.2-1.3,2.4-1.9,2.7-2
			C-289.4,389.8-288.1,390.1-287.7,390.4z M-289.9,389l-0.2,0.2c-0.3,0.1-1.6,0.7-2.9,2.1l-0.7,0.4
			C-292.8,390.4-291.4,389.5-289.9,389z M-295.4,396.5c0-0.1,0-0.3,0-0.4l0.6,0.5c0.1,2.2,0.8,3.2,1.1,3.6c-0.1,0.2-0.2,0.5-0.2,1
			C-294.8,399.8-295.4,398.2-295.4,396.5z M-290.8,400.6c-0.8-0.1-2-0.3-2.3-0.6l0,0c-0.1-0.1-0.9-1-1.1-3.4c0.4-0.7,1.1-1.7,1.5-2
			l2.4,0.6l0.9,3.1L-290.8,400.6z M-287.4,404.5c-0.9,0-1.7-0.1-2.5-0.4l0.8-0.4c0.4,0,2,0.2,3.3,0l0.9,0.4
			C-285.7,404.3-286.5,404.5-287.4,404.5z M-285.9,403.2c-1.2,0.2-2.7,0-3.1,0c-0.2-0.3-1.1-1.5-1.4-2.3l1.4-2.3h3.3l1.5,2.3
			C-284.4,401.4-285.3,402.5-285.9,403.2z M-281.5,400L-281.5,400C-281.6,400-281.6,400-281.5,400c-0.3,0.1-1.3,0.5-2.2,0.6
			l-1.5-2.3c0.6-1.6,0.9-2.7,1-3.2l2.3-0.6c0.4,0.5,1.3,1.5,1.5,2C-280.4,396.9-280.5,398.7-281.5,400z M-280.9,401.1
			c0-0.3-0.1-0.8-0.2-0.9c1-1.3,1.2-3,1.2-3.5l0.4-0.3v0.1C-279.4,398.2-280,399.8-280.9,401.1z"/>
		<path id="XMLID_9_" fill="#9C2F2E" d="M-290.7,404.4C-290.7,404.4-290.7,404.3-290.7,404.4C-290.7,404.3-290.7,404.4-290.7,404.4z
			"/>
		<path id="XMLID_8_" fill="#9C2F2E" d="M-293.5,402.4L-293.5,402.4L-293.5,402.4z"/>
	</g>
	<path id="XMLID_5_" fill="#505050" d="M-287.4,396.5"/>
	<path id="XMLID_4_" fill="#505050" d="M-287.4,396.5"/>
	<path id="XMLID_2_" fill="#505050" d="M-287.4,396.5"/>
</g>
</svg>
