<svg width="20" height="20" viewBox="0 0 20 20" fill="none" xmlns="http://www.w3.org/2000/svg">
<path d="M8 9C8 8.44772 8.44772 8 9 8H19C19.5523 8 20 8.44772 20 9V19C20 19.5523 19.5523 20 19 20H9C8.44772 20 8 19.5523 8 19V9Z" fill="#F4F4F4"/>
<circle cx="10" cy="10" r="10" fill="#F4F4F4"/>
<g clip-path="url(#clip0)">
<path d="M9.13113 8.60679L6.71851 5.15393L9.65439 2.41626L13.7544 3.89073L13.6179 7.75475L9.13113 8.60679Z" fill="#6D6F76"/>
<path d="M10.6948 15.6031L8.48691 17.9027L4.6303 16.2564L4.00046 12.8489L7.82884 12.3775L10.6948 15.6031Z" fill="#6D6F76"/>
<path d="M18.4291 13.2222L18.3804 13.2818C17.0685 16.6288 13.812 19 9.99995 19C5.02917 19 0.999963 14.9708 0.999963 9.99998C1 5.02943 5.02921 1 9.99998 1C14.9706 1 19 5.02968 19 9.99998C19 11.1129 18.7966 12.1783 18.4272 13.1624L18.4291 13.2222ZM18.5308 9.99998C18.5308 8.8634 18.3055 7.77893 17.9001 6.78605L15.7711 4.14458L15.2193 3.25974C13.7752 2.13901 11.9648 1.46926 9.99965 1.46926C9.95241 1.46926 9.90592 1.47216 9.85838 1.47267L8.90629 1.82337L6.80779 2.09115C5.46403 2.63556 4.28869 3.51188 3.38526 4.61947L3.73473 6.14115L2.35595 10.0295L1.47514 10.2526C1.61039 14.8402 5.38056 18.5304 9.99969 18.5304C12.2995 18.5304 14.388 17.6142 15.9239 16.1295L14.2682 14.7073L15.8483 10.6343L18.3206 9.78275L18.3778 11.5989C18.4767 11.0811 18.5308 10.5469 18.5308 9.99998Z" fill="#6D6F76"/>
</g>
<path d="M8.44434 9C8.44434 8.44771 8.89205 8 9.44434 8H17.9999C18.5522 8 18.9999 8.44772 18.9999 9V18C18.9999 18.5523 18.5522 19 17.9999 19H9.44434C8.89205 19 8.44434 18.5523 8.44434 18V9Z" fill="#D33E3B"/>
<path d="M13.2308 13.2941H13.7638C14.2619 13.2941 14.6347 13.2047 14.882 13.026C15.1294 12.844 15.253 12.5807 15.253 12.236C15.253 11.8881 15.1485 11.6311 14.9395 11.4651C14.734 11.2991 14.41 11.2161 13.9676 11.2161H13.2308V13.2941ZM16.8886 12.1833C16.8886 12.9366 16.6308 13.5128 16.1152 13.9118C15.6031 14.3108 14.8733 14.5103 13.9257 14.5103H13.2308V17H11.6108V10H14.0512C14.9778 10 15.6815 10.1835 16.1623 10.5506C16.6465 10.9145 16.8886 11.4587 16.8886 12.1833Z" fill="#F4F4F4"/>
<defs>
<clipPath id="clip0">
<rect width="18" height="18" fill="white" transform="matrix(-1 0 0 1 19 1)"/>
</clipPath>
</defs>
</svg>
