<?xml version="1.0" encoding="utf-8"?>
<!-- Generator: Adobe Illustrator 19.0.0, SVG Export Plug-In . SVG Version: 6.00 Build 0)  -->
<svg version="1.2" baseProfile="tiny" id="Layer_1" xmlns="http://www.w3.org/2000/svg" xmlns:xlink="http://www.w3.org/1999/xlink"
	 x="0px" y="0px" viewBox="6 -10.4 15.9 23.4" xml:space="preserve">
<g>
	<path fill="#EF2222" d="M11.4-9.6h5.1c2.5,0,4.6,2.1,4.6,4.6V7.6c0,2.5-2.1,4.6-4.6,4.6h-5.1c-2.5,0-4.6-2.1-4.6-4.6V-5
		C6.8-7.5,8.9-9.6,11.4-9.6z"/>
	<path fill="#FFFFFF" d="M17.7,13h-7.5C7.9,13,6,11.1,6,8.8v-15c0-2.3,1.9-4.2,4.2-4.2h7.4c2.3,0,4.2,1.9,4.2,4.2V8.7
		C21.9,11.1,20,13,17.7,13z M10.2-8.8c-1.5,0-2.7,1.2-2.7,2.7V8.8c0,1.5,1.2,2.7,2.7,2.7h7.4c1.5,0,2.7-1.2,2.7-2.7v-15
		c0-1.5-1.2-2.7-2.7-2.7h-7.4V-8.8z"/>
</g>
</svg>
