<?xml version="1.0" standalone="no"?>
<!DOCTYPE svg PUBLIC "-//W3C//DTD SVG 1.1//EN" "http://www.w3.org/Graphics/SVG/1.1/DTD/svg11.dtd" >
<svg xmlns="http://www.w3.org/2000/svg" xmlns:xlink="http://www.w3.org/1999/xlink" version="1.1">
<metadata></metadata>
<defs>
<font id="core_sans_c65_bold" horiz-adv-x="1346" >
<font-face units-per-em="2048" ascent="1638" descent="-410" />
<missing-glyph horiz-adv-x="617" />
<glyph unicode="&#xfb01;" horiz-adv-x="1349" d="M44 816v245h159v60q0 374 419 374q62 0 130 -10v-224q-51 5 -103 5q-88 0 -126.5 -36t-38.5 -112v-57h723v-1061h-281v816h-442v-816h-281v816h-159zM900 1343.5q0 68.5 48 115.5t119 47t119 -47t48 -115.5t-48 -115.5t-119 -47t-119 47t-48 115.5z" />
<glyph unicode="&#xfb02;" horiz-adv-x="1338" d="M44 816v245h159v60q0 374 417 374q55 0 121 -10v-224q-46 5 -95 5q-86 0 -124 -36t-38 -112v-57h257v-245h-257v-816h-281v816h-159zM915 0v1495h282v-1495h-282z" />
<glyph unicode="&#xfb03;" horiz-adv-x="2072" d="M44 816v245h159v60q0 188 106 281t321 93q85 0 157 -15l-27 -227q-67 12 -115 13q-85 0 -123 -36t-38 -112v-57h442v60q0 374 419 374q62 0 130 -10v-224q-51 5 -103 5q-88 0 -126.5 -36t-38.5 -112v-57h723v-1061h-281v816h-442v-816h-281v816h-442v-816h-281v816h-159z M1623 1343.5q0 68.5 48 115.5t119 47t119 -47t48 -115.5t-48 -115.5t-119 -47t-119 47t-48 115.5z" />
<glyph unicode="&#xfb04;" horiz-adv-x="2061" d="M44 816v245h159v60q0 188 106 281t321 93q85 0 157 -15l-27 -227q-67 12 -115 13q-85 0 -123 -36t-38 -112v-57h442v60q0 374 416 374q56 0 122 -10v-224q-46 5 -95 5q-86 0 -124 -36t-38 -112v-57h257v-245h-257v-816h-281v816h-442v-816h-281v816h-159zM1638 0v1495 h282v-1495h-282z" />
<glyph horiz-adv-x="0" />
<glyph horiz-adv-x="0" />
<glyph unicode="&#xd;" horiz-adv-x="681" />
<glyph unicode="&#x9;" horiz-adv-x="0" />
<glyph unicode=" "  horiz-adv-x="617" />
<glyph unicode="&#x09;" horiz-adv-x="617" />
<glyph unicode="&#xa0;" horiz-adv-x="617" />
<glyph unicode="!" horiz-adv-x="641" d="M143 145.5q0 72.5 51.5 121t126 48.5t126 -48.5t51.5 -121t-51.5 -121.5t-126 -49t-126 49t-51.5 121.5zM175 429v1005h291v-1005h-291z" />
<glyph unicode="&#x22;" horiz-adv-x="1010" d="M174 854v580h279v-580h-279zM558 854v580h279v-580h-279z" />
<glyph unicode="#" horiz-adv-x="1420" d="M68 328v225h220l55 319h-200v226h238l58 336h269l-59 -336h252l58 336h269l-59 -336h184v-226h-221l-56 -319h201v-225h-239l-56 -328h-268l56 328h-252l-56 -328h-268l56 328h-182zM556 553h252l55 319h-252z" />
<glyph unicode="$" horiz-adv-x="1222" d="M93 206l166 194q129 -138 279 -170v398q-203 48 -308.5 154.5t-105.5 261.5q0 167 114 280t300 131v187h180v-193q208 -32 356 -173l-156 -203q-106 92 -200 123v-348q222 -56 326 -165.5t104 -274.5q0 -171 -115 -287t-315 -139v-191h-180v190q-132 14 -248 73t-197 152 zM416 1066q0 -105 122 -162v299q-55 -15 -88.5 -51.5t-33.5 -85.5zM718 237q65 19 101.5 61.5t36.5 100.5q0 116 -138 176v-338z" />
<glyph unicode="%" horiz-adv-x="1881" d="M86 1080.5q0 154.5 111 261t277 106.5t277 -106.5t111 -261t-111 -261t-277 -106.5t-277 106.5t-111 261zM334 1080.5q0 -60.5 39.5 -104t101 -43.5t100.5 43.5t39 104t-39 104t-100.5 43.5t-101 -43.5t-39.5 -104zM444 0l740 1434h253l-739 -1434h-254zM1019 353.5 q0 154.5 111 261t277 106.5t277 -106.5t111 -261t-111 -261t-277 -106.5t-277 106.5t-111 261zM1267 353.5q0 -60.5 39.5 -104t100.5 -43.5t100.5 43.5t39.5 104t-39.5 104t-100.5 43.5t-100.5 -43.5t-39.5 -104z" />
<glyph unicode="&#x26;" horiz-adv-x="1522" d="M109 384q0 126 60.5 224.5t187.5 181.5q-78 87 -108 158t-30 153q0 153 121.5 255t294.5 102q153 0 262 -69.5t154 -190.5l-248 -100q-45 137 -167 137q-60 0 -102 -39.5t-42 -92.5t41 -117t146 -162l334 -314q45 99 61 246l264 -38q-20 -226 -126 -401l336 -317h-366 l-136 127q-184 -152 -428 -152q-220 0 -364.5 117t-144.5 292zM386 402q0 -83 64.5 -138.5t167.5 -55.5q136 0 246 93l-338 320q-140 -96 -140 -219z" />
<glyph unicode="'" horiz-adv-x="636" d="M176 854v580h285v-580h-285z" />
<glyph unicode="(" horiz-adv-x="875" d="M221 623.5q0 273.5 101.5 523.5t283.5 432l197 -140q-141 -166 -216 -377.5t-75 -438t75 -438t216 -376.5l-197 -141q-182 182 -283.5 432t-101.5 523.5z" />
<glyph unicode=")" horiz-adv-x="875" d="M73 -191q141 166 216 377t75 437.5t-75 438t-216 377.5l196 140q182 -182 283.5 -432t101.5 -523.5t-101 -523.5t-284 -432z" />
<glyph unicode="*" horiz-adv-x="1153" d="M120 551l245 128l-245 128l117 206l232 -147l-11 274h237l-11 -274l232 147l117 -206l-245 -128l245 -128l-117 -206l-232 147l11 -274h-237l11 274l-232 -147z" />
<glyph unicode="+" horiz-adv-x="1193" d="M121 557v245h337v347h278v-347h337v-245h-337v-347h-278v347h-337z" />
<glyph unicode="," horiz-adv-x="617" d="M133 -256l111 243q-49 18 -79 60.5t-30 97.5q0 73 49 121.5t124 48.5t124.5 -48.5t49.5 -121.5q0 -39 -18 -78l-151 -323h-180z" />
<glyph unicode="-" horiz-adv-x="847" d="M121 550v260h606v-260h-606z" />
<glyph unicode="." horiz-adv-x="617" d="M135 145.5q0 72.5 49 121t124 48.5t124.5 -48.5t49.5 -121t-49.5 -121.5t-124.5 -49t-124 49t-49 121.5z" />
<glyph unicode="/" horiz-adv-x="979" d="M-5 -287l700 1823h290l-700 -1823h-290z" />
<glyph unicode="0" horiz-adv-x="1234" d="M114 717q0 160 31.5 294t93.5 234.5t159 156.5t219.5 56t219.5 -56t159 -156.5t93.5 -234.5t31.5 -294q0 -215 -54.5 -380t-170.5 -263.5t-278.5 -98.5t-278.5 98.5t-170.5 263.5t-54.5 380zM396 717q0 -227 54.5 -355t167 -128t167 127.5t54.5 355.5q0 148 -22.5 254 t-73 166.5t-126 60.5t-126 -60.5t-73 -166.5t-22.5 -254z" />
<glyph unicode="1" horiz-adv-x="1234" d="M198 1233l375 201h257v-1434h-287v1157l-233 -125z" />
<glyph unicode="2" horiz-adv-x="1234" d="M157 1127q44 150 164 240.5t296 90.5q205 0 338.5 -115t133.5 -304q0 -119 -48 -217.5t-152 -212.5l-332 -361h517v-248h-887v232l479 522q75 81 106 141.5t31 126.5q0 81 -53.5 133.5t-135.5 52.5q-75 0 -126.5 -42.5t-87.5 -130.5z" />
<glyph unicode="3" horiz-adv-x="1234" d="M97 218l184 166q111 -162 271 -162q104 0 174 69.5t70 169.5q0 98 -70 167.5t-174 69.5q-35 0 -69 -11l-110 139l307 360h-501v248h836v-246l-282 -316q163 -33 257 -154t94 -288q0 -87 -37 -169t-103 -145.5t-165.5 -102t-214.5 -38.5q-148 0 -269.5 63.5t-197.5 179.5z " />
<glyph unicode="4" horiz-adv-x="1234" d="M75 260v246l619 928h276v-921h153v-253h-153v-260h-283v260h-612zM352 511h335v502z" />
<glyph unicode="5" horiz-adv-x="1234" d="M111 213l192 169q109 -159 264 -159q105 0 175.5 68t70.5 169.5t-70 170t-175 68.5q-55 0 -103 -22.5t-75 -59.5l-206 27l90 790h774v-248h-516l-34 -293q59 31 143 31q124 0 228.5 -56.5t168 -163.5t63.5 -243q0 -214 -141.5 -350t-375.5 -136q-151 0 -274 61t-199 177z " />
<glyph unicode="6" horiz-adv-x="1234" d="M96 460q0 141 72 253l468 721h304l-331 -510q7 1 21 1q96 0 185.5 -30.5t162 -87t116 -147t43.5 -200.5q0 -137 -73 -249.5t-190.5 -174t-253.5 -61.5q-139 0 -258.5 61.5t-192.5 174t-73 249.5zM378 461q0 -102 69.5 -172t169 -70t169 70t69.5 172q0 103 -69.5 172.5 t-169 69.5t-169 -69.5t-69.5 -172.5z" />
<glyph unicode="7" horiz-adv-x="1234" d="M166 1183v251h913v-231l-496 -1203h-313l495 1183h-599z" />
<glyph unicode="8" horiz-adv-x="1234" d="M108 429q0 119 63 215.5t174 139.5q-75 38 -122 115.5t-47 165.5q0 166 125.5 279.5t316 113.5t316 -113.5t125.5 -279.5q0 -88 -47 -165.5t-122 -115.5q111 -43 174 -139.5t63 -215.5q0 -127 -67 -231t-183.5 -163.5t-259 -59.5t-259 59.5t-183.5 163.5t-67 231z M387 437q0 -93 66.5 -158t164 -65t164 65t66.5 158q0 94 -66.5 159.5t-164 65.5t-164 -65.5t-66.5 -159.5zM444 1057q0 -68 50.5 -117.5t123 -49.5t123 49.5t50.5 117.5q0 69 -50.5 117t-123 48t-123 -48t-50.5 -117z" />
<glyph unicode="9" horiz-adv-x="1234" d="M98 974q0 137 73 249t190.5 173.5t253.5 61.5q139 0 258.5 -61.5t192.5 -173.5t73 -249q0 -141 -72 -253l-468 -721h-304l331 510q-7 -1 -21 -1q-96 0 -185.5 30t-162 87t-116 147t-43.5 201zM380 973q0 -103 69.5 -173t169 -70t169 69.5t69.5 173.5q0 102 -69.5 171.5 t-169 69.5t-169 -69.5t-69.5 -171.5z" />
<glyph unicode=":" horiz-adv-x="617" d="M135 145.5q0 72.5 49 121t124 48.5t124.5 -48.5t49.5 -121t-49.5 -121.5t-124.5 -49t-124 49t-49 121.5zM135 915.5q0 72.5 49 121t124 48.5t124.5 -48.5t49.5 -121t-49.5 -121.5t-124.5 -49t-124 49t-49 121.5z" />
<glyph unicode=";" horiz-adv-x="617" d="M133 -256l111 243q-49 18 -79 60.5t-30 97.5q0 73 49 121.5t124 48.5t124.5 -48.5t49.5 -121.5q0 -39 -18 -78l-151 -323h-180zM135 915.5q0 72.5 49 121t124 48.5t124.5 -48.5t49.5 -121t-49.5 -121.5t-124.5 -49t-124 49t-49 121.5z" />
<glyph unicode="&#x3c;" horiz-adv-x="1193" d="M123 586v186l916 503v-308l-561 -288l561 -288v-308z" />
<glyph unicode="=" horiz-adv-x="1193" d="M121 325v242h952v-242h-952zM121 792v242h952v-242h-952z" />
<glyph unicode="&#x3e;" horiz-adv-x="1193" d="M155 83v308l561 288l-561 288v308l916 -503v-186z" />
<glyph unicode="?" horiz-adv-x="1135" d="M72 1299q194 159 443 159q111 0 207 -34.5t160.5 -93t101.5 -136t37 -162.5q0 -146 -102.5 -260t-276.5 -152v-191h-291v371q178 0 277 64.5t99 166.5q0 76 -66.5 124.5t-174.5 48.5q-136 0 -275 -115zM319 145.5q0 72.5 51.5 121t126 48.5t126 -48.5t51.5 -121 t-51.5 -121.5t-126 -49t-126 49t-51.5 121.5z" />
<glyph unicode="@" horiz-adv-x="1988" d="M72 563q0 187 72.5 354t196 285.5t293 187t356.5 68.5q196 0 368.5 -66.5t295 -180.5t193 -272.5t70.5 -336.5q0 -223 -121 -357.5t-314 -134.5q-78 0 -152 36.5t-113 95.5q-50 -62 -123 -97t-155 -35q-176 0 -294 129t-118 312q0 182 117.5 311.5t290.5 129.5 q142 0 249 -106v86h235v-607q12 -24 38.5 -39t54.5 -15q81 0 137.5 77.5t56.5 215.5q0 136 -58 260t-154 213t-228 142t-276 53t-274.5 -55.5t-225.5 -149.5t-151 -225.5t-56 -278.5q0 -197 95 -359t263.5 -255.5t375.5 -93.5q267 0 486 152l84 -171q-269 -168 -570 -168 q-200 0 -375 68.5t-300.5 187t-197.5 285t-72 354.5zM766 551q0 -99 63.5 -166.5t157.5 -67.5q66 0 117.5 34.5t79.5 91.5v215q-28 56 -80 90.5t-117 34.5q-94 0 -157.5 -66.5t-63.5 -165.5z" />
<glyph unicode="A" horiz-adv-x="1415" d="M34 0l513 1434h321l513 -1434h-308l-106 323h-518l-107 -323h-308zM523 560h369l-184 563z" />
<glyph unicode="B" horiz-adv-x="1282" d="M157 0v1434h539q199 0 311.5 -104.5t112.5 -283.5q0 -102 -46.5 -176t-126.5 -109q109 -30 179.5 -121.5t70.5 -221.5q0 -185 -117.5 -301.5t-312.5 -116.5h-610zM442 241h290q78 0 126 52t48 138q0 87 -48 139.5t-126 52.5h-290v-382zM442 854h232q74 0 119 44t45 125 q0 82 -44.5 126t-119.5 44h-232v-339z" />
<glyph unicode="C" horiz-adv-x="1423" d="M79 717q0 206 101 376t277.5 267.5t390.5 97.5q278 0 491 -166l-146 -216q-86 61 -167.5 94.5t-177.5 33.5q-201 0 -338 -140t-137 -347t137 -347.5t338 -140.5q96 0 188 38t167 101l154 -214q-215 -179 -509 -179q-214 0 -390.5 98t-277.5 268t-101 376z" />
<glyph unicode="D" horiz-adv-x="1473" d="M157 0v1434h519q328 0 523.5 -195t195.5 -522.5t-195.5 -522t-523.5 -194.5h-519zM447 254h219q200 0 317.5 117t117.5 345.5t-117.5 346t-317.5 117.5h-219v-926z" />
<glyph unicode="E" horiz-adv-x="1173" d="M157 0v1434h893v-248h-603v-342h553v-246h-553v-350h621v-248h-911z" />
<glyph unicode="F" horiz-adv-x="1103" d="M157 0v1434h872v-250h-582v-354h533v-249h-533v-581h-290z" />
<glyph unicode="G" horiz-adv-x="1492" d="M79 717q0 206 101 376t277.5 267.5t390.5 97.5q278 0 491 -166l-146 -216q-86 61 -167.5 94.5t-177.5 33.5q-201 0 -338 -140.5t-137 -349.5q0 -207 137.5 -348.5t337.5 -141.5q129 0 225 60v275h-314v235h605v-633q-101 -88 -235 -137t-281 -49q-214 0 -390.5 98 t-277.5 268t-101 376z" />
<glyph unicode="H" horiz-adv-x="1447" d="M157 0v1434h290v-588h553v588h291v-1434h-291v595h-553v-595h-290z" />
<glyph unicode="I" horiz-adv-x="620" d="M165 0v1434h291v-1434h-291z" />
<glyph unicode="J" horiz-adv-x="952" d="M34 47l84 240q94 -57 194 -58q204 0 204 238v967h291v-977q0 -242 -120.5 -362t-349.5 -120q-81 0 -163 19t-140 53z" />
<glyph unicode="K" horiz-adv-x="1268" d="M157 0v1434h290v-585h82l361 585h320l-439 -707l518 -727h-326l-425 598h-91v-598h-290z" />
<glyph unicode="L" horiz-adv-x="1062" d="M157 0v1434h290v-1183h580v-251h-870z" />
<glyph unicode="M" horiz-adv-x="1759" d="M157 0v1434h297l426 -689l426 689h297v-1434h-275v994l-352 -566h-193l-352 566v-994h-274z" />
<glyph unicode="N" horiz-adv-x="1447" d="M157 0v1434h295l565 -965v965h274v-1434h-295l-565 965v-965h-274z" />
<glyph unicode="O" horiz-adv-x="1695" d="M79 717q0 206 101 376t277.5 267.5t390.5 97.5t390.5 -97.5t277.5 -267.5t101 -376t-101 -376t-277.5 -268t-390.5 -98t-390.5 98t-277.5 268t-101 376zM373 717q0 -207 137 -347.5t338 -140.5t338 140.5t137 347.5t-137 347t-338 140t-338 -140t-137 -347z" />
<glyph unicode="P" horiz-adv-x="1228" d="M157 0v1434h507q227 0 363.5 -129t136.5 -338q0 -210 -136.5 -338.5t-363.5 -128.5h-217v-500h-290zM447 739h193q112 0 172.5 61.5t60.5 166.5q0 104 -60.5 165.5t-172.5 61.5h-193v-455z" />
<glyph unicode="Q" horiz-adv-x="1695" d="M79 717q0 206 101 376t277.5 267.5t390.5 97.5t390.5 -97.5t277.5 -267.5t101 -376q0 -284 -186 -492l195 -215l-193 -171l-207 228q-173 -91 -378 -92q-214 0 -390.5 98t-277.5 268t-101 376zM373 717q0 -207 137 -347.5t338 -140.5q101 0 193 40l-192 213l193 171 l197 -217q84 123 84 281q0 207 -137 347t-338 140t-338 -140t-137 -347z" />
<glyph unicode="R" horiz-adv-x="1256" d="M157 0v1434h507q228 0 364 -126.5t136 -335.5q0 -161 -83 -274t-230 -157l347 -541h-317l-322 510h-114v-510h-288zM445 742h196q111 0 171.5 61.5t60.5 164.5q0 104 -60.5 165t-171.5 61h-196v-452z" />
<glyph unicode="S" horiz-adv-x="1222" d="M93 206l167 195q75 -80 167.5 -128.5t187.5 -48.5q104 0 171.5 48.5t67.5 126.5t-64 133t-227 90q-215 45 -327 153.5t-112 268.5q0 182 133.5 298t343.5 116q285 0 473 -182l-158 -204q-159 139 -303 139q-85 0 -140 -40.5t-55 -104.5q0 -75 63 -125.5t210 -84.5 q237 -54 347 -165t110 -283q0 -191 -142.5 -312t-383.5 -121q-157 0 -296 61t-233 170z" />
<glyph unicode="T" horiz-adv-x="1140" d="M56 1183v251h1028v-251h-368v-1183h-291v1183h-369z" />
<glyph unicode="U" horiz-adv-x="1372" d="M145 492v942h291v-955q0 -111 72 -179.5t178.5 -68.5t178 69t71.5 179v955h291v-942q0 -151 -73 -269.5t-195.5 -182t-272 -63.5t-272.5 63.5t-196 182t-73 269.5z" />
<glyph unicode="V" horiz-adv-x="1415" d="M34 1434h305l369 -1086l368 1086h305l-513 -1434h-321z" />
<glyph unicode="W" horiz-adv-x="2017" d="M34 1434h303l253 -1028l275 1028h287l275 -1028l253 1028h303l-397 -1434h-292l-285 1037l-286 -1037h-292z" />
<glyph unicode="X" horiz-adv-x="1316" d="M26 0l454 731l-434 703h316l296 -499l296 499h317l-434 -703l454 -731h-316l-317 528l-316 -528h-316z" />
<glyph unicode="Y" horiz-adv-x="1333" d="M34 1434h313l320 -580l319 580h313l-487 -856v-578h-291v578z" />
<glyph unicode="Z" horiz-adv-x="1249" d="M116 0v241l660 942h-630v251h977v-241l-660 -942h681v-251h-1028z" />
<glyph unicode="[" horiz-adv-x="875" d="M217 -287v1823h620v-251h-329v-1321h329v-251h-620z" />
<glyph unicode="\" horiz-adv-x="979" d="M-5 1536h290l700 -1823h-290z" />
<glyph unicode="]" horiz-adv-x="875" d="M39 -36h329v1321h-329v251h619v-1823h-619v251z" />
<glyph unicode="^" horiz-adv-x="1275" d="M90 797l410 637h276l410 -637h-305l-243 386l-243 -386h-305z" />
<glyph unicode="_" horiz-adv-x="1024" d="M0 -163h1024v-229h-1024v229z" />
<glyph unicode="`" horiz-adv-x="870" d="M106 1495h283l267 -350h-268z" />
<glyph unicode="a" d="M67 530.5q0 150.5 68 277.5t189.5 202t271.5 75q202 0 336 -131v107h278v-1061h-278v106q-134 -131 -336 -131q-150 0 -271.5 75.5t-189.5 202.5t-68 277.5zM349 530q0 -130 88 -218t218 -88q91 0 165.5 46t111.5 123v275q-37 77 -111.5 123t-165.5 46q-130 0 -218 -88.5 t-88 -218.5z" />
<glyph unicode="b" d="M136 0v1495h279v-541q134 131 336 131q150 0 271.5 -75t189.5 -202t68 -277.5t-68 -277.5t-190 -202.5t-271 -75.5q-202 0 -336 131v-106h-279zM415 393q37 -77 111 -123t165 -46q130 0 218 88t88 218t-88 218.5t-218 88.5q-91 0 -165 -46.5t-111 -122.5v-275z" />
<glyph unicode="c" horiz-adv-x="1137" d="M67 530.5q0 233.5 168.5 394t419.5 160.5q231 0 401 -142l-140 -210q-127 103 -259 104q-130 0 -218 -89t-88 -218q0 -130 88 -218t218 -88q139 0 266 112l156 -197q-169 -164 -424 -164q-251 0 -419.5 161t-168.5 394.5z" />
<glyph unicode="d" d="M67 530.5q0 150.5 68 277.5t189.5 202t271.5 75q202 0 336 -131v541h278v-1495h-278v106q-134 -131 -336 -131q-150 0 -271.5 75.5t-189.5 202.5t-68 277.5zM349 530q0 -130 88 -218t218 -88q91 0 165.5 46t111.5 123v275q-37 77 -111.5 123t-165.5 46q-130 0 -218 -88.5 t-88 -218.5z" />
<glyph unicode="e" horiz-adv-x="1265" d="M67 530q0 115 44 217.5t120 176.5t183.5 117.5t228.5 43.5q159 0 287 -72t198.5 -194.5t70.5 -269.5q0 -53 -12 -103h-836q18 -111 103 -178.5t204 -67.5q167 0 301 132l169 -164q-177 -193 -469 -193q-129 0 -240.5 43t-188 118t-120 177t-43.5 217zM358 647h551 q-24 96 -95.5 155t-172.5 59q-99 0 -176.5 -58.5t-106.5 -155.5z" />
<glyph unicode="f" horiz-adv-x="785" d="M44 816v245h159v60q0 374 417 374q55 0 121 -10v-224q-46 5 -95 5q-86 0 -124 -36t-38 -112v-57h257v-245h-257v-816h-281v816h-159z" />
<glyph unicode="g" d="M67 530q0 151 68 278t189.5 202t271.5 75q202 0 336 -131v107h278v-999q0 -244 -148.5 -390.5t-415.5 -146.5q-151 0 -282.5 53.5t-222.5 150.5l162 185q148 -148 331 -148q136 0 217 74t81 204v70q-133 -131 -336 -131q-150 0 -271.5 73.5t-189.5 199t-68 274.5z M349 530q0 -130 88 -218t218 -88q91 0 165.5 46t111.5 123v275q-37 77 -111.5 123t-165.5 46q-130 0 -218 -88.5t-88 -218.5z" />
<glyph unicode="h" horiz-adv-x="1255" d="M136 0v1495h282v-551q54 65 133.5 103t164.5 38q187 0 305.5 -119.5t118.5 -312.5v-653h-282v626q0 90 -58 150.5t-153 60.5q-65 0 -128 -43.5t-101 -103.5v-690h-282z" />
<glyph unicode="i" horiz-adv-x="565" d="M116 1343.5q0 68.5 48 115.5t118.5 47t119 -47t48.5 -115.5t-48.5 -115.5t-119 -47t-118.5 47t-48 115.5zM141 0v1061h282v-1061h-282z" />
<glyph unicode="j" horiz-adv-x="565" d="M-39 -230h54q66 0 96 31.5t30 106.5v1153h282v-1167q0 -188 -90 -278.5t-273 -90.5q-58 0 -99 7v238zM116 1343.5q0 68.5 48 115.5t118.5 47t119 -47t48.5 -115.5t-48.5 -115.5t-119 -47t-118.5 47t-48 115.5z" />
<glyph unicode="k" horiz-adv-x="1098" d="M136 0v1495h282v-789h91l222 355h318l-312 -477l358 -584h-313l-277 464h-87v-464h-282z" />
<glyph unicode="l" horiz-adv-x="565" d="M141 0v1495h282v-1495h-282z" />
<glyph unicode="m" horiz-adv-x="1928" d="M136 0v1061h282v-117q51 63 125.5 101t159.5 38q112 0 201.5 -48t144.5 -134q57 83 151 133.5t199 50.5q183 0 298 -120t115 -309v-656h-281v628q0 89 -53 149t-140 60q-65 0 -124 -42.5t-101 -110.5q2 -45 2 -70v-614h-281v628q0 91 -53.5 150t-139.5 59 q-65 0 -123.5 -42t-99.5 -108v-687h-282z" />
<glyph unicode="n" horiz-adv-x="1255" d="M136 0v1061h282v-117q54 65 133.5 103t164.5 38q187 0 305.5 -119.5t118.5 -312.5v-653h-282v626q0 90 -58 150.5t-153 60.5q-65 0 -128 -43.5t-101 -103.5v-690h-282z" />
<glyph unicode="o" horiz-adv-x="1310" d="M67 530.5q0 233.5 168.5 394t419.5 160.5q166 0 301.5 -73.5t211.5 -200.5t76 -280.5t-76 -280.5t-211.5 -201t-301.5 -74q-251 0 -419.5 161t-168.5 394.5zM349 530q0 -130 88 -218t218 -88t219 88t89 218q0 129 -89 218t-219 89t-218 -89t-88 -218z" />
<glyph unicode="p" d="M136 -475v1536h279v-107q134 131 336 131q150 0 271.5 -75t189.5 -202t68 -277.5t-68 -277.5t-190 -202.5t-271 -75.5q-202 0 -336 131v-581h-279zM415 393q37 -77 111 -123t165 -46q130 0 218 88t88 218t-88 218.5t-218 88.5q-91 0 -165 -46.5t-111 -122.5v-275z" />
<glyph unicode="q" d="M67 530.5q0 150.5 68 277.5t189.5 202t271.5 75q202 0 336 -131v107h278v-1536h-278v581q-134 -131 -336 -131q-150 0 -271.5 75.5t-189.5 202.5t-68 277.5zM349 530q0 -130 88 -218t218 -88q91 0 165.5 46t111.5 123v275q-37 77 -111.5 123t-165.5 46q-130 0 -218 -88.5 t-88 -218.5z" />
<glyph unicode="r" horiz-adv-x="844" d="M136 0v1061h282v-130q115 154 281 154h2q54 0 97 -22l-20 -247q-59 21 -112 21q-76 0 -140.5 -46.5t-107.5 -125.5v-665h-282z" />
<glyph unicode="s" horiz-adv-x="969" d="M63 152l142 175q51 -58 121 -92t148 -34q73 0 114.5 28.5t41.5 76.5q0 49 -41 79.5t-142 50.5q-345 71 -345 340q0 135 106 222t277 87q106 0 204.5 -39t172.5 -105l-135 -176q-116 95 -217 95q-58 0 -95 -24t-37 -64q0 -92 169 -127q183 -37 270.5 -122t87.5 -220 q0 -143 -111.5 -235.5t-297.5 -92.5q-132 0 -246 47t-187 130z" />
<glyph unicode="t" horiz-adv-x="805" d="M44 816v245h165v282l281 25v-307h250v-245h-250v-448q0 -77 37.5 -112.5t124.5 -35.5q54 0 101 5v-235q-67 -14 -147 -15q-397 0 -397 375v466h-165z" />
<glyph unicode="u" horiz-adv-x="1255" d="M116 408v653h281v-626q0 -90 58 -150.5t153 -60.5q65 0 128.5 43.5t101.5 103.5v690h281v-1061h-281v117q-54 -65 -133.5 -103.5t-164.5 -38.5q-187 0 -305.5 120t-118.5 313z" />
<glyph unicode="v" horiz-adv-x="1099" d="M19 1061h293l238 -722l237 722h293l-379 -1061h-303z" />
<glyph unicode="w" horiz-adv-x="1632" d="M19 1061h288l186 -710l182 710h282l183 -710l185 710h288l-322 -1061h-291l-184 690l-184 -690h-291z" />
<glyph unicode="x" horiz-adv-x="1099" d="M19 0l349 541l-322 520h305l199 -341l199 341h305l-322 -520l348 -541h-305l-225 360l-225 -360h-306z" />
<glyph unicode="y" horiz-adv-x="1099" d="M19 1061h293l236 -705l239 705h293l-564 -1536h-294l187 475z" />
<glyph unicode="z" horiz-adv-x="1051" d="M90 0v228l504 589h-477v244h819v-228l-504 -589h524v-244h-866z" />
<glyph unicode="{" horiz-adv-x="875" d="M134 500v250q90 0 141 46.5t51 131.5v271q0 143 104.5 240t262.5 97h144v-251h-89q-57 0 -94.5 -36.5t-37.5 -92.5v-287q0 -197 -186 -244q186 -48 186 -245v-287q0 -56 37 -92.5t95 -36.5h89v-251h-144q-159 0 -263 97t-104 240v272q0 85 -51 131.5t-141 46.5z" />
<glyph unicode="|" horiz-adv-x="675" d="M203 -287v1823h270v-1823h-270z" />
<glyph unicode="}" horiz-adv-x="875" d="M39 -36h89q57 0 94 36.5t37 92.5v287q0 197 186 245q-186 48 -186 244v287q0 56 -37 92.5t-94 36.5h-89v251h143q159 0 263.5 -97t104.5 -240v-271q0 -85 50.5 -131.5t140.5 -46.5v-250q-90 0 -140.5 -46.5t-50.5 -131.5v-272q0 -143 -104.5 -240t-263.5 -97h-143v251z " />
<glyph unicode="~" horiz-adv-x="1193" d="M58 548q27 166 107 255t208 89q141 0 248 -93q37 -33 54.5 -48t47 -30.5t50.5 -15.5q72 0 97 147l266 -58q-27 -166 -107 -255t-208 -89q-142 0 -248 93q-37 33 -54.5 47.5t-47 30.5t-50.5 16q-72 0 -97 -148z" />
<glyph unicode="&#xa1;" horiz-adv-x="641" d="M143 915.5q0 72.5 51.5 121t126 48.5t126 -48.5t51.5 -121t-51.5 -121.5t-126 -49t-126 49t-51.5 121.5zM175 -373v1005h291v-1005h-291z" />
<glyph unicode="&#xa2;" horiz-adv-x="1137" d="M67 530q0 208 136.5 361t350.5 186v172h181v-169q181 -20 321 -137l-140 -210q-90 73 -181 94v-594q100 25 188 103l156 -197q-141 -136 -344 -158v-169h-181v172q-214 33 -350.5 185.5t-136.5 360.5zM351 530q0 -101 56 -180t147 -109v578q-91 -32 -147 -110.5 t-56 -178.5z" />
<glyph unicode="&#xa3;" horiz-adv-x="1192" d="M136 554v205h124q-77 159 -77 288q0 173 131 292t324 119q151 0 264 -73.5t160 -186.5l-244 -130q-54 136 -180 136q-70 0 -115.5 -47t-45.5 -119q0 -29 9 -66.5t18.5 -64t29 -76.5t27.5 -72h332v-205h-292q0 -194 -129 -300h617v-254h-947v245q166 94 166 309h-172z" />
<glyph unicode="&#xa4;" horiz-adv-x="1302" d="M62 250l179 180q-72 110 -72 238t72 237l-179 180l168 165l188 -187q106 54 233 54t234 -54l187 187l168 -165l-178 -180q72 -110 72 -237.5t-72 -237.5l178 -180l-168 -165l-187 187q-106 -54 -233.5 -54t-233.5 54l-188 -187zM434 668q0 -91 62.5 -154.5t154.5 -63.5 t154.5 63.5t62.5 154.5t-62.5 154.5t-154.5 63.5t-154.5 -63.5t-62.5 -154.5z" />
<glyph unicode="&#xa5;" horiz-adv-x="1333" d="M34 1434h313l320 -580l319 580h313l-386 -678h254v-154h-342l-13 -24v-68h355v-154h-355v-356h-291v356h-355v154h355v68l-14 24h-341v154h254z" />
<glyph unicode="&#xa6;" horiz-adv-x="675" d="M203 -287v819h270v-819h-270zM203 717v819h270v-819h-270z" />
<glyph unicode="&#xa7;" horiz-adv-x="1046" d="M53 606q0 91 49 165t137 118q-103 93 -104 233q0 143 115 239.5t285 96.5q146 0 255 -74t138 -198l-243 -56q-12 50 -52 79t-98 29q-61 0 -102.5 -33.5t-41.5 -83.5q0 -74 76 -107l266 -118q126 -56 193 -148.5t67 -203.5q0 -91 -48.5 -165t-136.5 -118q103 -95 103 -233 q0 -142 -114 -238.5t-285 -96.5q-146 0 -255.5 73.5t-137.5 197.5l243 55q11 -50 51.5 -78.5t98.5 -28.5q62 0 102.5 33t40.5 85q0 36 -21 64t-54 43l-267 118q-126 56 -193 148.5t-67 202.5zM309 606q0 -104 128 -161l138 -61q71 5 116.5 50t45.5 110q0 105 -128 161 l-139 61q-70 -5 -115.5 -50t-45.5 -110z" />
<glyph unicode="&#xa8;" horiz-adv-x="870" d="M87 1323q0 63 43.5 106.5t107 43.5t107 -43.5t43.5 -106.5t-43.5 -106t-107 -43t-107 43t-43.5 106zM482 1323q0 63 43.5 106.5t107 43.5t107 -43.5t43.5 -106.5t-43.5 -106t-107 -43t-107 43t-43.5 106z" />
<glyph unicode="&#xa9;" horiz-adv-x="1646" d="M82 716.5q0 152.5 58 290t157 236.5t236.5 157t290 58t289.5 -58t236.5 -157t157.5 -236.5t58 -290t-58 -289.5t-157.5 -236.5t-236.5 -157.5t-289.5 -58t-290 58t-236.5 157.5t-157 236.5t-58 289.5zM217 717q0 -169 80.5 -310.5t219.5 -223t306 -81.5t306.5 81.5 t220 223t80.5 310.5t-80.5 310t-220 222.5t-306.5 81.5t-306 -81.5t-219.5 -222.5t-80.5 -310zM436 715q0 172 123 289.5t302 117.5q152 0 275 -95l-86 -167q-95 73 -189 73q-90 0 -150.5 -63t-60.5 -155q0 -93 60.5 -156t150.5 -63q100 0 195 79l90 -165 q-120 -103 -285 -103q-179 0 -302 118t-123 290z" />
<glyph unicode="&#xaa;" horiz-adv-x="946" d="M57 1061q0 165 106.5 277t264.5 112q130 0 201 -85v69h228v-746h-228v69q-71 -85 -201 -85q-158 0 -264.5 112t-106.5 277zM287 1061q0 -78 52 -130t130 -52q54 0 95.5 26t64.5 66v180q-23 40 -64.5 66t-95.5 26q-78 0 -130 -52t-52 -130z" />
<glyph unicode="&#xab;" horiz-adv-x="1320" d="M96 568v140l590 362v-241l-326 -191l326 -192v-240zM615 568v140l590 362v-241l-325 -191l325 -192v-240z" />
<glyph unicode="&#xac;" horiz-adv-x="1193" d="M121 557v245h952v-572h-278v327h-674z" />
<glyph unicode="&#xad;" horiz-adv-x="847" d="M121 550v260h606v-260h-606z" />
<glyph unicode="&#xae;" horiz-adv-x="1646" d="M82 716.5q0 152.5 58 290t157 236.5t236.5 157t290 58t289.5 -58t236.5 -157t157.5 -236.5t58 -290t-58 -289.5t-157.5 -236.5t-236.5 -157.5t-289.5 -58t-290 58t-236.5 157.5t-157 236.5t-58 289.5zM217 717q0 -169 80.5 -310.5t219.5 -223t306 -81.5t306.5 81.5 t220 223t80.5 310.5t-80.5 310t-220 222.5t-306.5 81.5t-306 -81.5t-219.5 -222.5t-80.5 -310zM558 322v788h306q121 0 201 -73.5t80 -186.5q0 -79 -41.5 -140.5t-112.5 -92.5l174 -295h-214l-153 268h-45v-268h-195zM753 745h91q47 0 76.5 27.5t29.5 69.5t-29.5 69 t-76.5 27h-91v-193z" />
<glyph unicode="&#xaf;" horiz-adv-x="870" d="M118 1213v211h635v-211h-635z" />
<glyph unicode="&#xb0;" horiz-adv-x="823" d="M115 1174.5q0 119.5 85.5 201.5t211.5 82t211.5 -82t85.5 -201.5t-85.5 -201.5t-211.5 -82t-211.5 82t-85.5 201.5zM305 1174.5q0 -46.5 30.5 -76.5t76.5 -30t76 30t30 76.5t-30 76.5t-76 30t-76.5 -30t-30.5 -76.5z" />
<glyph unicode="&#xb1;" horiz-adv-x="1193" d="M121 0v243h952v-243h-952zM121 664v242h337v331h278v-331h337v-242h-337v-331h-278v331h-337z" />
<glyph unicode="&#xb2;" horiz-adv-x="825" d="M71 1213q30 116 116 180.5t212 64.5q145 0 240 -80.5t95 -212.5q0 -80 -32.5 -147.5t-104.5 -146.5l-200 -215h327v-193h-631v173l323 350q46 50 65.5 88.5t19.5 80.5q0 48 -29 78t-75 30q-43 0 -72.5 -28.5t-52.5 -92.5z" />
<glyph unicode="&#xb3;" horiz-adv-x="825" d="M48 616l150 136q84 -121 174 -121q59 0 99 41.5t40 102.5q0 59 -40 101t-99 42q-29 0 -55 -12l-89 110l193 224h-318v194h596v-180l-176 -198q103 -30 163 -112.5t60 -189.5q0 -126 -102.5 -221t-262.5 -95q-105 0 -193 47t-140 131z" />
<glyph unicode="&#xb4;" horiz-adv-x="870" d="M214 1145l267 350h283l-282 -350h-268z" />
<glyph unicode="&#xb5;" horiz-adv-x="1275" d="M136 -475v1536h282v-686q18 -69 74.5 -110t129.5 -41q68 0 133.5 46.5t102.5 112.5v678h282v-1061h-282v120q-47 -66 -116 -105.5t-142 -39.5q-112 0 -182 86v-536h-282z" />
<glyph unicode="&#xb6;" horiz-adv-x="1205" d="M69 991.5q0 187.5 131 315t323 127.5h520v-1702h-187v1519h-94v-1519h-188v817h-51q-193 0 -323.5 127.5t-130.5 315z" />
<glyph unicode="&#xb7;" horiz-adv-x="617" d="M135 666.5q0 72.5 49 121.5t124 49t124.5 -49t49.5 -121.5t-49.5 -121t-124.5 -48.5t-124 48.5t-49 121z" />
<glyph unicode="&#xb8;" horiz-adv-x="870" d="M182 -469l83 121q48 -35 111 -35q43 0 70 21.5t27 54.5t-27 54.5t-70 21.5q-32 0 -61 -6l-48 54l98 183h202l-71 -110q81 -22 130 -77t49 -124q0 -95 -82 -158t-205 -63q-124 0 -206 63z" />
<glyph unicode="&#xb9;" horiz-adv-x="825" d="M117 1291l267 143h200v-971h-236v742l-144 -79z" />
<glyph unicode="&#xba;" horiz-adv-x="946" d="M60 1061q0 163 120 276t293 113t293 -113t120 -276t-120 -276t-293 -113t-293 113t-120 276zM292 1061q0 -79 51.5 -130.5t129.5 -51.5t129.5 51.5t51.5 130.5t-51.5 130.5t-129.5 51.5t-129.5 -51.5t-51.5 -130.5z" />
<glyph unicode="&#xbb;" horiz-adv-x="1320" d="M116 206v240l325 192l-325 191v241l590 -362v-140zM635 206v240l326 192l-326 191v241l590 -362v-140z" />
<glyph unicode="&#xbc;" horiz-adv-x="1986" d="M117 1291l267 143h200v-971h-236v742l-144 -79zM530 0l699 1434h228l-698 -1434h-229zM1196 171v176l421 624h216v-606h100v-194h-100v-171h-227v171h-410zM1424 362h182v276z" />
<glyph unicode="&#xbd;" horiz-adv-x="1986" d="M117 1291l267 143h200v-971h-236v742l-144 -79zM530 0l699 1434h228l-698 -1434h-229zM1233 751q30 116 116.5 180t212.5 64q145 0 239.5 -80t94.5 -213q0 -80 -32.5 -147t-104.5 -146l-199 -215h326v-194h-631v173l323 350q46 50 65.5 88.5t19.5 80.5q0 48 -28.5 78 t-74.5 30q-43 0 -73 -28.5t-52 -92.5z" />
<glyph unicode="&#xbe;" horiz-adv-x="1986" d="M48 616l150 136q84 -121 174 -121q59 0 99 41.5t40 102.5q0 59 -40 101t-99 42q-29 0 -55 -12l-89 110l193 224h-318v194h596v-180l-176 -198q103 -30 163 -112.5t60 -189.5q0 -126 -102.5 -221t-262.5 -95q-105 0 -193 47t-140 131zM530 0l699 1434h228l-698 -1434h-229 zM1196 171v176l421 624h216v-606h100v-194h-100v-171h-227v171h-410zM1424 362h182v276z" />
<glyph unicode="&#xbf;" horiz-adv-x="1135" d="M115 29q0 146 102 259.5t277 152.5v191h290v-371q-178 0 -276.5 -64.5t-98.5 -166.5q0 -76 66.5 -124.5t173.5 -48.5q136 0 276 115l139 -211q-194 -159 -443 -158q-111 0 -207.5 34.5t-161 93t-101 136t-36.5 162.5zM462 915.5q0 72.5 51 121t126 48.5t126 -48.5 t51 -121t-51 -121.5t-126 -49t-126 49t-51 121.5z" />
<glyph unicode="&#xc0;" horiz-adv-x="1415" d="M34 0l513 1434h321l513 -1434h-308l-106 323h-518l-107 -323h-308zM356 1894h283l267 -350h-268zM523 560h369l-184 563z" />
<glyph unicode="&#xc1;" horiz-adv-x="1415" d="M34 0l513 1434h321l513 -1434h-308l-106 323h-518l-107 -323h-308zM506 1544l267 350h283l-282 -350h-268zM523 560h369l-184 563z" />
<glyph unicode="&#xc2;" horiz-adv-x="1415" d="M34 0l513 1434h321l513 -1434h-308l-106 323h-518l-107 -323h-308zM308 1544l299 350h201l299 -350h-266l-133 159l-134 -159h-266zM523 560h369l-184 563z" />
<glyph unicode="&#xc3;" horiz-adv-x="1415" d="M34 0l513 1434h321l513 -1434h-308l-106 323h-518l-107 -323h-308zM334 1605q45 232 212 232q69 0 149 -46q72 -39 100 -39q44 0 61 77l225 -45q-45 -232 -212 -233q-68 0 -149 46q-72 39 -99 39q-44 0 -62 -76zM523 560h369l-184 563z" />
<glyph unicode="&#xc4;" horiz-adv-x="1415" d="M34 0l513 1434h321l513 -1434h-308l-106 323h-518l-107 -323h-308zM359 1703.5q0 63.5 43.5 106.5t107 43t107 -43t43.5 -106.5t-43.5 -106.5t-107 -43t-107 43t-43.5 106.5zM523 560h369l-184 563zM755 1703.5q0 63.5 43.5 106.5t107 43t107 -43t43.5 -106.5 t-43.5 -106.5t-107 -43t-107 43t-43.5 106.5z" />
<glyph unicode="&#xc5;" horiz-adv-x="1415" d="M34 0l513 1434h321l513 -1434h-308l-106 323h-518l-107 -323h-308zM476 1725.5q0 90.5 66 151t165.5 60.5t165.5 -60.5t66 -151t-66 -151.5t-165.5 -61t-165.5 61t-66 151.5zM523 560h369l-184 563zM639 1725.5q0 -28.5 19.5 -48t49 -19.5t49 19.5t19.5 48t-19.5 48 t-49 19.5t-49 -19.5t-19.5 -48z" />
<glyph unicode="&#xc6;" horiz-adv-x="1909" d="M2 0l794 1434h990v-248h-587v-342h538v-246h-538v-350h605v-248h-893v323h-421l-171 -323h-317zM613 560h298v558z" />
<glyph unicode="&#xc7;" horiz-adv-x="1423" d="M79 717q0 206 101 376t277.5 267.5t390.5 97.5q278 0 491 -166l-146 -216q-86 61 -167.5 94.5t-177.5 33.5q-201 0 -338 -140t-137 -347t137 -347.5t338 -140.5q96 0 188 38t167 101l154 -214q-175 -144 -408 -172l-59 -92q81 -22 130 -77t49 -124q0 -95 -82 -158 t-205 -63q-124 0 -205 63l82 121q48 -35 111 -35q43 0 70 21.5t27 54.5t-27 54.5t-70 21.5q-32 0 -60 -6l-48 54l87 165q-191 22 -344 123t-239.5 261t-86.5 351z" />
<glyph unicode="&#xc8;" horiz-adv-x="1173" d="M157 0v1434h893v-248h-603v-342h553v-246h-553v-350h621v-248h-911zM225 1894h283l267 -350h-268z" />
<glyph unicode="&#xc9;" horiz-adv-x="1173" d="M157 0v1434h893v-248h-603v-342h553v-246h-553v-350h621v-248h-911zM423 1544l267 350h283l-282 -350h-268z" />
<glyph unicode="&#xca;" horiz-adv-x="1173" d="M157 0v1434h893v-248h-603v-342h553v-246h-553v-350h621v-248h-911zM204 1544l299 350h200l299 -350h-266l-133 159l-133 -159h-266z" />
<glyph unicode="&#xcb;" horiz-adv-x="1173" d="M157 0v1434h893v-248h-603v-342h553v-246h-553v-350h621v-248h-911zM259 1703.5q0 63.5 43.5 106.5t107 43t107 -43t43.5 -106.5t-43.5 -106.5t-107 -43t-107 43t-43.5 106.5zM654 1703.5q0 63.5 43.5 106.5t107 43t107 -43t43.5 -106.5t-43.5 -106.5t-107 -43t-107 43 t-43.5 106.5z" />
<glyph unicode="&#xcc;" horiz-adv-x="620" d="M-43 1894h283l267 -350h-268zM165 0v1434h291v-1434h-291z" />
<glyph unicode="&#xcd;" horiz-adv-x="620" d="M114 1544l267 350h283l-282 -350h-268zM165 0v1434h291v-1434h-291z" />
<glyph unicode="&#xce;" horiz-adv-x="620" d="M-89 1544l299 350h201l299 -350h-267l-133 159l-133 -159h-266zM165 0v1434h291v-1434h-291z" />
<glyph unicode="&#xcf;" horiz-adv-x="620" d="M-38 1703.5q0 63.5 43.5 106.5t107 43t107 -43t43.5 -106.5t-43.5 -106.5t-107 -43t-107 43t-43.5 106.5zM165 0v1434h291v-1434h-291zM357 1703.5q0 63.5 43.5 106.5t107 43t107 -43t43.5 -106.5t-43.5 -106.5t-107 -43t-107 43t-43.5 106.5z" />
<glyph unicode="&#xd0;" horiz-adv-x="1508" d="M12 621v191h179v622h520q328 0 523.5 -195t195.5 -522.5t-196 -522t-523 -194.5h-520v621h-179zM482 254h218q200 0 318 117t118 345.5t-118 346t-318 117.5h-218v-368h262v-191h-262v-367z" />
<glyph unicode="&#xd1;" horiz-adv-x="1447" d="M157 0v1434h295l565 -965v965h274v-1434h-295l-565 965v-965h-274zM350 1605q45 232 212 232q69 0 150 -46q72 -39 99 -39q44 0 61 77l226 -45q-45 -232 -212 -233q-69 0 -150 46q-72 39 -99 39q-44 0 -62 -76z" />
<glyph unicode="&#xd2;" horiz-adv-x="1695" d="M79 717q0 206 101 376t277.5 267.5t390.5 97.5t390.5 -97.5t277.5 -267.5t101 -376t-101 -376t-277.5 -268t-390.5 -98t-390.5 98t-277.5 268t-101 376zM373 717q0 -207 137 -347.5t338 -140.5t338 140.5t137 347.5t-137 347t-338 140t-338 -140t-137 -347zM484 1894h283 l267 -350h-268z" />
<glyph unicode="&#xd3;" horiz-adv-x="1695" d="M79 717q0 206 101 376t277.5 267.5t390.5 97.5t390.5 -97.5t277.5 -267.5t101 -376t-101 -376t-277.5 -268t-390.5 -98t-390.5 98t-277.5 268t-101 376zM373 717q0 -207 137 -347.5t338 -140.5t338 140.5t137 347.5t-137 347t-338 140t-338 -140t-137 -347zM660 1544 l268 350h282l-281 -350h-269z" />
<glyph unicode="&#xd4;" horiz-adv-x="1695" d="M79 717q0 206 101 376t277.5 267.5t390.5 97.5t390.5 -97.5t277.5 -267.5t101 -376t-101 -376t-277.5 -268t-390.5 -98t-390.5 98t-277.5 268t-101 376zM373 717q0 -207 137 -347.5t338 -140.5t338 140.5t137 347.5t-137 347t-338 140t-338 -140t-137 -347zM449 1544 l299 350h200l299 -350h-266l-133 159l-133 -159h-266z" />
<glyph unicode="&#xd5;" horiz-adv-x="1695" d="M79 717q0 206 101 376t277.5 267.5t390.5 97.5t390.5 -97.5t277.5 -267.5t101 -376t-101 -376t-277.5 -268t-390.5 -98t-390.5 98t-277.5 268t-101 376zM373 717q0 -207 137 -347.5t338 -140.5t338 140.5t137 347.5t-137 347t-338 140t-338 -140t-137 -347zM474 1605 q45 232 212 232q69 0 150 -46q72 -39 99 -39q44 0 61 77l226 -45q-45 -232 -212 -233q-69 0 -150 46q-72 39 -99 39q-44 0 -62 -76z" />
<glyph unicode="&#xd6;" horiz-adv-x="1695" d="M79 717q0 206 101 376t277.5 267.5t390.5 97.5t390.5 -97.5t277.5 -267.5t101 -376t-101 -376t-277.5 -268t-390.5 -98t-390.5 98t-277.5 268t-101 376zM373 717q0 -207 137 -347.5t338 -140.5t338 140.5t137 347.5t-137 347t-338 140t-338 -140t-137 -347zM500 1703.5 q0 63.5 43.5 106.5t107 43t107 -43t43.5 -106.5t-43.5 -106.5t-107 -43t-107 43t-43.5 106.5zM895 1703.5q0 63.5 43.5 106.5t107 43t107 -43t43.5 -106.5t-43.5 -106.5t-107 -43t-107 43t-43.5 106.5z" />
<glyph unicode="&#xd7;" horiz-adv-x="1193" d="M129 391l284 284l-284 284l184 185l284 -285l284 285l184 -185l-284 -284l284 -284l-184 -184l-284 283l-284 -283z" />
<glyph unicode="&#xd8;" horiz-adv-x="1695" d="M79 717q0 206 101 376t277.5 267.5t390.5 97.5q203 0 378 -92l100 129h232l-183 -232q114 -102 178 -243.5t64 -302.5q0 -206 -101 -376t-277.5 -268t-390.5 -98q-217 0 -398 103l-109 -139h-231l193 247q-106 101 -165 238t-59 293zM373 717q0 -178 103 -309l584 746 q-100 50 -212 50q-201 0 -338 -140t-137 -347zM615 289q108 -59 233 -60q201 0 338 140.5t137 347.5q0 188 -119 325z" />
<glyph unicode="&#xd9;" horiz-adv-x="1372" d="M145 492v942h291v-955q0 -111 72 -179.5t178.5 -68.5t178 69t71.5 179v955h291v-942q0 -151 -73 -269.5t-195.5 -182t-272 -63.5t-272.5 63.5t-196 182t-73 269.5zM314 1894h283l267 -350h-268z" />
<glyph unicode="&#xda;" horiz-adv-x="1372" d="M145 492v942h291v-955q0 -111 72 -179.5t178.5 -68.5t178 69t71.5 179v955h291v-942q0 -151 -73 -269.5t-195.5 -182t-272 -63.5t-272.5 63.5t-196 182t-73 269.5zM511 1544l267 350h283l-282 -350h-268z" />
<glyph unicode="&#xdb;" horiz-adv-x="1372" d="M145 492v942h291v-955q0 -111 72 -179.5t178.5 -68.5t178 69t71.5 179v955h291v-942q0 -151 -73 -269.5t-195.5 -182t-272 -63.5t-272.5 63.5t-196 182t-73 269.5zM287 1544l299 350h200l299 -350h-266l-133 159l-133 -159h-266z" />
<glyph unicode="&#xdc;" horiz-adv-x="1372" d="M145 492v942h291v-955q0 -111 72 -179.5t178.5 -68.5t178 69t71.5 179v955h291v-942q0 -151 -73 -269.5t-195.5 -182t-272 -63.5t-272.5 63.5t-196 182t-73 269.5zM338 1703.5q0 63.5 43.5 106.5t107 43t107 -43t43.5 -106.5t-43.5 -106.5t-107 -43t-107 43t-43.5 106.5z M733 1703.5q0 63.5 43.5 106.5t107 43t107 -43t43.5 -106.5t-43.5 -106.5t-107 -43t-107 43t-43.5 106.5z" />
<glyph unicode="&#xdd;" horiz-adv-x="1333" d="M34 1434h313l320 -580l319 580h313l-487 -856v-578h-291v578zM493 1544l267 350h282l-281 -350h-268z" />
<glyph unicode="&#xde;" horiz-adv-x="1228" d="M157 0v1434h290v-250h217q227 0 363.5 -129t136.5 -338q0 -210 -136.5 -338.5t-363.5 -128.5h-217v-250h-290zM447 489h193q112 0 172.5 61.5t60.5 166.5q0 104 -60.5 165.5t-172.5 61.5h-193v-455z" />
<glyph unicode="&#xdf;" horiz-adv-x="1262" d="M145 0v1047q0 182 125.5 296.5t316.5 114.5q187 0 315.5 -108.5t128.5 -266.5q0 -99 -59.5 -183t-162.5 -125q164 -25 270.5 -132.5t106.5 -257.5q0 -174 -133.5 -292t-331.5 -118q-130 0 -229 52l60 238q73 -49 153 -49q82 0 136 51.5t54 129.5q0 112 -94.5 178 t-257.5 71v234q91 8 148.5 58t57.5 128q0 65 -47 108.5t-114 43.5q-70 0 -115 -47t-45 -121v-1050h-283z" />
<glyph unicode="&#xe0;" d="M67 530.5q0 150.5 68 277.5t189.5 202t271.5 75q202 0 336 -131v107h278v-1061h-278v106q-134 -131 -336 -131q-150 0 -271.5 75.5t-189.5 202.5t-68 277.5zM300 1563h283l267 -351h-268zM349 530q0 -130 88 -218t218 -88q91 0 165.5 46t111.5 123v275q-37 77 -111.5 123 t-165.5 46q-130 0 -218 -88.5t-88 -218.5z" />
<glyph unicode="&#xe1;" d="M67 530.5q0 150.5 68 277.5t189.5 202t271.5 75q202 0 336 -131v107h278v-1061h-278v106q-134 -131 -336 -131q-150 0 -271.5 75.5t-189.5 202.5t-68 277.5zM349 530q0 -130 88 -218t218 -88q91 0 165.5 46t111.5 123v275q-37 77 -111.5 123t-165.5 46q-130 0 -218 -88.5 t-88 -218.5zM446 1212l268 351h282l-281 -351h-269z" />
<glyph unicode="&#xe2;" d="M67 530.5q0 150.5 68 277.5t189.5 202t271.5 75q202 0 336 -131v107h278v-1061h-278v106q-134 -131 -336 -131q-150 0 -271.5 75.5t-189.5 202.5t-68 277.5zM265 1212l299 351h201l299 -351h-266l-133 159l-134 -159h-266zM349 530q0 -130 88 -218t218 -88q91 0 165.5 46 t111.5 123v275q-37 77 -111.5 123t-165.5 46q-130 0 -218 -88.5t-88 -218.5z" />
<glyph unicode="&#xe3;" d="M67 530.5q0 150.5 68 277.5t189.5 202t271.5 75q202 0 336 -131v107h278v-1061h-278v106q-134 -131 -336 -131q-150 0 -271.5 75.5t-189.5 202.5t-68 277.5zM273 1271q45 232 212 232q69 0 150 -46q72 -39 99 -39q44 0 62 77l225 -45q-45 -232 -212 -232q-69 0 -150 46 q-72 39 -99 39q-44 0 -61 -77zM349 530q0 -130 88 -218t218 -88q91 0 165.5 46t111.5 123v275q-37 77 -111.5 123t-165.5 46q-130 0 -218 -88.5t-88 -218.5z" />
<glyph unicode="&#xe4;" d="M67 530.5q0 150.5 68 277.5t189.5 202t271.5 75q202 0 336 -131v107h278v-1061h-278v106q-134 -131 -336 -131q-150 0 -271.5 75.5t-189.5 202.5t-68 277.5zM295 1372.5q0 63.5 43.5 106.5t107 43t107 -43t43.5 -106.5t-43.5 -106.5t-107 -43t-107 43t-43.5 106.5z M349 530q0 -130 88 -218t218 -88q91 0 165.5 46t111.5 123v275q-37 77 -111.5 123t-165.5 46q-130 0 -218 -88.5t-88 -218.5zM690 1372.5q0 63.5 43.5 106.5t107 43t107 -43t43.5 -106.5t-43.5 -106.5t-107 -43t-107 43t-43.5 106.5z" />
<glyph unicode="&#xe5;" d="M67 530.5q0 150.5 68 277.5t189.5 202t271.5 75q202 0 336 -131v107h278v-1061h-278v106q-134 -131 -336 -131q-150 0 -271.5 75.5t-189.5 202.5t-68 277.5zM349 530q0 -130 88 -218t218 -88q91 0 165.5 46t111.5 123v275q-37 77 -111.5 123t-165.5 46q-130 0 -218 -88.5 t-88 -218.5zM414 1394q0 90 66 151t165 61t165.5 -61t66.5 -151t-66.5 -151t-165.5 -61t-165 61t-66 151zM577 1393.5q0 -28.5 19 -48t49 -19.5t49.5 19.5t19.5 48t-19.5 48t-49.5 19.5t-49 -19.5t-19 -48z" />
<glyph unicode="&#xe6;" horiz-adv-x="2087" d="M67 334q0 95 64.5 173t175 122t242.5 44q86 0 172 -22.5t150 -59.5v34q0 101 -83 168.5t-213 67.5q-91 0 -178.5 -33t-155.5 -90l-97 196q87 72 202 111.5t237 39.5q139 0 255.5 -54.5t186.5 -149.5q75 95 190.5 149.5t249.5 54.5q159 0 287 -72t198.5 -194.5 t70.5 -269.5q0 -54 -12 -103h-835q18 -111 102.5 -178.5t204.5 -67.5q167 0 301 132l169 -164q-177 -193 -469 -193q-142 0 -262.5 55t-196.5 149q-70 -94 -187 -149t-256 -55q-219 0 -366 103.5t-147 255.5zM346 333.5q0 -59.5 72 -99.5t183 -40q186 0 268 113v86 q-101 81 -268 81q-111 0 -183 -40.5t-72 -100zM1181 647h551q-24 96 -96 155t-173 59q-99 0 -176.5 -58.5t-105.5 -155.5z" />
<glyph unicode="&#xe7;" horiz-adv-x="1140" d="M67 530q0 233 168.5 394t419.5 161q231 0 401 -142l-140 -210q-127 103 -259 104q-130 0 -218 -89t-88 -218q0 -130 88 -218t218 -88q139 0 266 112l156 -197q-133 -130 -330 -157l-60 -92q81 -22 130 -77t49 -124q0 -95 -81.5 -158t-204.5 -63q-124 0 -206 63l83 121 q48 -35 110 -35q43 0 70.5 21.5t27.5 54.5t-27.5 54.5t-70.5 21.5q-32 0 -60 -6l-48 54l88 168q-212 34 -347 186.5t-135 358.5z" />
<glyph unicode="&#xe8;" horiz-adv-x="1265" d="M67 530q0 115 44 217.5t120 176.5t183.5 117.5t228.5 43.5q159 0 287 -72t198.5 -194.5t70.5 -269.5q0 -53 -12 -103h-836q18 -111 103 -178.5t204 -67.5q167 0 301 132l169 -164q-177 -193 -469 -193q-129 0 -240.5 43t-188 118t-120 177t-43.5 217zM284 1563h282 l268 -351h-269zM358 647h551q-24 96 -95.5 155t-172.5 59q-99 0 -176.5 -58.5t-106.5 -155.5z" />
<glyph unicode="&#xe9;" horiz-adv-x="1265" d="M67 530q0 115 44 217.5t120 176.5t183.5 117.5t228.5 43.5q159 0 287 -72t198.5 -194.5t70.5 -269.5q0 -53 -12 -103h-836q18 -111 103 -178.5t204 -67.5q167 0 301 132l169 -164q-177 -193 -469 -193q-129 0 -240.5 43t-188 118t-120 177t-43.5 217zM358 647h551 q-24 96 -95.5 155t-172.5 59q-99 0 -176.5 -58.5t-106.5 -155.5zM436 1212l267 351h283l-281 -351h-269z" />
<glyph unicode="&#xea;" horiz-adv-x="1265" d="M67 530q0 115 44 217.5t120 176.5t183.5 117.5t228.5 43.5q159 0 287 -72t198.5 -194.5t70.5 -269.5q0 -53 -12 -103h-836q18 -111 103 -178.5t204 -67.5q167 0 301 132l169 -164q-177 -193 -469 -193q-129 0 -240.5 43t-188 118t-120 177t-43.5 217zM233 1212l299 351 h201l299 -351h-266l-133 159l-133 -159h-267zM358 647h551q-24 96 -95.5 155t-172.5 59q-99 0 -176.5 -58.5t-106.5 -155.5z" />
<glyph unicode="&#xeb;" horiz-adv-x="1265" d="M67 530q0 115 44 217.5t120 176.5t183.5 117.5t228.5 43.5q159 0 287 -72t198.5 -194.5t70.5 -269.5q0 -53 -12 -103h-836q18 -111 103 -178.5t204 -67.5q167 0 301 132l169 -164q-177 -193 -469 -193q-129 0 -240.5 43t-188 118t-120 177t-43.5 217zM285 1372.5 q0 63.5 43.5 106.5t107 43t107 -43t43.5 -106.5t-43.5 -106.5t-107 -43t-107 43t-43.5 106.5zM358 647h551q-24 96 -95.5 155t-172.5 59q-99 0 -176.5 -58.5t-106.5 -155.5zM680 1372.5q0 63.5 43.5 106.5t107 43t107 -43t43.5 -106.5t-43.5 -106.5t-107 -43t-107 43 t-43.5 106.5z" />
<glyph unicode="&#xec;" horiz-adv-x="565" d="M-82 1563h283l267 -351h-268zM141 0v1061h282v-1061h-282z" />
<glyph unicode="&#xed;" horiz-adv-x="565" d="M97 1212l268 351h282l-281 -351h-269zM141 0v1061h282v-1061h-282z" />
<glyph unicode="&#xee;" horiz-adv-x="565" d="M-118 1212l299 351h201l299 -351h-266l-133 159l-134 -159h-266zM141 0v1061h282v-1061h-282z" />
<glyph unicode="&#xef;" horiz-adv-x="565" d="M-66 1372.5q0 63.5 44 106.5t107 43t107 -43t44 -106.5t-44 -106.5t-107 -43t-107 43t-44 106.5zM141 0v1061h282v-1061h-282zM330 1372.5q0 63.5 43.5 106.5t107 43t107 -43t43.5 -106.5t-43.5 -106.5t-107 -43t-107 43t-43.5 106.5z" />
<glyph unicode="&#xf0;" horiz-adv-x="1277" d="M67 500q0 108 45 204.5t118 164t169.5 107.5t196.5 40q114 0 196 -54q-76 115 -186 205l-275 -129l-72 140l197 93q-80 48 -185 93l226 131q103 -46 198 -110l209 100l72 -143l-140 -66q171 -154 267.5 -353.5t96.5 -412.5q0 -148 -73.5 -270.5t-203.5 -193.5t-289 -71 q-157 0 -287.5 69.5t-205 189.5t-74.5 266zM348 506q0 -119 83 -200.5t205 -81.5t205 81.5t83 200.5q0 120 -83 201t-205 81t-205 -81t-83 -201z" />
<glyph unicode="&#xf1;" horiz-adv-x="1255" d="M136 0v1061h282v-117q54 65 133.5 103t164.5 38q187 0 305.5 -119.5t118.5 -312.5v-653h-282v626q0 90 -58 150.5t-153 60.5q-65 0 -128 -43.5t-101 -103.5v-690h-282zM264 1271q45 232 212 232q69 0 150 -46q72 -39 99 -39q44 0 61 77l226 -45q-45 -232 -212 -232 q-69 0 -150 46q-72 39 -99 39q-44 0 -62 -77z" />
<glyph unicode="&#xf2;" horiz-adv-x="1310" d="M67 530.5q0 233.5 168.5 394t419.5 160.5q166 0 301.5 -73.5t211.5 -200.5t76 -280.5t-76 -280.5t-211.5 -201t-301.5 -74q-251 0 -419.5 161t-168.5 394.5zM291 1563h282l268 -351h-269zM349 530q0 -130 88 -218t218 -88t219 88t89 218q0 129 -89 218t-219 89t-218 -89 t-88 -218z" />
<glyph unicode="&#xf3;" horiz-adv-x="1310" d="M67 530.5q0 233.5 168.5 394t419.5 160.5q166 0 301.5 -73.5t211.5 -200.5t76 -280.5t-76 -280.5t-211.5 -201t-301.5 -74q-251 0 -419.5 161t-168.5 394.5zM349 530q0 -130 88 -218t218 -88t219 88t89 218q0 129 -89 218t-219 89t-218 -89t-88 -218zM474 1212l267 351 h283l-282 -351h-268z" />
<glyph unicode="&#xf4;" horiz-adv-x="1310" d="M67 530.5q0 233.5 168.5 394t419.5 160.5q166 0 301.5 -73.5t211.5 -200.5t76 -280.5t-76 -280.5t-211.5 -201t-301.5 -74q-251 0 -419.5 161t-168.5 394.5zM256 1212l299 351h201l299 -351h-267l-133 159l-133 -159h-266zM349 530q0 -130 88 -218t218 -88t219 88t89 218 q0 129 -89 218t-219 89t-218 -89t-88 -218z" />
<glyph unicode="&#xf5;" horiz-adv-x="1310" d="M67 530.5q0 233.5 168.5 394t419.5 160.5q166 0 301.5 -73.5t211.5 -200.5t76 -280.5t-76 -280.5t-211.5 -201t-301.5 -74q-251 0 -419.5 161t-168.5 394.5zM282 1271q45 232 212 232q69 0 149 -46q72 -39 99 -39q44 0 62 77l225 -45q-45 -232 -212 -232q-68 0 -149 46 q-72 39 -100 39q-44 0 -61 -77zM349 530q0 -130 88 -218t218 -88t219 88t89 218q0 129 -89 218t-219 89t-218 -89t-88 -218z" />
<glyph unicode="&#xf6;" horiz-adv-x="1310" d="M67 530.5q0 233.5 168.5 394t419.5 160.5q166 0 301.5 -73.5t211.5 -200.5t76 -280.5t-76 -280.5t-211.5 -201t-301.5 -74q-251 0 -419.5 161t-168.5 394.5zM307 1372.5q0 63.5 43.5 106.5t107 43t107 -43t43.5 -106.5t-43.5 -106.5t-107 -43t-107 43t-43.5 106.5z M349 530q0 -130 88 -218t218 -88t219 88t89 218q0 129 -89 218t-219 89t-218 -89t-88 -218zM702 1372.5q0 63.5 44 106.5t107 43t107 -43t44 -106.5t-44 -106.5t-107 -43t-107 43t-44 106.5z" />
<glyph unicode="&#xf7;" horiz-adv-x="1193" d="M121 558v243h952v-243h-952zM429 279.5q0 70.5 48 118.5t120 48t120 -48t48 -118.5t-48 -118.5t-120 -48t-120 48t-48 118.5zM429 1079.5q0 70.5 48 118.5t120 48t120 -48t48 -118.5t-48 -119t-120 -48.5t-120 48.5t-48 119z" />
<glyph unicode="&#xf8;" horiz-adv-x="1310" d="M67 530q0 233 168.5 394t419.5 161q150 0 277 -62l78 99h218l-154 -196q81 -76 125.5 -178t44.5 -218q0 -154 -76 -280.5t-211.5 -200.5t-301.5 -74q-151 0 -277 63l-79 -99h-218l155 196q-169 161 -169 395zM336 530q0 -106 60 -189l380 483q-59 25 -121 25 q-134 0 -226.5 -92.5t-92.5 -226.5zM532 236q59 -25 123 -25q135 0 227.5 92.5t92.5 226.5q0 108 -63 190z" />
<glyph unicode="&#xf9;" horiz-adv-x="1255" d="M116 408v653h281v-626q0 -90 58 -150.5t153 -60.5q65 0 128.5 43.5t101.5 103.5v690h281v-1061h-281v117q-54 -65 -133.5 -103.5t-164.5 -38.5q-187 0 -305.5 120t-118.5 313zM237 1563h282l267 -351h-268z" />
<glyph unicode="&#xfa;" horiz-adv-x="1255" d="M116 408v653h281v-626q0 -90 58 -150.5t153 -60.5q65 0 128.5 43.5t101.5 103.5v690h281v-1061h-281v117q-54 -65 -133.5 -103.5t-164.5 -38.5q-187 0 -305.5 120t-118.5 313zM440 1212l268 351h282l-281 -351h-269z" />
<glyph unicode="&#xfb;" horiz-adv-x="1255" d="M116 408v653h281v-626q0 -90 58 -150.5t153 -60.5q65 0 128.5 43.5t101.5 103.5v690h281v-1061h-281v117q-54 -65 -133.5 -103.5t-164.5 -38.5q-187 0 -305.5 120t-118.5 313zM218 1212l299 351h201l299 -351h-266l-134 159l-133 -159h-266z" />
<glyph unicode="&#xfc;" horiz-adv-x="1255" d="M116 408v653h281v-626q0 -90 58 -150.5t153 -60.5q65 0 128.5 43.5t101.5 103.5v690h281v-1061h-281v117q-54 -65 -133.5 -103.5t-164.5 -38.5q-187 0 -305.5 120t-118.5 313zM269 1372.5q0 63.5 43.5 106.5t107 43t107 -43t43.5 -106.5t-43.5 -106.5t-107 -43t-107 43 t-43.5 106.5zM665 1372.5q0 63.5 43.5 106.5t107 43t107 -43t43.5 -106.5t-43.5 -106.5t-107 -43t-107 43t-43.5 106.5z" />
<glyph unicode="&#xfd;" horiz-adv-x="1099" d="M19 1061h293l236 -705l239 705h293l-564 -1536h-294l187 475zM367 1212l267 351h282l-281 -351h-268z" />
<glyph unicode="&#xfe;" d="M136 -475v1970h279v-541q134 131 336 131q150 0 271.5 -75t189.5 -202t68 -277.5t-68 -277.5t-190 -202.5t-271 -75.5q-202 0 -336 131v-581h-279zM415 393q37 -77 111 -123t165 -46q130 0 218 88t88 218t-88 218.5t-218 88.5q-91 0 -165 -46.5t-111 -122.5v-275z" />
<glyph unicode="&#xff;" horiz-adv-x="1099" d="M19 1061h293l236 -705l239 705h293l-564 -1536h-294l187 475zM201 1372.5q0 63.5 43.5 106.5t107 43t107 -43t43.5 -106.5t-43.5 -106.5t-107 -43t-107 43t-43.5 106.5zM596 1372.5q0 63.5 43.5 106.5t107 43t107 -43t43.5 -106.5t-43.5 -106.5t-107 -43t-107 43 t-43.5 106.5z" />
<glyph unicode="&#x152;" horiz-adv-x="1861" d="M79 716.5q0 149.5 60.5 283t162.5 228t244.5 150.5t301.5 56h890v-248h-587v-342h538v-246h-538v-350h605v-248h-908q-159 0 -301.5 56t-244.5 150.5t-162.5 227.5t-60.5 282.5zM372 717q0 -199 137 -331.5t339 -132.5h15v928h-15q-202 0 -339 -133.5t-137 -330.5z" />
<glyph unicode="&#x153;" horiz-adv-x="2202" d="M67 530.5q0 233.5 168.5 394t419.5 160.5q143 0 267.5 -65t200.5 -172q72 106 194.5 171.5t262.5 65.5q159 0 287 -72t198.5 -194.5t70.5 -269.5q0 -53 -12 -103h-837q19 -111 104.5 -178.5t203.5 -67.5q167 0 301 132l169 -164q-177 -193 -469 -193q-151 0 -276 64.5 t-199 171.5q-77 -108 -199.5 -172t-266.5 -64q-251 0 -419.5 161t-168.5 394.5zM349 530q0 -130 88 -218t218 -88t219 88t89 218q0 129 -89 218t-219 89t-218 -89t-88 -218zM1295 647h551q-25 96 -96 155t-172 59q-100 0 -177.5 -59t-105.5 -155z" />
<glyph unicode="&#x178;" horiz-adv-x="1333" d="M34 1434h313l320 -580l319 580h313l-487 -856v-578h-291v578zM318 1703.5q0 63.5 44 106.5t107 43t107 -43t44 -106.5t-44 -106.5t-107 -43t-107 43t-44 106.5zM714 1703.5q0 63.5 43.5 106.5t107 43t107 -43t43.5 -106.5t-43.5 -106.5t-107 -43t-107 43t-43.5 106.5z " />
<glyph unicode="&#x2c6;" horiz-adv-x="870" d="M36 1145l299 350h201l299 -350h-267l-133 159l-133 -159h-266z" />
<glyph unicode="&#x2dc;" horiz-adv-x="870" d="M61 1224q45 232 212 232q69 0 150 -46q72 -39 99 -39q44 0 62 77l225 -45q-45 -232 -212 -233q-69 1 -150 47q-72 39 -99 38q-44 0 -61 -76z" />
<glyph unicode="&#x2000;" horiz-adv-x="968" />
<glyph unicode="&#x2001;" horiz-adv-x="1937" />
<glyph unicode="&#x2002;" horiz-adv-x="968" />
<glyph unicode="&#x2003;" horiz-adv-x="1937" />
<glyph unicode="&#x2004;" horiz-adv-x="645" />
<glyph unicode="&#x2005;" horiz-adv-x="484" />
<glyph unicode="&#x2006;" horiz-adv-x="322" />
<glyph unicode="&#x2007;" horiz-adv-x="322" />
<glyph unicode="&#x2008;" horiz-adv-x="242" />
<glyph unicode="&#x2009;" horiz-adv-x="387" />
<glyph unicode="&#x200a;" horiz-adv-x="107" />
<glyph unicode="&#x2010;" horiz-adv-x="847" d="M121 550v260h606v-260h-606z" />
<glyph unicode="&#x2011;" horiz-adv-x="847" d="M121 550v260h606v-260h-606z" />
<glyph unicode="&#x2012;" horiz-adv-x="847" d="M121 550v260h606v-260h-606z" />
<glyph unicode="&#x2013;" horiz-adv-x="1024" d="M0 550v260h1024v-260h-1024z" />
<glyph unicode="&#x2014;" horiz-adv-x="2048" d="M0 550v260h2048v-260h-2048z" />
<glyph unicode="&#x2018;" horiz-adv-x="617" d="M135 1194q0 39 19 79l150 322h180l-110 -242q49 -18 78.5 -61t29.5 -98q0 -73 -49 -121.5t-124 -48.5t-124.5 48.5t-49.5 121.5z" />
<glyph unicode="&#x2019;" horiz-adv-x="617" d="M133 1024l111 243q-49 18 -79 60.5t-30 97.5q0 73 49 121.5t124 48.5t124.5 -48.5t49.5 -121.5q0 -39 -18 -78l-151 -323h-180z" />
<glyph unicode="&#x201a;" horiz-adv-x="617" d="M133 -256l111 243q-49 18 -79 60.5t-30 97.5q0 73 49 121.5t124 48.5t124.5 -48.5t49.5 -121.5q0 -39 -18 -78l-151 -323h-180z" />
<glyph unicode="&#x201c;" horiz-adv-x="1017" d="M135 1194q0 39 19 79l150 322h180l-110 -242q49 -18 78.5 -61t29.5 -98q0 -73 -49 -121.5t-124 -48.5t-124.5 48.5t-49.5 121.5zM536 1194q0 39 18 79l151 322h180l-111 -242q49 -18 79 -61t30 -98q0 -73 -49.5 -121.5t-124 -48.5t-124 48.5t-49.5 121.5z" />
<glyph unicode="&#x201d;" horiz-adv-x="1017" d="M133 1024l111 243q-49 18 -79 60.5t-30 97.5q0 73 49 121.5t124 48.5t124.5 -48.5t49.5 -121.5q0 -39 -18 -78l-151 -323h-180zM534 1024l110 243q-49 18 -78.5 60.5t-29.5 97.5q0 73 49 121.5t123.5 48.5t124.5 -48.5t50 -121.5q0 -39 -19 -78l-150 -323h-180z" />
<glyph unicode="&#x201e;" horiz-adv-x="1017" d="M133 -256l111 243q-49 18 -79 60.5t-30 97.5q0 73 49 121.5t124 48.5t124.5 -48.5t49.5 -121.5q0 -39 -18 -78l-151 -323h-180zM534 -256l110 243q-49 18 -78.5 60.5t-29.5 97.5q0 73 49 121.5t123.5 48.5t124.5 -48.5t50 -121.5q0 -39 -19 -78l-150 -323h-180z" />
<glyph unicode="&#x2022;" horiz-adv-x="819" d="M124 680q0 118 83.5 201t202.5 83q118 0 201.5 -83t83.5 -201t-84 -201t-201 -83q-119 0 -202.5 83t-83.5 201z" />
<glyph unicode="&#x2026;" horiz-adv-x="1852" d="M135 145.5q0 72.5 49 121t124 48.5t124.5 -48.5t49.5 -121t-49.5 -121.5t-124.5 -49t-124 49t-49 121.5zM753 145.5q0 72.5 49 121t123.5 48.5t124.5 -48.5t50 -121t-50 -121.5t-124.5 -49t-123.5 49t-49 121.5zM1370 145.5q0 72.5 49 121t124 48.5t124.5 -48.5 t49.5 -121t-49.5 -121.5t-124.5 -49t-124 49t-49 121.5z" />
<glyph unicode="&#x202f;" horiz-adv-x="387" />
<glyph unicode="&#x2039;" horiz-adv-x="801" d="M96 568v140l590 362v-241l-326 -191l326 -192v-240z" />
<glyph unicode="&#x203a;" horiz-adv-x="801" d="M116 206v240l325 192l-325 191v241l590 -362v-140z" />
<glyph unicode="&#x205f;" horiz-adv-x="484" />
<glyph unicode="&#x20ac;" horiz-adv-x="1487" d="M20 506v152h125q-2 31 -2 59q0 26 2 58h-125v153h153q70 236 271.5 383t467.5 147q278 0 492 -166l-141 -208q-177 127 -351 127q-145 0 -263 -77t-175 -206h542v-153h-584q-3 -30 -3 -58q0 -31 3 -59h584v-152h-542q57 -130 175 -207.5t263 -77.5q97 0 191.5 38.5 t169.5 100.5l148 -206q-215 -178 -509 -179q-266 0 -467.5 147t-271.5 384h-153z" />
<glyph unicode="&#x2122;" horiz-adv-x="1600" d="M55 1267v167h579v-167h-187v-591h-205v591h-187zM697 676v758h181l213 -332l213 332h180v-758h-196v430l-135 -215h-125l-135 215v-430h-196z" />
<glyph unicode="&#x25fc;" horiz-adv-x="1059" d="M0 0v1060h1060v-1060h-1060z" />
</font>
</defs>
</svg>
