<svg xmlns="http://www.w3.org/2000/svg" width="165" height="74" viewBox="0 0 165 74">
  <g id="_1" data-name="1" transform="translate(-8737.329 -5016)">
    <rect id="Rectangle_744" data-name="Rectangle 744" width="165" height="74" transform="translate(8737.329 5016)" fill="#010101"/>
    <rect id="Rectangle_745" data-name="Rectangle 745" width="148.1" height="42.2" transform="translate(8745.729 5031.9)" fill="none"/>
    <path id="Path_779" data-name="Path 779" d="M25,3133.3a12.531,12.531,0,0,0-3.8.4v-8.1H13v28.8s3,1.8,9.9,1.8,12.5-3.5,12.5-12.1C35.4,3135.3,28.2,3133.3,25,3133.3Zm-2,17.2a5.913,5.913,0,0,1-1.8-.4v-10.6a5.913,5.913,0,0,1,1.8-.4c4.8,0,4.6,5.7,4.6,5.7S27.8,3150.5,23,3150.5Zm24.4-17.2s-11.2-.4-11.2,11.5c0,6.4,3.9,11.5,11.2,11.5s10-4.1,10-4.1l-4.5-3.9s-2,2.2-4.4,2.2a4.359,4.359,0,0,1-4.5-4.2H58.2C58.2,3146.2,59,3133.3,47.4,3133.3Zm0,8.8H44c0-3.5,2.6-3.7,3.4-3.7s3.4.2,3.4,3.7Zm13.7-13.9H69v5.5h3.4l2,5.6H69v9.4s-.1,3.4,4,.7c1.3,2.7,2.2,4.8,2.2,4.8s-2.1,2.1-7.8,2.1c-2.8,0-6.3-1.1-6.3-7.7v-9.3H58.2v-5.6h2.9Z" transform="translate(8737.329 1908)" fill="#fff"/>
    <path id="Path_780" data-name="Path 780" d="M71.8,3128.2l10,27.6h5.9l3.3-11.3,3.5,11.3h6l7.9-22.1h-8.2l-3.1,11.6-3.5-11.6H88.5l-3.4,11.6-5.6-17.1Z" transform="translate(8737.329 1908)" fill="#fff"/>
    <path id="Path_781" data-name="Path 781" d="M118.1,3133.3c-6.9,0-9.7,3.4-9.7,3.4l3.5,3.9a8.364,8.364,0,0,1,4.5-1.8c2.3,0,3,1.5,3,3.2-10.1,0-12.7,3.8-12.7,7.6s3.1,6.7,7.2,6.7,5.9-2.2,5.9-2.2l.7,1.7h6.6V3142C127.3,3137.3,125,3133.3,118.1,3133.3Zm1.4,16.5a3.85,3.85,0,0,1-2.8,1,2.3,2.3,0,0,1-2.5-2.3c0-1,.7-2.7,5.3-2.7Zm6.9-16.1,9.4,21.3-1.6,3.3c-1.4,2.2-5-.2-5-.2l-2,5.3s1.6,1.3,6.3,1.3,6.4-2.2,8.1-6.3c1.8-4.2,10.3-24.7,10.3-24.7h-8.2l-4.2,12.7-4.6-12.7Z" transform="translate(8737.329 1908)" fill="#fff"/>
  </g>
</svg>
