<svg xmlns="http://www.w3.org/2000/svg" width="165" height="74" viewBox="0 0 165 74">
  <g id="_10" data-name="10" transform="translate(-8083.329 -5756)">
    <rect id="Rectangle_320" data-name="Rectangle 320" width="165" height="74" transform="translate(8083.329 5756)" fill="#78b41e"/>
    <rect id="Rectangle_321" data-name="Rectangle 321" width="152.4" height="43.4" transform="translate(8089.629 5771.3)" fill="none"/>
    <path id="Path_262" data-name="Path 262" d="M19.4,1364l-1.8,2.4c-2-1.3-5.4-1.6-5.4.2,0,1.2,2.1,1.8,3.7,2.4s3.6,1.7,3.6,4.8-2.6,4.8-6.2,4.8a7.782,7.782,0,0,1-5.5-1.9l1.9-2.6c2.6,1.7,5.1,1.6,5.7,0,.3-1.1-.5-1.6-3.7-3-3.3-1.3-3.7-3.1-3.4-5C8.6,1364.1,12.5,1360.2,19.4,1364Zm2.2.7v2.2H20.1v2.7h1.2l.1,4.4c0,3.2,2,4.5,4.2,4.5a4.2,4.2,0,0,0,2.9-.8l-.9-2.5s-2.3,1.3-2.3-1.9v-3.8h2.2v-2.7H25v-3.2Zm12.5,1.8a7.878,7.878,0,0,0-4.4,1.5l1.3,1.9c1.8-.9,4.7-1.1,4.8.6-2.1,0-6.7.6-6.7,4.1,0,2.5,1.6,3.7,4,3.7a4.1,4.1,0,0,0,2.8-1.2v.9h3.4v-7.5S39.3,1366,34.1,1366.5Zm1.6,8.2a1.787,1.787,0,0,1-1.7.9c-1.3,0-1.7-.8-1.7-1.3,0-1.1,1.4-1.6,3.4-1.6Zm31.4-8.2a7.878,7.878,0,0,0-4.4,1.5l1.3,1.9c1.8-.9,4.7-1.1,4.8.6-2.1,0-6.7.6-6.7,4.1,0,2.5,1.6,3.7,4,3.7a4.1,4.1,0,0,0,2.8-1.2v.9h3.4v-7.5S72.3,1366,67.1,1366.5Zm1.6,8.2a1.563,1.563,0,0,1-1.6.9c-1.3,0-1.7-.8-1.7-1.3,0-1.1,1.4-1.6,3.4-1.6v2Zm-27.9-7.8v11.2h3.9l.1-7.5c0-1.1,2.8-1.7,2.8,0v7.5h3.9v-7s.6-4.6-3.7-4.6a7.116,7.116,0,0,0-3.8,1.4v-.9l-3.2-.1Zm12.6,7.5v3.4a5.164,5.164,0,0,0,2.7.6c3.6,0,4.8-2.2,4.8-5.2V1363l-4,1v7.9c0,1.6.2,3.3-1.7,3.3C53.7,1375.2,53.4,1374.4,53.4,1374.4Zm20.4-7.5v11.2h3.9l.1-7.5c0-1.1,2.8-1.7,2.8,0v7.5h3.9v-7s.6-4.6-3.7-4.6a7.116,7.116,0,0,0-3.8,1.4v-.9l-3.2-.1Zm10.5,3.9c0-1.3,2.8-2,2.8-.2v7.5H91v-7s.6-4.6-3.7-4.6c-3.1,0-3.8,1.4-3.8,1.4" transform="translate(8083.329 4424)" opacity="0.1"/>
    <path id="Path_263" data-name="Path 263" d="M105.6,1374.9l-1.4,2.1c3.2,1.7,7,2.3,8.9-1.1.9-1.7.2-3.9-2.6-4.7-2.8-.9-2.1-1.9-1.9-2.1.5-.4,1.9-.4,3.5.7,1.4-2.1,1.5-2.3,1.5-2.3a7.017,7.017,0,0,0-4.1-1.4c-2.4,0-4.9,1.4-4.9,3.8s3.9,3.6,3.9,3.6c1.8.6,1.1,1.5,1.1,1.5C108.8,1376.2,107.1,1375.8,105.6,1374.9Zm-7.2.9a2.33,2.33,0,0,1-2.6-2.1h7.5c0-3.4-.5-7.3-5-7.3-3.1,0-6,1.8-6,6.3s4,5.8,6.1,5.8a10.129,10.129,0,0,0,4.4-1.4l-1.2-2.1A6.157,6.157,0,0,1,98.4,1375.8Zm-.4-6.6a2.039,2.039,0,0,1,2.2,2.1H95.8A2.25,2.25,0,0,1,98,1369.2Z" transform="translate(8083.329 4424)" opacity="0.1"/>
    <circle id="Ellipse_8" data-name="Ellipse 8" cx="1.4" cy="1.4" r="1.4" transform="translate(8198.329 5799.3)" opacity="0.1"/>
    <path id="Path_264" data-name="Path 264" d="M127.6,1375.9a4.839,4.839,0,0,1-2.9,1,4.588,4.588,0,0,1-4.6-4.6,4.553,4.553,0,0,1,7.4-3.6l1.1-1a5.819,5.819,0,0,0-3.9-1.4,6,6,0,0,0,0,12,5.941,5.941,0,0,0,3.7-1.3l-.8-1.1Zm6.8-9.6c-3,0-5.4,2.7-5.4,6.1s2.4,6.1,5.4,6.1,5.4-2.7,5.4-6.1-2.4-6.1-5.4-6.1Zm0,10.7c-2.1,0-3.8-2-3.8-4.6,0-2.5,1.7-4.6,3.8-4.6s3.8,2,3.8,4.6C138.3,1374.9,136.5,1377,134.4,1377Zm14.1,1.1H150v-8.7a4.52,4.52,0,0,1,3.6-1.3,2.045,2.045,0,0,1,2.2,2.2v7.8h1.5v-7.3s.4-4.2-3.8-4.2a8.384,8.384,0,0,0-4.2,1.4s-.7-1.4-3.1-1.4a5.97,5.97,0,0,0-3.4,1.1v-1h-1.5v11.4h1.5v-8.7a4.52,4.52,0,0,1,3.6-1.3,2.045,2.045,0,0,1,2.2,2.2c-.1,1.2-.1,7.8-.1,7.8Z" transform="translate(8083.329 4424)" opacity="0.1"/>
    <path id="Path_265" data-name="Path 265" d="M19.4,1362.3l-1.8,2.4c-2-1.3-5.4-1.6-5.4.2,0,1.2,2.1,1.8,3.7,2.4s3.6,1.7,3.6,4.8-2.6,4.8-6.2,4.8a7.782,7.782,0,0,1-5.5-1.9l1.9-2.6c2.6,1.7,5.1,1.6,5.7,0,.3-1.1-.5-1.6-3.7-3-3.3-1.3-3.7-3.1-3.4-5C8.6,1362.4,12.5,1358.4,19.4,1362.3Zm2.2.6v2.2H20.1v2.7h1.2l.1,4.4c0,3.2,2,4.5,4.2,4.5a4.2,4.2,0,0,0,2.9-.8l-.9-2.5s-2.3,1.3-2.3-1.9v-3.8h2.2V1365H25v-3.2Zm12.5,1.8a7.878,7.878,0,0,0-4.4,1.5l1.3,1.9c1.8-.9,4.7-1.1,4.8.6-2.1,0-6.7.6-6.7,4.1,0,2.5,1.6,3.7,4,3.7a4.1,4.1,0,0,0,2.8-1.2v.9h3.4v-7.5C39.3,1368.8,39.3,1364.2,34.1,1364.7Zm1.6,8.2a1.787,1.787,0,0,1-1.7.9c-1.3,0-1.7-.8-1.7-1.3,0-1.1,1.4-1.6,3.4-1.6Zm31.4-8.2a7.878,7.878,0,0,0-4.4,1.5l1.3,1.9c1.8-.9,4.7-1.1,4.8.6-2.1,0-6.7.6-6.7,4.1,0,2.5,1.6,3.7,4,3.7a4.1,4.1,0,0,0,2.8-1.2v.9h3.4v-7.5C72.3,1368.8,72.3,1364.2,67.1,1364.7Zm1.6,8.2a1.563,1.563,0,0,1-1.6.9c-1.3,0-1.7-.8-1.7-1.3,0-1.1,1.4-1.6,3.4-1.6v2Zm-27.9-7.8v11.2h3.9l.1-7.5c0-1.1,2.8-1.7,2.8,0v7.5h3.9v-7s.6-4.6-3.7-4.6a7.116,7.116,0,0,0-3.8,1.4v-.9l-3.2-.1Zm12.6,7.6v3.4a5.164,5.164,0,0,0,2.7.6c3.6,0,4.8-2.2,4.8-5.2v-10.2l-4,1v7.9c0,1.6.2,3.3-1.7,3.3C53.7,1373.4,53.4,1372.7,53.4,1372.7Zm20.4-7.6v11.2h3.9l.1-7.5c0-1.1,2.8-1.7,2.8,0v7.5h3.9v-7s.6-4.6-3.7-4.6a7.116,7.116,0,0,0-3.8,1.4v-.9l-3.2-.1Zm10.5,4c0-1.3,2.8-2,2.8-.2v7.5H91v-7s.6-4.6-3.7-4.6c-3.1,0-3.8,1.4-3.8,1.4" transform="translate(8083.329 4424)" fill="#fff"/>
    <path id="Path_266" data-name="Path 266" d="M105.6,1373.2l-1.4,2.1c3.2,1.7,7,2.3,8.9-1.1.9-1.7.2-3.9-2.6-4.7-2.8-.9-2.1-1.9-1.9-2.1.5-.4,1.9-.4,3.5.7,1.4-2.1,1.5-2.3,1.5-2.3a7.017,7.017,0,0,0-4.1-1.4c-2.4,0-4.9,1.4-4.9,3.8s3.9,3.6,3.9,3.6c1.8.6,1.1,1.5,1.1,1.5C108.8,1374.4,107.1,1374,105.6,1373.2Zm-7.2.8a2.33,2.33,0,0,1-2.6-2.1h7.5c0-3.4-.5-7.3-5-7.3-3.1,0-6,1.8-6,6.3s4,5.8,6.1,5.8a10.129,10.129,0,0,0,4.4-1.4l-1.2-2.1A6.157,6.157,0,0,1,98.4,1374Zm-.4-6.6a2.039,2.039,0,0,1,2.2,2.1H95.8A2.25,2.25,0,0,1,98,1367.4Z" transform="translate(8083.329 4424)" fill="#fff"/>
    <circle id="Ellipse_9" data-name="Ellipse 9" cx="1.4" cy="1.4" r="1.4" transform="translate(8198.329 5797.5)" fill="#fff"/>
    <path id="Path_267" data-name="Path 267" d="M127.6,1374.1a4.839,4.839,0,0,1-2.9,1,4.6,4.6,0,1,1,2.8-8.2l1.1-1a5.819,5.819,0,0,0-3.9-1.4,6,6,0,0,0,0,12,5.941,5.941,0,0,0,3.7-1.3l-.8-1.1Zm6.8-9.6c-3,0-5.4,2.7-5.4,6.1s2.4,6.1,5.4,6.1,5.4-2.7,5.4-6.1c0-3.3-2.4-6.1-5.4-6.1Zm0,10.7c-2.1,0-3.8-2-3.8-4.6,0-2.5,1.7-4.6,3.8-4.6s3.8,2,3.8,4.6C138.3,1373.2,136.5,1375.2,134.4,1375.2Zm14.1,1.1H150v-8.7a4.52,4.52,0,0,1,3.6-1.3,2.045,2.045,0,0,1,2.2,2.2v7.8h1.5V1369s.4-4.2-3.8-4.2a8.384,8.384,0,0,0-4.2,1.4s-.7-1.4-3.1-1.4a5.97,5.97,0,0,0-3.4,1.1v-1h-1.5v11.4h1.5v-8.7a4.52,4.52,0,0,1,3.6-1.3,2.045,2.045,0,0,1,2.2,2.2l-.1,7.8Z" transform="translate(8083.329 4424)" fill="#fff"/>
  </g>
</svg>
