<svg xmlns="http://www.w3.org/2000/svg" xmlns:xlink="http://www.w3.org/1999/xlink" width="165" height="74" viewBox="0 0 165 74">
  <defs>
    <linearGradient id="linear-gradient" x1="0.5" y1="-203.744" x2="0.5" y2="-202.613" gradientUnits="objectBoundingBox">
      <stop offset="0" stop-color="#fefefe"/>
      <stop offset="1" stop-color="#d7d9da"/>
    </linearGradient>
    <linearGradient id="linear-gradient-2" x1="0.5" y1="-226.149" x2="0.5" y2="-224.894" xlink:href="#linear-gradient"/>
    <linearGradient id="linear-gradient-3" x1="0.5" y1="-198.008" x2="0.5" y2="-196.909" xlink:href="#linear-gradient"/>
  </defs>
  <g id="_118" data-name="118" transform="translate(-8413.329 -4572)">
    <rect id="Rectangle_839" data-name="Rectangle 839" width="165" height="74" transform="translate(8413.329 4572)"/>
    <path id="Path_1323" data-name="Path 1323" d="M342.4,196.9V172.8h11.5l5.7,12.7a66.263,66.263,0,0,1-.5-7v-5.8H368v24.1h-9.9l-7.2-15.3s.5,7.6.5,15.3h-9Z" transform="translate(8083.329 4424)" fill="url(#linear-gradient)"/>
    <path id="Path_1324" data-name="Path 1324" d="M381.1,175.7s-12.2-.8-12,9.4c0,4.8-.6,12.5,12,12.4a35.55,35.55,0,0,0,10.5-1.5l.9-5.6s-12.8,4.5-14.3-1.2c8.7,0,14.9-.1,14.9-.1S397.1,175.2,381.1,175.7Zm1,9H378c0-2.7,2.4-3.2,3.6-3.3h.6c1.1.1,3.6.6,3.6,3.3Z" transform="translate(8083.329 4424)" fill="url(#linear-gradient-2)"/>
    <path id="Path_1325" data-name="Path 1325" d="M452.5,175.7s-12.2-.8-12,9.4c0,4.8-.6,12.5,12,12.4A35.55,35.55,0,0,0,463,196l.9-5.6s-12.8,4.5-14.3-1.2c8.7,0,14.9-.1,14.9-.1s4-13.9-12-13.4Zm1,9h-4.2c0-2.7,2.4-3.2,3.6-3.3h.6c1.1.1,3.6.6,3.6,3.3Z" transform="translate(8083.329 4424)" fill="#c61d2c"/>
    <path id="Path_1326" data-name="Path 1326" d="M392.8,179.2l7.2-6.7h5.4v4.1h6.1v7.1h-6.1v5.7c0,2,1,2.3,2.7,2.3a15.446,15.446,0,0,0,3.3-.4l-.3,5.3a32.066,32.066,0,0,1-8.3.8c-3.8,0-7.1-.2-7.1-6.7v-7.3h-4l1.1-2.3v-1.9Z" transform="translate(8083.329 4424)" fill="url(#linear-gradient-3)"/>
    <path id="Path_1327" data-name="Path 1327" d="M463.9,179.2l7.2-6.7h5.4v4.1h6.1v7.1h-6.1v5.7c0,2,1,2.3,2.7,2.3a15.446,15.446,0,0,0,3.3-.4l-.3,5.3a32.066,32.066,0,0,1-8.3.8c-3.8,0-7.1-.2-7.1-6.7v-7.3h-4l1.1-2.3v-1.9ZM434,184.5v-.1s6.2.3,6.2-6.3c0-3.2-1.6-5.6-8-5.6H414.5v23.9h18c5.6,0,8.1-1.9,8.1-6.2S437.9,184.5,434,184.5Zm-10.1-5.9h4.8c2.5,0,2.6,1.7,2.6,2,0,.2-.1,2-2.6,2h-4.8Zm5.2,12.1h-5.2v-3.9h5.2c2.5,0,2.6,1.7,2.6,2C431.7,189,431.6,190.7,429.1,190.7Z" transform="translate(8083.329 4424)" fill="#c61d2c"/>
  </g>
</svg>
