<?xml version="1.0" encoding="utf-8"?>
<!-- Generator: Adobe Illustrator 17.0.0, SVG Export Plug-In . SVG Version: 6.00 Build 0)  -->
<!DOCTYPE svg PUBLIC "-//W3C//DTD SVG 1.1//EN" "http://www.w3.org/Graphics/SVG/1.1/DTD/svg11.dtd">
<svg version="1.1" id="Layer_1" xmlns="http://www.w3.org/2000/svg" xmlns:xlink="http://www.w3.org/1999/xlink" x="0px" y="0px"
	 width="998px" height="335px" viewBox="0 0 998 335" enable-background="new 0 0 998 335" xml:space="preserve">
<rect fill="#46942E" width="997.92" height="334.8"/>
<g>
	<g>
		<path fill="#FFFFFF" d="M973.258,231.244c-7.676,0-15.259,0-23.482,0c0-2.166,0.025-4.108-0.004-6.049
			c-0.282-18.816-0.23-37.645-1.001-56.441c-0.411-10.024-5.485-14.294-15.568-14.227c-6.57,0.044-13.134,0.986-18.508,1.428
			c0.183,21.355,0.263,41.6,0.615,61.84c0.065,3.761-1.005,5.658-4.679,6.814c-6.281,1.977-12.386,4.51-19.266,7.07
			c-0.134-2.685-0.305-4.607-0.314-6.53c-0.077-17.33,0.06-34.664-0.24-51.99c-0.252-14.553-5.092-18.941-19.641-18.731
			c-0.333,0.005-0.667,0.013-1,0.021c-13.026,0.333-13.211,0.52-13.212,13.278c-0.001,15.665-0.081,31.331,0.055,46.995
			c0.029,3.4-0.872,5.448-4.179,6.947c-6.477,2.938-12.712,6.408-19.697,9.991c-0.151-2.259-0.346-3.82-0.347-5.381
			c-0.019-26.831,0.069-53.662-0.108-80.492c-0.025-3.822,1.124-5.635,4.772-6.706c15.916-4.67,31.982-8.004,48.674-5.93
			c3.583,0.445,7.397,1.161,10.496,2.86c4.24,2.325,7.873,1.885,12.272,0.62c11.558-3.324,23.328-4.996,35.499-3.687
			c15.647,1.682,24.875,9.719,27.725,25.367c0.803,4.409,1.526,8.903,1.573,13.366c0.203,19.16,0.145,38.322,0.151,57.484
			C973.844,229.783,973.504,230.403,973.258,231.244z"/>
		<path fill="#FFFFFF" d="M735.784,209.976c1.527,5.819,3.235,12.327,5.045,19.223c-12.442,4.247-24.659,5.777-37.226,4.706
			c-9.608-0.819-18.751-2.991-26.267-9.522c-7.257-6.306-11.505-14.642-12.245-23.875c-0.937-11.681-1.401-23.652,0.093-35.218
			c2.4-18.587,14.709-29.412,33.731-32.032c12.521-1.724,24.842-0.411,37.122,2.328c4.26,0.95,4.883,2.797,3.622,6.602
			c-1.613,4.865-2.751,9.887-4.15,15.051c-5.952-1.138-11.554-2.705-17.245-3.156c-5.407-0.428-10.995-0.221-16.341,0.676
			c-6.291,1.056-10.123,5.488-11.689,11.642c-2.628,10.326-2.799,20.769-0.539,31.15c2.312,10.618,8.086,15.514,19.55,15.334
			C717.768,212.752,726.266,211.08,735.784,209.976z"/>
		<path fill="#FFFFFF" d="M638.815,200.819c5.565-0.062,16.867,10.771,17.054,16.348c0.204,6.051-9.714,16.103-16.092,16.309
			c-6.576,0.212-16.974-9.872-16.995-16.482C622.762,210.521,632.307,200.892,638.815,200.819z"/>
		<path fill="#FFFFFF" d="M607.9,210.885c-3.336,0.672-6.071,1.382-8.852,1.739c-2.795,0.359-5.636,0.514-8.455,0.501
			c-8.588-0.041-12.783-3.142-13.101-11.63c-0.553-14.77-0.154-29.576-0.154-45.077c5.496,0,10.313,0.062,15.126-0.038
			c1.435-0.03,3.548-0.008,4.182-0.869c4.664-6.345,9.032-12.907,14.219-20.458c-12.06,0-22.632,0-33.822,0
			c0-9.397,0-18.247,0-27.933c-7.489,3.806-14.07,7.301-20.795,10.496c-2.687,1.277-3.578,2.999-3.421,5.849
			c0.206,3.752,0.051,7.523,0.051,11.691c-4.409,0-8.056,0.15-11.683-0.045c-3.198-0.172-4.635,0.935-4.36,4.26
			c0.191,2.316,0.033,4.662,0.032,6.994c-0.001,2.309,0,4.618,0,6.928c-4.757-11.588-13.165-18.334-25.007-19.534
			c-9.33-0.945-18.977-1.03-28.249,0.231c-15.962,2.17-25.267,12.411-28.833,27.876c-3.228,13.997-3.211,28.082,0.072,42.057
			c2.814,11.977,9.162,21.584,20.987,26.187c19.139,7.45,38.155,3.902,57.572-1.146c-1.404-6.671-2.681-12.737-4.002-19.01
			c-1.818,0.324-2.931,0.61-4.061,0.71c-9.893,0.879-19.805,2.55-29.682,2.373c-12.702-0.228-18.968-9.032-17.047-22.535
			c1.841-0.084,3.79-0.246,5.739-0.249c16.66-0.021,33.322-0.151,49.979,0.08c4.448,0.062,6.007-1.416,5.659-5.741
			c-0.741-9.232-1.279-18.48-1.906-27.812c4.532,0,9.43,0,14.779,0c0,3.822-0.06,7.291,0.01,10.756
			c0.292,14.476,0.189,28.979,1.075,43.42c0.728,11.869,6.94,19.214,17.348,21.733c12.955,3.135,25.782,1.553,38.397-2.158
			c0.923-0.272,2.255-1.888,2.11-2.627C610.699,222.253,609.271,216.669,607.9,210.885z M516.83,170.861
			c-12.973,0-25.532,0-38.639,0c0.796-6.687,1.422-13.548,8.087-16.612c8.1-3.724,16.993-4.374,24.895,0.366
			C516.864,158.029,517.046,164.448,516.83,170.861z"/>
		<path fill="#FFFFFF" d="M442.034,155.267c-2.533-9.089-7.857-16.651-17.108-19.414c-7.181-2.145-14.993-3.212-22.477-3.008
			c-7.066,0.193-14.07,2.669-21.366,4.196c0-11.606,0-23.406,0-36.42c-7.421,3.772-13.803,7.249-20.396,10.266
			c-3.106,1.421-3.894,3.313-3.884,6.548c0.109,34.969,0.131,69.94-0.026,104.909c-0.018,3.896,1.273,5.635,4.929,6.606
			c16.712,4.437,33.605,6.702,50.86,4.406c15.534-2.067,26.335-10.2,30.098-25.778C446.868,190.17,446.865,172.602,442.034,155.267z
			 M419.081,201.74c-1.509,7.284-5.987,11.802-13.271,12.033c-7.072,0.224-14.188-0.914-21.284-1.459
			c-2.755-0.211-3.474-1.806-3.429-4.403c0.131-7.493,0.046-14.99,0.046-22.486c-0.005,0-0.011,0-0.016,0
			c0-6.829,0.258-13.672-0.087-20.484c-0.246-4.848,1.98-7.665,6.127-9.075c7.239-2.461,14.654-2.89,22.094-0.808
			c6.285,1.759,9.047,6.672,10.129,12.466C421.517,178.91,421.44,190.347,419.081,201.74z"/>
		<path fill="#FFFFFF" d="M825.112,160.704c-3.211-14.75-12.224-24.487-27.478-26.489c-9.632-1.264-19.597-1.68-29.246-0.746
			c-17.256,1.67-26.956,10.926-30.908,27.818c-3.308,14.141-3.103,28.426-0.31,42.593c2.827,14.338,10.613,24.712,25.431,28.3
			c11.794,2.856,23.721,2.841,35.633,0.4c13.505-2.768,22.511-10.726,25.951-23.996c2.109-8.137,0.801-16.64,2.026-24.334
			C825.145,175.822,826.73,168.133,825.112,160.704z M802.125,183.394c-0.782,6.409-0.141,12.813-1.45,19.113
			c-1.592,7.662-6.245,11.193-14.068,11.68c-2.981,0.185-5.986,0.221-8.97,0.095c-9.81-0.416-15.361-4.522-16.122-14.137
			c-0.886-11.195-0.879-22.565-0.011-33.762c0.759-9.8,5.932-13.645,16.092-14.032c14.996-0.571,23.377,0.052,24.516,20.941
			 M801.992,183.371"/>
	</g>
	<path fill="#FFFFFF" d="M177.699,19.193c12.951-0.895,25.645,4.372,37.17,12.161c42.675,28.837,79.053,64.133,106.537,107.883
		c13.971,22.239,12.4,46.508,0.209,68.181c-24.349,43.286-58.096,78.57-102.017,102.29c-31.432,16.975-63.571,13.163-92.019-7.773
		c-30.959-22.785-58.335-49.87-81.787-80.373c-25.317-32.928-25.834-69.13-2.377-103.429c24.076-35.206,53.293-65.378,90.145-87.49
		C146.611,22.811,160.95,19.138,177.699,19.193z M179.741,225.699c14.53,6.388,37.281,8.351,56.693,5.314
		c26.621-4.165,34.13-18.245,32.653-42.561c-0.749-12.334-6.729-22.264-19.69-25.935c-6.476-1.834-13.092-3.189-19.676-4.616
		c-6.029-1.306-12.169-2.151-18.134-3.688c-6.004-1.547-9.688-5.404-9.744-12.031c-0.057-6.805,2.285-12.364,8.974-14.756
		c4.107-1.468,8.643-2.615,12.945-2.489c12.486,0.364,24.951,1.443,38.329,2.299c1.21-4.153,2.803-9.623,4.453-15.289
		c-1.2-0.517-2.038-1.038-2.948-1.246c-15.571-3.564-31.33-5.249-47.235-3.335c-5.89,0.709-11.878,2.156-17.361,4.394
		c-14.92,6.087-20.946,19.042-19.162,39.564c1.238,14.242,8.28,21.688,24.292,25.402c3.755,0.871,7.633,1.197,11.441,1.853
		c6.469,1.114,13.055,1.826,19.36,3.553c8.419,2.306,11.99,7.676,11.236,15.241c-0.762,7.65-5.902,13.32-13.902,13.947
		c-8.448,0.663-16.991,0.824-25.451,0.387c-6.851-0.354-13.64-1.919-20.77-2.994C183.972,214.294,181.9,219.88,179.741,225.699z
		 M118.174,107.811c-6.286,3.078-11.402,5.788-16.694,8.096c-3.097,1.351-4.12,3.201-4.107,6.597
		c0.13,35.194,0.08,70.389,0.091,105.584c0,0.925,0.12,1.85,0.183,2.747c0.86,0.249,1.396,0.539,1.933,0.54
		c20.884,0.056,41.768,0.129,62.652,0.016c1.339-0.007,3.378-1.182,3.882-2.339c2.278-5.235,4.12-10.659,6.341-16.609
		c-16.489,0-32.138-0.185-47.778,0.107c-5.024,0.094-6.656-1.277-6.616-6.483c0.233-30.359,0.114-60.72,0.113-91.08
		C118.174,112.9,118.174,110.813,118.174,107.811z"/>
</g>
</svg>
