<svg xmlns="http://www.w3.org/2000/svg" width="165" height="74" viewBox="0 0 165 74">
  <g id="_12" data-name="12" transform="translate(-8737.329 -5608)">
    <rect id="Rectangle_749" data-name="Rectangle 749" width="165" height="74" transform="translate(8737.329 5608)" fill="#d22227"/>
    <path id="Path_1065" data-name="Path 1065" d="M27.7,3748.2c-.1.4-.3.5-.8.7-1,.2-5.2.2-6.9.2-2.9,0-5.4-2.1-4.3-6,1.4-5.3,4.8-18.4,4.8-18.4H25l-4.8,18.2c-.1.4-.1.7-.2,1.1-.1,1.2.4,1.6,1.9,1.6h5.8c.2,0,.6.1.5.7C28,3747.1,27.7,3748.2,27.7,3748.2Z" transform="translate(8737.329 1908)" fill="#fff"/>
    <path id="Path_1066" data-name="Path 1066" d="M60.8,3724.7l-1.7,6.5c-1.1-.1-2.2-.2-3-.2-5.1,0-8.2,2.2-9.7,7.9,0,0-.5,1.8-.6,2.5a5.543,5.543,0,0,0-.3,1.7c-.3,3.5,1.4,6.2,5.8,6.2a30.5,30.5,0,0,0,6.6-.8c.7-.2.9-.4,1.1-.9l6.1-23Zm-5.5,21a22.775,22.775,0,0,1-3.1.2c-2.1,0-2.7-.8-2.6-2.5a13.5,13.5,0,0,1,.3-2c.1-.6.6-2.5.6-2.5.8-3.1,1.9-4.5,4.6-4.5.7,0,2.1.1,2.9.2Z" transform="translate(8737.329 1908)" fill="#fff"/>
    <path id="Path_1067" data-name="Path 1067" d="M72.6,3731c-.8,0-1.9.1-3.1.2l1.7-6.5H67s-5,19.2-6.1,23.1c-.2.6.6.7.7.7a24.463,24.463,0,0,0,6.2.8c5.2,0,8.3-2.6,9.7-7.9l.6-2.5a6.8,6.8,0,0,0,.3-1.9C78.7,3733.4,76.9,3731,72.6,3731Zm1.6,6.1a6.793,6.793,0,0,1-.3,1.9l-.6,2.5c-.6,2.3-1.9,4.5-4.6,4.5a21.152,21.152,0,0,1-3-.2l2.9-11.1c.9-.1,2.4-.2,3.1-.2C73.8,3734.4,74.4,3735.4,74.2,3737.1Z" transform="translate(8737.329 1908)" fill="#fff"/>
    <path id="Path_1068" data-name="Path 1068" d="M98.8,3731c-5,0-8.3,2.7-9.7,7.9,0,0-.4,1.4-.6,2.2-.2.7-.3,1.4-.4,1.9-.3,3.3,1.4,6.3,5.8,6.3,5,0,8.2-2.6,9.6-7.9l.7-2.5a6.093,6.093,0,0,0,.3-1.7C104.9,3733.9,103.1,3731,98.8,3731Zm1.5,6.5a7.845,7.845,0,0,1-.2,1.4l-.7,2.5c-.8,3-2.3,4.3-4.5,4.3-1.9,0-2.7-1-2.6-2.9a14.963,14.963,0,0,1,.3-1.7c.1-.6.6-2.3.6-2.3.9-3.1,2.6-4.3,4.5-4.3C99.7,3734.6,100.5,3735.6,100.3,3737.5Z" transform="translate(8737.329 1908)" fill="#fff"/>
    <path id="Path_1069" data-name="Path 1069" d="M121.8,3731.9c.3-.3.4-.7-.2-.7h-3.8a1.033,1.033,0,0,0-.8.4l-6.9,6.8,3.6-13.7h-4.2s-4.4,16.8-6.2,23.7a.533.533,0,0,0,.5.7h2.9a.947.947,0,0,0,.8-.7l2-7.5,3.2,7.5a.871.871,0,0,0,.8.6h3.6c.3,0,.7-.3.5-.7-.7-1.5-4.1-8.6-4.1-8.6l8.3-7.8" transform="translate(8737.329 1908)" fill="#fff"/>
    <path id="Path_1070" data-name="Path 1070" d="M129.2,3731c-4.9,0-8.2,2.2-9.8,8.1,0,0-.2.9-.5,1.8-.2.9-.3,1.8-.4,2.1-.4,4.8,2.9,6.3,5.7,6.3a38.668,38.668,0,0,0,6.4-.5c.6-.1.7-.3.9-.8l.6-2.6a56.424,56.424,0,0,1-6.5.4c-2.4,0-3.1-1.1-3-2.9a6.11,6.11,0,0,1,.3-1.3h10.3c.4,0,.7-.3.8-.8,0,0,.1-.4.3-1.1a20.69,20.69,0,0,0,.4-2.2C135.2,3733.8,133.4,3731,129.2,3731Zm1.6,6.4a5.019,5.019,0,0,1-.2,1.2h-6.7c.6-2.3,1.9-4,4.5-4C130,3734.6,130.9,3735.6,130.8,3737.4Z" transform="translate(8737.329 1908)" fill="#fff"/>
    <path id="Path_1071" data-name="Path 1071" d="M149.1,3731.6a24.406,24.406,0,0,0-5.5-.6c-3,0-6.7,1-7.1,5.2a4.561,4.561,0,0,0,1.7,3.8l3.6,2.6c.7.5,1,1,.9,1.6-.1,1.5-1.3,1.7-2.8,1.7-.7,0-3.6-.1-5-.3a.655.655,0,0,0-.8.5l-.5,2a.569.569,0,0,0,.4.7,26.235,26.235,0,0,0,5.7.6c3.7,0,7.1-1.7,7.5-5.6a4.1,4.1,0,0,0-2-4l-3.5-2.6c-.6-.4-.9-.8-.8-1.3.1-1.3,1.6-1.5,2.5-1.5a29.665,29.665,0,0,1,5,.4c.5.1.7-.4.8-.6l.5-1.8C149.5,3732.4,149.7,3731.8,149.1,3731.6Z" transform="translate(8737.329 1908)" fill="#fff"/>
    <path id="Path_1072" data-name="Path 1072" d="M90.6,3731.6a.449.449,0,0,0-.4-.6,7.6,7.6,0,0,0-4.9,1.5l.2-.6a.46.46,0,0,0-.5-.6H82.2a.871.871,0,0,0-.8.6s-3.6,13.8-4.3,16.4c-.1.5,0,.8.5.8h2.8a.849.849,0,0,0,.8-.7l3.4-12.7a9.629,9.629,0,0,1,4.7-1.1.993.993,0,0,0,.8-.6A14.352,14.352,0,0,1,90.6,3731.6Z" transform="translate(8737.329 1908)" fill="#fff"/>
    <path id="Path_1073" data-name="Path 1073" d="M46.1,3731.9a25.892,25.892,0,0,0-6.3-.9c-5.1,0-8.4,3-9.7,7.9a25.578,25.578,0,0,0-.7,2.7,16.421,16.421,0,0,0-.4,1.9c-.3,3.8,1.8,5.7,4.7,5.7a7.888,7.888,0,0,0,5-1.8s-.1.4-.2,1a.441.441,0,0,0,.4.6h2.6a.993.993,0,0,0,.8-.6l4.1-15.7C46.7,3732.2,46.6,3732,46.1,3731.9Zm-6.9,12.7a8.865,8.865,0,0,1-4.1,1.3c-1.3,0-2.1-.6-2-2.4.1-.4.1-.8.2-1.3l.9-3.3c.7-2.6,1.9-4.5,4.6-4.5a22.36,22.36,0,0,1,3,.2Z" transform="translate(8737.329 1908)" fill="#fff"/>
  </g>
</svg>
