<svg xmlns="http://www.w3.org/2000/svg" width="165" height="74" viewBox="0 0 165 74">
  <g id="_121" data-name="121" transform="translate(-10336.329 -4865)">
    <rect id="Rectangle_824" data-name="Rectangle 824" width="165" height="74" transform="translate(10336.329 4865)" fill="#ff141a"/>
    <path id="Path_1275" data-name="Path 1275" d="M70.4,16162.9c.3-4.4-2.4-7.1-5.3-6.8s-3.9,2.1-4.6,4.2c-.1.6-1.8.4-3.3.1-1.4-.3-2.5-.8-2.2-1.5,4.8-12.5,19.9-6.8,18.4,4.6-.6,3.9-4.2,10.9-8.9,16.6a11.88,11.88,0,0,0,8.7-3.7c.6-.7,1.1-.8,1.5-.7s.1.7,0,1.1c-3.2,5.7-12,9.4-20.6,9-.4,0-.8-.1-.8-.8,0-.6,1-1.1,1.8-1.8C64.4,16177,70.1,16168,70.4,16162.9Z" transform="translate(10336.329 -11267)" fill="#fff"/>
    <path id="Path_1276" data-name="Path 1276" d="M135.9,16183.8c-5-9.4-2.2-22-1.8-25.9.3-1.9-4.2-3.9-4.4-3.9s-.4.1-.4.6c-.1.4.6,8.7.1,10.8-6.8-.1-12.6,5.3-14.7,10.8a7.174,7.174,0,0,1-2.1,3.3,9.608,9.608,0,0,1-8.2,2.4,2.921,2.921,0,0,1-2.1-2.5c7.9-1.8,13.4-5.1,12.7-10.2-.4-2.9-3.7-5-8.7-2.9-4,1.7-7.9,6.8-8.6,10.2-3,.6-7.2-.6-13.1-2.5,9.6-1.2,19.8-7.3,19.8-11.8,0-6.5-10.7-6.9-19.9-4.8a24.263,24.263,0,0,0-7.1,2.8c-.6.3-1.7,2.4-.8,2.5,1,.1,6-1.9,7.9-2.5a9.2,9.2,0,0,0-2.6,4.4,39.881,39.881,0,0,0-.8,6.4,14.03,14.03,0,0,0-2.4.4c-.6.7-1.1,2.2-.7,2.5,1,.6,1.8,1,2.2,1.2,0,.7-1.9,9.7-1.5,10a5.471,5.471,0,0,0,3.7-2.1c1.1-1.5,1.1-5.3,1.4-6.6a26.867,26.867,0,0,0,14.1,3.5,5.83,5.83,0,0,0,4.6,4.6,14.629,14.629,0,0,0,11.8-2.6c.6,1.5,1.9,3,5,3,5.7,0,9-3.7,10.2-8.2.1,3.7,2.2,6.9,5.5,7.9C135.7,16184.8,136.3,16184.4,135.9,16183.8Zm-24.4-14.1c.6,1.1-.7,4.2-8.7,6.1C104.3,16169,110.4,16166.9,111.5,16169.7Zm-26.6-9.7c7.5-1.5,13.7-1,13.3,3.2-.1,2.4-7.2,6.8-13.8,7.5C84.4,16169.1,84.9,16161.5,84.9,16160Zm34.5,20.9c-1.4-.1-1.9-2.5.1-6.1,2.6-4.7,6.5-7.1,9.7-7.2C128.4,16174.4,125.2,16181.3,119.4,16180.9Z" transform="translate(10336.329 -11267)" fill="#fff"/>
    <path id="Path_1277" data-name="Path 1277" d="M55.7,16191.3a22.3,22.3,0,1,1,19.5-33,1.289,1.289,0,0,0,1.1.7c.7-.1.7-.8.4-1.4a25.424,25.424,0,1,0,1.6,18.2s.3-1-.6-.8c-.7,0-1,.8-1,.8A21.966,21.966,0,0,1,55.7,16191.3Z" transform="translate(10336.329 -11267)" fill="#fff"/>
    <path id="Path_1278" data-name="Path 1278" d="M49.2,16185.7c-6.9.6-10.2-4.3-12.2-8.9-.3-.6,1.1-1.1,1.8.3,4.3,8.3,13.6,6.4,14,.3.4-5.5-5.5-7.8-13.1-7.8-.1,0-.3,0-.3-.3a11.044,11.044,0,0,1,1.1-3.2c.1-.1.1-.3.4-.3,6.1-.8,9.4-2.9,9-7.2-.4-3.7-6.4-4.7-9.7-.3-.6.8-2.1.8-1.7.1,2.1-4.2,5.1-6.6,9.3-6.8a6.662,6.662,0,0,1,6.9,6.2,9.289,9.289,0,0,1-5.4,8.4c6.2,1.1,9.6,6.4,8.2,11.5C56.1,16183,52.3,16185.6,49.2,16185.7Z" transform="translate(10336.329 -11267)" fill="#fff"/>
  </g>
</svg>
