<svg xmlns="http://www.w3.org/2000/svg" width="165" height="74" viewBox="0 0 165 74">
  <g id="_122" data-name="122" transform="translate(-10024.329 -5605)">
    <rect id="Rectangle_812" data-name="Rectangle 812" width="165" height="74" transform="translate(10024.329 5605)" fill="#369"/>
    <g id="Слой_2_1_" transform="translate(10024.329 -8751)">
      <g id="Layer_1_2_">
        <path id="Path_1750" data-name="Path 1750" d="M92.3,14387.7c1.1-4.5-1.6-8.2-8.3-8.2H69.6l-5.4,22,3.1,5.4H77.6c6.7,0,12-3.1,13.3-8.6.7-2.8-.1-4.8-1.9-5.7v-.1A7.984,7.984,0,0,0,92.3,14387.7Zm-8.8,10.4c-.3,1.1-1,2.3-4.3,2.3H72.6l1.1-4.7h6.5c3.3,0,3.6,1.2,3.3,2.4Zm1.3-10.3c-.2.9-.9,2-3.7,2H75.2l1-3.8h5.9C84.9,14386,85,14386.9,84.8,14387.8Z" fill="#14a0ff"/>
        <path id="Path_1751" data-name="Path 1751" d="M101.4,14396.3h13.2l1.5-6.5H103l1-3.8h13l1.5-6.5H97.2l-6.7,27.3h24.1l1.5-6.4H100.5Z" fill="#14a0ff"/>
        <path id="Path_1752" data-name="Path 1752" d="M120.3,14379.5l-1.5,6.5h7.9l-5.2,20.8h8.3l5.2-20.8h8.4l1.6-6.5Z" fill="#14a0ff"/>
        <path id="Path_1753" data-name="Path 1753" d="M28.6,14406.8H20.3l3.6-14.6.8-2.2-2.2,2.2-2.4,2.5-.1-7.3,8.6-7.9h6.7Z" fill="#fff"/>
        <path id="Path_1754" data-name="Path 1754" d="M58.7,14395.5,56,14391l12.9-11.5h-12l-4.9,4.7h0l-16.6,15.2-8,7.4H38.8l8.5-7.6,2.9,4.9c1,1.2,2.4,2.7,8.2,2.7h6.9l-6.6-11.3Z" fill="#fff"/>
        <path id="Path_1755" data-name="Path 1755" d="M51.1,14382.7h0a7.577,7.577,0,0,0-6.5-3.2H35.7l6.6,11.3Z" fill="#fff"/>
      </g>
    </g>
  </g>
</svg>
