<svg xmlns="http://www.w3.org/2000/svg" xmlns:xlink="http://www.w3.org/1999/xlink" width="165" height="74" viewBox="0 0 165 74">
  <defs>
    <linearGradient id="linear-gradient" x1="0.5" x2="0.5" y2="1" gradientUnits="objectBoundingBox">
      <stop offset="0" stop-color="#a50000"/>
      <stop offset="1" stop-color="#940000"/>
    </linearGradient>
  </defs>
  <g id="_124" data-name="124" transform="translate(-9057.329 -4868)">
    <g id="Group_1897" data-name="Group 1897" transform="translate(9057.329 -1200)">
      <rect id="Rectangle_867" data-name="Rectangle 867" width="165" height="74" transform="translate(0 6068)" fill="url(#linear-gradient)"/>
      <g id="Group_1896" data-name="Group 1896">
        <g id="Group_1895" data-name="Group 1895">
          <g id="Group_1887" data-name="Group 1887">
            <path id="Path_1435" data-name="Path 1435" d="M12.8,6094l-.7,5.3h7L17.3,6116h8.6l1.6-16.7h6.6l.7-5.3Z" fill="#fff"/>
          </g>
          <g id="Group_1888" data-name="Group 1888">
            <path id="Path_1436" data-name="Path 1436" d="M61.3,6094l-.6,5.3h7L65.9,6116h8.6l1.5-16.7h6.7l.7-5.3Z" fill="#fff"/>
          </g>
          <g id="Group_1890" data-name="Group 1890">
            <g id="Group_1889" data-name="Group 1889">
              <path id="Path_1437" data-name="Path 1437" d="M133.5,6093.2c-10.7,0-19.4,5.3-19.4,11.8a9.855,9.855,0,0,0,.2,1.7l21-8.5,3.9,3.6-22.3,9.3.7.7,22.4-9,3.9,3.6-20.8,8.6a30.012,30.012,0,0,0,10.3,1.8c10.7,0,19.4-5.3,19.4-11.8S144.2,6093.2,133.5,6093.2Zm2.6,22.8-3.7-3.9L145,6107l3.9,3.6Z" fill="#fff"/>
            </g>
          </g>
          <g id="Group_1892" data-name="Group 1892">
            <g id="Group_1891" data-name="Group 1891">
              <path id="Path_1438" data-name="Path 1438" d="M49.3,6094H46.8c-5.7,0-10.8,3.5-11.3,8.1l-.6,5.5c-.5,4.6,3.8,8.4,9.5,8.4h2.5c5.7,0,10.8-3.8,11.3-8.4l.6-5.5C59.3,6097.5,55.1,6094,49.3,6094Zm1.2,7.7-.7,6.9c-.1,1.3-1.5,2.3-3.1,2.3h-.8c-1.6,0-2.7-1-2.6-2.3l.7-6.9c.1-1.3,1.5-2.3,3.1-2.3h.8C49.5,6099.4,50.6,6100.4,50.5,6101.7Z" fill="#fff"/>
            </g>
          </g>
          <g id="Group_1894" data-name="Group 1894">
            <g id="Group_1893" data-name="Group 1893">
              <path id="Path_1439" data-name="Path 1439" d="M97.9,6094.1H95.4c-5.7,0-10.8,3.5-11.3,8.1l-.6,5.5c-.5,4.6,3.8,8.4,9.5,8.4h2.5c5.3,0,10.1-3.3,11.1-7.4H98.2c-.1,1.3-1.5,2.3-3.1,2.3h-.8c-1.6,0-2.7-1-2.6-2.3l.1-1h14.8l.6-5.5C107.9,6097.6,103.7,6094.1,97.9,6094.1Zm-5.3,8.2.1-.5c.1-1.3,1.5-2.3,3.1-2.3h.8c1.6,0,2.7,1,2.6,2.3l-.1.5Z" fill="#fff"/>
            </g>
          </g>
        </g>
      </g>
    </g>
  </g>
</svg>
