<svg xmlns="http://www.w3.org/2000/svg" width="165" height="74" viewBox="0 0 165 74">
  <g id="_13" data-name="13" transform="translate(-8737.329 -4868)">
    <g id="Group_1884" data-name="Group 1884" transform="translate(8737.329 1908)">
      <g id="Group_1881" data-name="Group 1881">
        <g id="Group_1880" data-name="Group 1880">
          <g id="Group_1879" data-name="Group 1879">
            <rect id="Rectangle_865" data-name="Rectangle 865" width="165" height="74" transform="translate(0 2960)" fill="#0683bd"/>
          </g>
        </g>
      </g>
      <g id="Group_1882" data-name="Group 1882">
        <path id="Path_1424" data-name="Path 1424" d="M48.9,2992l8.6-2.2-.4-4.7-8.7,2.5Z" opacity="0.1"/>
        <path id="Path_1425" data-name="Path 1425" d="M15,2989.8l4.1,23.1h6.4l5.1-12.9,1.5,12.9h6.7l9.3-20.5-3.5,20.5h9.3l3.6-23.1H42.9l-5,11.6-1.2-11.6H29.9l-4.6,11.6-1.5-11.6Z" fill="#fff"/>
        <path id="Path_1426" data-name="Path 1426" d="M80.9,2996.9l-2.6,16H69.5s1.5-8.7,2.3-12.9-.6-4.9-1.5-4.9-2.8-.1-3.7,3.8l-2.2,14H55.8l3.8-23.1h8l-.6,3.5s1.9-4.2,7.7-4.2C76.5,2989.2,82.2,2990.1,80.9,2996.9Zm24.6,0-2.6,16H94.1s1.5-8.7,2.3-12.9-.6-4.9-1.5-4.9-2.8-.1-3.7,3.8l-2.2,14H80.4l3.8-23.1h8l-.6,3.5s1.9-4.2,7.7-4.2C101.2,2989.2,106.9,2990.1,105.5,2996.9Zm29.3-7.1-4,23.1h8.9l1.7-10.6c1-5.9,7.6-5,7.6-5l1.1-8.1s-5.3-1.3-8.5,5.7l.7-5.1Z" fill="#fff"/>
        <path id="Path_1427" data-name="Path 1427" d="M48.9,2987.3l8.6-2.2-.4-4.7-8.7,2.5Z" fill="#010006"/>
        <path id="Path_1428" data-name="Path 1428" d="M131.1,3003.1a21.926,21.926,0,0,0,.3-3.9c-.4-10.1-11.3-10-11.3-10-10.9,0-13.7,9.2-13.7,13.2,0,9.4,8.1,11.2,11.4,11.2,9.9,0,12.6-7.5,12.6-7.5s-4.7-.8-7.9-1.3a3.935,3.935,0,0,1-4,2.9c-1.7,0-3.6-.6-3.2-4.6Zm-10.9-8.6c1.6,0,3,1.1,2.7,4.2h-7C115.9,2996.1,118.5,2994.5,120.2,2994.5Z" fill="#fff"/>
      </g>
      <g id="Group_1883" data-name="Group 1883">
        <path id="Path_1429" data-name="Path 1429" d="M98.1,2984.5c.1-.5,0-.8-.3-1a9.361,9.361,0,0,0-1.5-.8,7.61,7.61,0,0,1-3-1.6,2.744,2.744,0,0,1-.8-2.3,2.83,2.83,0,0,1,1.5-2.2,6.109,6.109,0,0,1,3-.8,4.48,4.48,0,0,1,3,.9,2.631,2.631,0,0,1,.8,2.6H98.2a1.432,1.432,0,0,0-.3-1.1,1.46,1.46,0,0,0-1.2-.4,1.69,1.69,0,0,0-1,.3c-.3.2-.5.4-.5.7a.807.807,0,0,0,.4.9,7.446,7.446,0,0,0,1.9.8,6.834,6.834,0,0,1,2.7,1.5,2.8,2.8,0,0,1,.7,2.4,2.909,2.909,0,0,1-1.5,2.2,5.938,5.938,0,0,1-3.1.8,5.487,5.487,0,0,1-3.2-.9,2.312,2.312,0,0,1-1-2.6h2.6a1.083,1.083,0,0,0,.5,1.2,2.232,2.232,0,0,0,1.4.3,2.28,2.28,0,0,0,1.1-.3C98.1,2984.9,98,2984.7,98.1,2984.5Z"/>
        <path id="Path_1430" data-name="Path 1430" d="M104.7,2983.4l-.6,3.9h-2.6l1.7-11.4h4.3a4.04,4.04,0,0,1,3,1,2.887,2.887,0,0,1,.8,2.7,3.781,3.781,0,0,1-1.6,2.7,5.953,5.953,0,0,1-3.4,1h-1.6Zm.3-2h1.7a2.168,2.168,0,0,0,1.4-.5,1.425,1.425,0,0,0,.6-1.2,1.517,1.517,0,0,0-.3-1.3,1.346,1.346,0,0,0-1.2-.5h-1.7Z"/>
        <path id="Path_1431" data-name="Path 1431" d="M121.8,2982.6a5.108,5.108,0,0,1-1.9,3.5,5.406,5.406,0,0,1-3.7,1.3,4.223,4.223,0,0,1-3.3-1.4,4.055,4.055,0,0,1-.9-3.4l.3-2a5.667,5.667,0,0,1,1.8-3.5,5.406,5.406,0,0,1,3.7-1.3,3.875,3.875,0,0,1,3.2,1.4,4.418,4.418,0,0,1,.9,3.4Zm-2.3-2a3.158,3.158,0,0,0-.3-2,1.645,1.645,0,0,0-1.5-.8,2.136,2.136,0,0,0-1.7.8,4.106,4.106,0,0,0-.9,2l-.3,2.1a3.038,3.038,0,0,0,.3,2,1.645,1.645,0,0,0,1.5.8,2.289,2.289,0,0,0,1.7-.8,3.373,3.373,0,0,0,.9-2Z"/>
        <path id="Path_1432" data-name="Path 1432" d="M126,2982.9l-.6,4.4h-2.6l1.7-11.4h4a4.48,4.48,0,0,1,3,.9,2.458,2.458,0,0,1,.8,2.5,2.627,2.627,0,0,1-.7,1.5,3.956,3.956,0,0,1-1.5,1,1.945,1.945,0,0,1,1.3,1,3.085,3.085,0,0,1,.2,1.7l-.1.7a3.333,3.333,0,0,0,0,1c.1.4.1.6.3.8v.2H129a.984.984,0,0,1-.3-.8,4.867,4.867,0,0,1,.1-1.2l.1-.7a1.718,1.718,0,0,0-.2-1.3c-.2-.3-.6-.4-1.2-.4H126Zm.3-2h1.3a2.011,2.011,0,0,0,1.3-.4,1.524,1.524,0,0,0,.6-1,1.008,1.008,0,0,0-.3-1.1,1.9,1.9,0,0,0-1.2-.4h-1.3Z"/>
        <path id="Path_1433" data-name="Path 1433" d="M141.9,2978h-3l-1.4,9.3h-2.6l1.4-9.3h-3l.3-2h8.6Z"/>
        <path id="Path_1434" data-name="Path 1434" d="M147.9,2984.5c.1-.5,0-.8-.3-1a9.361,9.361,0,0,0-1.5-.8,7.61,7.61,0,0,1-3-1.6,2.744,2.744,0,0,1-.8-2.3,2.83,2.83,0,0,1,1.5-2.2,6.109,6.109,0,0,1,3-.8,4.48,4.48,0,0,1,3,.9,2.631,2.631,0,0,1,.8,2.6H148a1.432,1.432,0,0,0-.3-1.1,1.46,1.46,0,0,0-1.2-.4,1.69,1.69,0,0,0-1,.3c-.3.2-.5.4-.5.7a.807.807,0,0,0,.4.9,7.446,7.446,0,0,0,1.9.8,6.834,6.834,0,0,1,2.7,1.5,2.8,2.8,0,0,1,.7,2.4,2.909,2.909,0,0,1-1.5,2.2,5.938,5.938,0,0,1-3.1.8,5.487,5.487,0,0,1-3.2-.9,2.312,2.312,0,0,1-1-2.6h2.6a1.083,1.083,0,0,0,.5,1.2,2.232,2.232,0,0,0,1.4.3,2.28,2.28,0,0,0,1.1-.3C147.9,2984.9,147.9,2984.7,147.9,2984.5Z"/>
      </g>
    </g>
  </g>
</svg>
