<svg xmlns="http://www.w3.org/2000/svg" width="165" height="74" viewBox="0 0 165 74">
  <g id="_136" data-name="136" transform="translate(-8083.329 -5608)">
    <rect id="Rectangle_318" data-name="Rectangle 318" width="165" height="74" transform="translate(8083.329 5608)" fill="#323741"/>
    <path id="XMLID_159_" d="M18.8,1221a6.119,6.119,0,0,0,1.2-.5,4.735,4.735,0,0,0,1.3-1.1,3.924,3.924,0,0,0,.8-1.4,4.145,4.145,0,0,0,.3-1.6,5.086,5.086,0,0,0-.4-2.2,4.311,4.311,0,0,0-1.3-1.7,5.118,5.118,0,0,0-2.1-1,13.858,13.858,0,0,0-3-.3h-6v20.4h6.7a8.474,8.474,0,0,0,2.9-.4,6.483,6.483,0,0,0,2.2-1.1,4.887,4.887,0,0,0,1.4-1.8,6.042,6.042,0,0,0,.5-2.4,4.156,4.156,0,0,0-1.3-3.3,5.45,5.45,0,0,0-3.2-1.6m-7.5.8h4.9a7.313,7.313,0,0,1,2.2.3,4.019,4.019,0,0,1,1.6.8,3.777,3.777,0,0,1,1,1.2,4.145,4.145,0,0,1,.3,1.6,3.739,3.739,0,0,1-1.3,3.1,6.244,6.244,0,0,1-3.9,1.1H11.2l.1-8.1Zm6.6-1.7a7.551,7.551,0,0,1-2.3.3H11.4v-8h4.2a6.067,6.067,0,0,1,3.9,1,3.773,3.773,0,0,1,1.2,3,4.013,4.013,0,0,1-.3,1.5,3.806,3.806,0,0,1-.9,1.3,4.172,4.172,0,0,1-1.6.9" transform="translate(8083.329 4424)" fill="#61c8ed"/>
    <path id="XMLID_156_" d="M25.1,1211v20.4H37.5v-1.5H26.9v-8.1h8.8v-1.5H26.9v-7.8H37.5V1211Z" transform="translate(8083.329 4424)" fill="#61c8ed"/>
    <path id="XMLID_155_" d="M40,1211v1.5h7.1v18.9h1.8v-18.9h7V1211Z" transform="translate(8083.329 4424)" fill="#61c8ed"/>
    <path id="XMLID_154_" d="M75,1211.1c-.1.1-.2.2-.2.3L68,1228.1a1.445,1.445,0,0,0-.2.7v.2c0-.1,0-.1-.1-.2a1.854,1.854,0,0,1-.2-.7l-6.9-16.7c-.1-.1-.1-.2-.2-.3a.6.6,0,0,0-.4-.1H58.6l8.4,20.4v.1h1.5l8.4-20.4H75.5c-.3-.1-.4-.1-.5,0" transform="translate(8083.329 4424)" fill="#fff"/>
    <rect id="XMLID_151_" width="1.8" height="20.4" transform="translate(8162.529 5635)" fill="#fff"/>
    <path id="XMLID_150_" d="M99.3,1227.6c-.1,0-.1.1-.2.1a10.6,10.6,0,0,1-1.2,1,5.384,5.384,0,0,1-1.3.7,8.333,8.333,0,0,1-1.5.4,11.486,11.486,0,0,1-1.9.1,7.79,7.79,0,0,1-3.1-.6,7.386,7.386,0,0,1-2.5-1.7,8.751,8.751,0,0,1-1.7-2.8,11.224,11.224,0,0,1-.6-3.8,10.635,10.635,0,0,1,.6-3.7,8.752,8.752,0,0,1,1.7-2.8,8.061,8.061,0,0,1,2.6-1.8,9.527,9.527,0,0,1,5.7-.3,6.691,6.691,0,0,1,1.7.7,4.308,4.308,0,0,1,1,.7,1.33,1.33,0,0,0,.7.3.588.588,0,0,0,.5-.2l.5-.8-.1-.1a9.957,9.957,0,0,0-2.9-1.8,10.6,10.6,0,0,0-3.7-.7,10.191,10.191,0,0,0-4,.8,8.513,8.513,0,0,0-3.1,2.1,9.131,9.131,0,0,0-2,3.3,11.581,11.581,0,0,0-.7,4.2,11.765,11.765,0,0,0,.7,4.3,9.131,9.131,0,0,0,2,3.3,9.038,9.038,0,0,0,3,2.1,10.016,10.016,0,0,0,3.9.7,16.417,16.417,0,0,0,2.3-.2,6.639,6.639,0,0,0,2-.6c.6-.3,1.1-.6,1.6-.9a17.435,17.435,0,0,0,1.4-1.2l.1-.1-.7-.7a1.069,1.069,0,0,0-.8,0" transform="translate(8083.329 4424)" fill="#fff"/>
    <path id="XMLID_147_" d="M102.6,1211v1.5h7.1v18.9h1.8v-18.9h7.1V1211Z" transform="translate(8083.329 4424)" fill="#fff"/>
    <path id="XMLID_144_" d="M135.4,1213.4a9.45,9.45,0,0,0-3.1-2.1,10.187,10.187,0,0,0-4-.7,10.571,10.571,0,0,0-4,.8,9.451,9.451,0,0,0-3.1,2.1,9.131,9.131,0,0,0-2,3.3,13.557,13.557,0,0,0,0,8.6,9.131,9.131,0,0,0,2,3.3,9.451,9.451,0,0,0,3.1,2.1,10.187,10.187,0,0,0,4,.7,12.9,12.9,0,0,0,4-.7,9.451,9.451,0,0,0,3.1-2.1,9.131,9.131,0,0,0,2-3.3,13.557,13.557,0,0,0,0-8.6,10.2,10.2,0,0,0-2-3.4m-7.1,16.5a7.943,7.943,0,0,1-3.2-.6,7.386,7.386,0,0,1-2.5-1.7,8.54,8.54,0,0,1-1.6-2.8,11.044,11.044,0,0,1-.6-3.7,10.635,10.635,0,0,1,.6-3.7,8.542,8.542,0,0,1,1.6-2.8,6.192,6.192,0,0,1,2.5-1.7,8.661,8.661,0,0,1,3.2-.6,7.943,7.943,0,0,1,3.2.6,7.386,7.386,0,0,1,2.5,1.7,8.541,8.541,0,0,1,1.6,2.8,11.044,11.044,0,0,1,.6,3.7,10.248,10.248,0,0,1-.6,3.7,8.541,8.541,0,0,1-1.6,2.8,6.192,6.192,0,0,1-2.5,1.7,7.945,7.945,0,0,1-3.2.6" transform="translate(8083.329 4424)" fill="#fff"/>
    <path id="XMLID_141_" d="M147.8,1222.5c-.1-.1-.2-.3-.3-.4a6.639,6.639,0,0,0,2-.6,7.608,7.608,0,0,0,1.9-1.2,6.57,6.57,0,0,0,1.2-1.7,5.381,5.381,0,0,0,.4-2.2,4.964,4.964,0,0,0-1.8-4.1,8.81,8.81,0,0,0-5.3-1.4h-5.3v20.4h1.8v-9.1h3a.367.367,0,0,1,.3.1.349.349,0,0,1,.2.1c.1.1.1.2.2.3l6.5,8.2c.1.2.2.3.4.3a.75.75,0,0,0,.5.1h1.6Zm-5.5-10.1h3.5a6.385,6.385,0,0,1,4,1,3.615,3.615,0,0,1,1.3,3.1,3.425,3.425,0,0,1-.4,1.8,3.6,3.6,0,0,1-1.1,1.4,5.56,5.56,0,0,1-1.7.9,8.753,8.753,0,0,1-2.4.3h-3.3l.1-8.5Z" transform="translate(8083.329 4424)" fill="#fff"/>
  </g>
</svg>
