<svg xmlns="http://www.w3.org/2000/svg" xmlns:xlink="http://www.w3.org/1999/xlink" width="165" height="74" viewBox="0 0 165 74">
  <defs>
    <clipPath id="clip-_14">
      <rect width="165" height="74"/>
    </clipPath>
  </defs>
  <g id="_14" data-name="14" clip-path="url(#clip-_14)">
    <rect width="165" height="74" fill="#fff"/>
    <g id="_14-2" data-name="14" transform="translate(0.505)">
      <g id="Layer_1" data-name="Layer 1">
        <rect id="Rectangle_1085" data-name="Rectangle 1085" width="164.99" height="74" fill="#fff"/>
        <g id="logo_claim" data-name="logo+claim" transform="translate(9.3 17.506)">
          <path id="Path_1991" data-name="Path 1991" d="M56.466,63.133c-1.888-4.193,1.808-9.2,12.3-13.91.2.5.417.994.616,1.391-5.325,2.424-8.306,6.816-7.313,9.419,1.987,5.206,18.2,5.961,41.193,1.709a265.222,265.222,0,0,0,34-9h28.594a232.869,232.869,0,0,1-49.678,14.486c-32.112,5.8-56.1,3.815-59.713-4.093" transform="translate(-23.679 -30.147)" fill="#a1cb54"/>
          <path id="Path_1992" data-name="Path 1992" d="M86.629,59.865a1.788,1.788,0,0,0-1.61,1.311,1.113,1.113,0,0,0,1.113,1.292,1.808,1.808,0,0,0,1.59-1.292,1.113,1.113,0,0,0-1.093-1.311" transform="translate(-31.129 -32.88)" fill="#04517f"/>
          <path id="Path_1993" data-name="Path 1993" d="M97.126,54.174a4.312,4.312,0,0,0-3.1-.894c-2.106,0-3.2.7-3.4,2.285l-.517,2.7c-.3,1.808.517,2.5,2.7,2.5a4.809,4.809,0,0,0,3.3-.994l.4-2.305H93.926l-.1.7c0,.6-.318.914-.715.914s-.4-.318-.3-.914l.5-2.6a.715.715,0,0,1,.616-.795c.3,0,.4.3.4.7v.517h2.6Z" transform="translate(-32.425 -31.183)" fill="#04517f"/>
          <path id="Path_1994" data-name="Path 1994" d="M102.867,55.871c.1-.7.3-.894.7-.894s.5.2.4.894l-.4,2.4c0,.6-.3.914-.7.914s-.5-.318-.4-.914Zm3.7,0c.4-1.987-.4-2.583-3-2.583-2.206,0-3.2.7-3.5,2.583l-.4,2.206c-.4,2.106.3,2.8,2.9,2.8,2.285,0,3.3-.7,3.6-2.8Z" transform="translate(-34.868 -31.191)" fill="#04517f"/>
          <path id="Path_1995" data-name="Path 1995" d="M112.742,53.334h-2.6l-1.292,7.293h2.7l.894-5.306a.6.6,0,0,1,.4-.1c.4,0,.6.3.4,1.013l-.3,1.888a12.1,12.1,0,0,0-.3,2.4h2.6l.894-5.306a.6.6,0,0,1,.4-.1c.4,0,.6.3.4,1.013l-.3,1.888a12.1,12.1,0,0,0-.3,2.4h2.6l.994-5.5a1.546,1.546,0,0,0-1.689-1.987,3.636,3.636,0,0,0-2.206.7,1.57,1.57,0,0,0-1.49-.7,3.6,3.6,0,0,0-1.987.5Z" transform="translate(-37.252 -31.098)" fill="#04517f"/>
          <path id="Path_1996" data-name="Path 1996" d="M39.958,36.237v-.7c.2-.994.7-1.51,1.411-1.51s.994.517.795,1.61a3.974,3.974,0,0,1-.2.7H39.958Zm7.094,4.292H41.468l-.119.417v.2c-.2,1.093-.6,1.689-1.391,1.689s-.994-.6-.894-1.391l.1-.6.2-1.212h7.789l.715-3.8c.7-3.8-1.013-5.306-5.961-5.306s-6.915,1.411-7.611,5.5L33.5,40.748c-.7,3.974.795,5.484,5.6,5.484A12.141,12.141,0,0,0,46.4,44.245Z" transform="translate(-17.861 -25.348)" fill="#04517f"/>
          <path id="Path_1997" data-name="Path 1997" d="M83,41.563a2.9,2.9,0,0,1-1.49.6c-.5,0-.7-.4-.6-.994s.6-1.113,2.5-1.709Zm-6.4-5.6h5.306a.755.755,0,0,0,.1-.4c.2-1.192.5-1.61,1.292-1.61s1.013.517.815,1.51a3.517,3.517,0,0,0,0,.6L80,37.251c-3.16.934-4.59,2.325-4.988,4.63a3.318,3.318,0,0,0,3.6,4.392,6.557,6.557,0,0,0,4.193-1.49l-.2,1.093h5.4l1.808-9.936c.4-2.4.2-3.5-.815-4.392a6.6,6.6,0,0,0-4.491-1.212,11.923,11.923,0,0,0-7.094,1.987Z" transform="translate(-28.514 -25.289)" fill="#04517f"/>
          <path id="Path_1998" data-name="Path 1998" d="M196.411,36.237c0-.3.1-.5.1-.7.2-.994.7-1.51,1.411-1.51s.994.517.795,1.61a3.975,3.975,0,0,1-.2.7h-2.106Zm7.094,4.292h-5.584v.616c-.2,1.093-.616,1.689-1.411,1.689s-.994-.6-.894-1.391v-.6l.159-1.212h7.789l.715-3.8c.7-3.8-1.013-5.306-5.961-5.306s-6.9,1.411-7.611,5.5l-.795,4.709c-.7,3.974.795,5.484,5.6,5.484a12.1,12.1,0,0,0,7.293-1.987Z" transform="translate(-58.028 -25.348)" fill="#04517f"/>
          <path id="Path_1999" data-name="Path 1999" d="M19.806,33.153a2.4,2.4,0,0,1,1.113-.2c.7,0,.994.5.894,1.292L21.1,38.439v.815a1.629,1.629,0,0,1-1.61,1.391.835.835,0,0,1-.7-.2Zm1.709-9.6h-5.7l-3.3,18.9a9.936,9.936,0,0,0,6.995,2.086c4.213,0,6.5-1.59,7.094-5.087l1.113-6.2c.5-2.8-.894-4.411-3.974-4.411a6.259,6.259,0,0,0-3.3.815Z" transform="translate(-12.513 -23.556)" fill="#04517f"/>
          <path id="Path_2000" data-name="Path 2000" d="M62.573,24.759l-5.961,1.59-.517,3H55.2l-.6,3.4H55.5l-1.331,7.392c-.6,3.4.4,4.59,3.974,4.59a13.433,13.433,0,0,0,2.8-.3l.6-3.5c-1.59-.2-1.788-.5-1.49-2.106l1.093-6.1h1.987l.6-3.4H61.738Z" transform="translate(-23.169 -23.865)" fill="#04517f"/>
          <path id="Path_2001" data-name="Path 2001" d="M126.489,23.556h-5.7l-3.6,20.686h5.6l1.987-11.088a1.51,1.51,0,0,1,.914-.2c.894,0,1.192.6.894,2.086l-.7,3.974a40.8,40.8,0,0,0-.616,5.087h5.4l1.987-11.386c.5-2.6-.795-3.974-3.5-3.974a6.736,6.736,0,0,0-3.815,1.013Z" transform="translate(-39.394 -23.556)" fill="#04517f"/>
          <path id="Path_2002" data-name="Path 2002" d="M145.321,35.9c.3-1.49.6-1.987,1.391-1.987s1.013.517.715,1.987l-.914,5.008c-.2,1.292-.6,1.888-1.391,1.888s-.994-.5-.795-1.888Zm7.948,0c.7-4.193-.715-5.5-6.2-5.5-4.709,0-6.617,1.51-7.313,5.5l-.795,4.491c-.795,4.511.6,5.8,5.961,5.8,4.888,0,6.8-1.49,7.591-5.8Z" transform="translate(-44.932 -25.313)" fill="#04517f"/>
          <path id="Path_2003" data-name="Path 2003" d="M166,30.74h-5.5l-2.742,15.2h5.7l1.987-11.088a2.365,2.365,0,0,1,.894-.2c.914,0,1.212.6.914,2.086l-.715,3.974a40.239,40.239,0,0,0-.6,5.087h5.4l1.987-11.088a2.583,2.583,0,0,1,.914-.2c.894,0,1.192.6.894,1.987l-.7,3.974a40.242,40.242,0,0,0-.6,5.087h5.385l1.987-11.386c.5-2.6-.795-3.974-3.5-3.974a8.743,8.743,0,0,0-4.61,1.411,3.358,3.358,0,0,0-3.2-1.411,7.591,7.591,0,0,0-4.093,1.113Z" transform="translate(-49.81 -25.255)" fill="#04517f"/>
          <path id="Path_2004" data-name="Path 2004" d="M104.564,24.759,98.6,26.348l-.517,3h-.894l-.6,3.4h.894L96.2,40.139c-.6,3.4.4,4.59,3.974,4.59a13.433,13.433,0,0,0,2.8-.3l.6-3.5c-1.59-.2-1.788-.5-1.49-2.106l1.093-6.1h1.987l.6-3.4h-1.987Z" transform="translate(-33.962 -23.865)" fill="#04517f"/>
          <path id="Path_2005" data-name="Path 2005" d="M72.463,41.732l.795-4.193h-6.8l-.795,4.193Z" transform="translate(-26.163 -27.147)" fill="#04517f"/>
          <path id="Path_2006" data-name="Path 2006" d="M114.3,41.732l.795-4.193h-6.8l-.815,4.193Z" transform="translate(-36.902 -27.147)" fill="#04517f"/>
        </g>
      </g>
    </g>
  </g>
</svg>
