<svg xmlns="http://www.w3.org/2000/svg" width="820" height="303" viewBox="0 0 820 303">
  <g id="Group_725" data-name="Group 725" transform="translate(409 -10418)">
    <rect id="Rectangle_140" data-name="Rectangle 140" width="820" height="303" transform="translate(-409 10418)" fill="#3aaa35"/>
    <path id="Path_7681" data-name="Path 7681" d="M28.927,40.21a27.489,27.489,0,0,1,4.8-.872c11.327-.076,22.657.118,33.979-.125,4.011-.086,5.116,1.227,5.1,5.148q-.206,46.972-.05,93.948c.042,14.827,14.5,24.243,27.508,17.986,8.107-3.9,11.321-10.747,11.307-19.511q-.077-45.225-.018-90.45c0-7.033,0-7.034,6.994-7.035,10.494,0,20.993.185,31.48-.093,4.1-.108,5.012,1.325,5,5.169-.136,31.815.065,63.632-.118,95.447s-25.821,59.311-57,61.519c-33.773,2.392-62.745-19.941-67.959-52.357a35.183,35.183,0,0,0-1.02-3.748Q28.926,92.721,28.927,40.21Z" transform="translate(-427.927 10388.817)"/>
    <path id="Path_7682" data-name="Path 7682" d="M227.067,107.664v25.8c0,19.5-.126,39.007.089,58.507.053,4.836-1.542,6.477-6.358,6.347-10.327-.279-20.669-.21-31-.025-4.185.075-5.564-1.666-5.559-5.656q.093-73.761-.01-147.521c-.007-4.273,1.536-5.944,5.888-5.887,13.333.176,26.673.232,40-.035,4.191-.084,6.222,1.379,7.829,5.174,10.581,24.982,21.386,49.87,33.225,74.813v-4.9q0-34.255.005-68.51c0-6.088.393-6.461,6.592-6.471,10-.016,20.005.111,30-.06,4.051-.069,5.644,1.377,5.637,5.524q-.126,74.01,0,148.021c.007,4.136-1.509,5.575-5.6,5.512-11.666-.179-23.338-.2-35,.019-3.809.073-5.583-1.42-7.045-4.792-12.055-27.8-24.284-55.52-36.465-83.263-.4-.9-.834-1.784-1.252-2.676Z" transform="translate(-427.927 10388.817)"/>
    <path id="Path_7683" data-name="Path 7683" d="M526.292,112.277c8.594,7.328,14.483,16.144,16.995,27.086,6.718,29.266-14.991,58.042-44.979,58.655-25.986.531-51.991.09-77.987.182-3.824.013-5.329-1.39-5.323-5.3q.117-73.99,0-147.98c-.007-4.045,1.4-5.688,5.527-5.671,25.995.107,52-.336,77.983.219,17.136.366,29.929,9.023,36.979,24.654,6.942,15.39,4.842,30.214-5.464,43.729-.6.793-1.3,1.517-1.946,2.28C527.558,110.742,527.05,111.364,526.292,112.277ZM457.1,160.144c11.2,0,21.847.328,32.468-.1,8.394-.342,14.8-7.509,15.17-15.832.348-7.864-5.675-16.1-13.639-16.6-11.219-.717-22.518-.181-34-.181C457.1,138.412,457.1,149,457.1,160.144Zm.034-66.55c11.29,0,22.083.276,32.851-.111,5.817-.209,10.025-5.53,9.927-11.185-.094-5.435-4.285-10.688-9.77-10.874-10.909-.371-21.839-.11-33.008-.11C457.136,78.872,457.136,85.957,457.136,93.594Z" transform="translate(-427.927 10388.817)"/>
    <path id="Path_7684" data-name="Path 7684" d="M609.755,75.386v23.2c11.427,0,22.563,0,33.7,0,7.066,0,7.29.231,7.3,7.318.006,7.667-.155,15.339.06,23,.123,4.384-1.649,5.877-5.923,5.792-9.83-.2-19.668-.061-29.5-.061h-5.7v27.492c1.913,0,3.684,0,5.456,0q31,.039,62.005.083c6.3.012,6.608.308,6.626,6.382.023,7.834-.159,15.673.07,23.5.13,4.42-1.244,6.247-5.972,6.224q-52.754-.261-105.509-.1c-4.02.008-5.618-1.251-5.607-5.47q.2-74.007.09-148.014c-.006-4.224,1.67-5.492,5.657-5.479q50.754.162,101.51.068c4.04-.007,5.735,1.455,5.643,5.584-.179,8-.031,16-.057,24-.02,6.16-.41,6.57-6.484,6.567q-28.752-.014-57.505-.084C613.8,75.383,611.994,75.386,609.755,75.386Z" transform="translate(-427.927 10388.817)"/>
    <path id="Path_7685" data-name="Path 7685" d="M787.9,75.314c0,18.633.014,36.605,0,54.576q-.03,30.979-.11,61.96c-.016,5.973-.46,6.383-6.683,6.381q-15.491-.006-30.98-.075c-6.074-.02-6.544-.446-6.532-6.535q.114-54.963.274-109.926c.005-1.954,0-3.908,0-6.525-11.311,0-22.084,0-32.856,0-7.827,0-7.813,0-7.792-7.734.019-7.495.13-14.994-.046-22.485-.094-4.007,1.329-5.719,5.5-5.7q57.462.249,114.925.263c3.687,0,5.529,1.167,5.433,5.209-.2,8.324-.234,16.66-.005,24.981.124,4.491-1.8,5.742-5.989,5.674C811.575,75.192,800.112,75.314,787.9,75.314Z" transform="translate(-427.927 10388.817)"/>
    <path id="Path_7686" data-name="Path 7686" d="M342.854,118.731q0-36.487.006-72.976c0-6.112.355-6.451,6.6-6.452,10,0,20,.2,29.988-.012,4.45-.093,6.24,1.3,6.229,5.981q-.176,73.475,0,146.95c.011,4.637-1.686,6.12-6.189,6.008q-15.486-.386-30.986-.076c-4.455.085-5.734-1.723-5.711-5.949C342.921,167.715,342.854,143.223,342.854,118.731Z" transform="translate(-427.927 10388.817)"/>
    <circle id="Ellipse_33" data-name="Ellipse 33" cx="40.5" cy="40.5" r="40.5" transform="translate(172.774 10630.117)" fill="#fff"/>
    <circle id="Ellipse_34" data-name="Ellipse 34" cx="40.5" cy="40.5" r="40.5" transform="translate(88.04 10630.117)" fill="#fff" opacity="0.9"/>
    <circle id="Ellipse_35" data-name="Ellipse 35" cx="40.5" cy="40.5" r="40.5" transform="translate(3.307 10630.117)" fill="#fff" opacity="0.8"/>
    <circle id="Ellipse_36" data-name="Ellipse 36" cx="40.5" cy="40.5" r="40.5" transform="translate(-81.426 10630.117)" fill="#fff" opacity="0.7"/>
    <circle id="Ellipse_37" data-name="Ellipse 37" cx="40.5" cy="40.5" r="40.5" transform="translate(-166.16 10630.117)" fill="#fff" opacity="0.6"/>
    <circle id="Ellipse_38" data-name="Ellipse 38" cx="40.5" cy="40.5" r="40.5" transform="translate(-250.893 10630.117)" fill="#fff" opacity="0.5"/>
  </g>
</svg>
