<svg xmlns="http://www.w3.org/2000/svg" width="165" height="74" viewBox="0 0 165 74">
  <g id="_142" data-name="142" transform="translate(-8083.329 -4868)">
    <rect id="Rectangle_305" data-name="Rectangle 305" width="165" height="74" transform="translate(8083.329 4868)" fill="#21a9ef"/>
    <rect id="Rectangle_306" data-name="Rectangle 306" width="146.2" height="41.6" transform="translate(8092.729 4884.2)" fill="none"/>
    <path id="Path_185" data-name="Path 185" d="M151.2,476.3l.9-5.1-9.8,2.9-.3,2.1h-1.8l-.2.9a7.185,7.185,0,0,0-4.4-1.2c-3.6,0-5.9,1.1-7.5,2.7a5.008,5.008,0,0,0-4.7-2.7,4.868,4.868,0,0,0-1.2.1l1.1-4.7h-9.4l-1,4.9H106a4.145,4.145,0,0,0-1.6-.3,7.86,7.86,0,0,0-6.1,2.3,1.794,1.794,0,0,0-.5-.7,4.475,4.475,0,0,0-3.5-1.6,8.306,8.306,0,0,0-2.7.3H85.1l1-4.9h-9l.1-.3-9.9,3.1L67,476h-.3c-.3,0-.6-.1-.9-.1a5.823,5.823,0,0,0-1.9.3H55.6l-.4,1.8c-1.3-1.4-3.4-2.1-6-2.1-3.9,0-6.4,1.2-8,2.8a4.834,4.834,0,0,0-4.5-2.8,6.649,6.649,0,0,0-2.1.3H26.2v.2l-.5-.1a30.886,30.886,0,0,0-4-.4c-8.7,0-9.1,5.3-9.1,6.3v.4h0l-1.2,7.2,1.3.6a15.222,15.222,0,0,0,5.5.8,10.288,10.288,0,0,0,5-1.1L22,495.4h9.3l.9-4.4a4.529,4.529,0,0,0,1.6.3,7.517,7.517,0,0,0,5.9-2.7,1.38,1.38,0,0,0,.3.4,6.6,6.6,0,0,0,5.3,2.3c1.8,0,4.7,0,7.2-1.6l-.3,1.4h9.4l.9-4.8c.5-2.2,1.4-2.2,1.7-2.2a1.213,1.213,0,0,1,.5.1l.4.2-.1.5v.1a5.5,5.5,0,0,0,.8,4.7,5.433,5.433,0,0,0,4.4,1.7,14.041,14.041,0,0,0,2.3-.2H94.6l-.7,3.1,1.2.7c.4.2,1.9.9,5.8.9,5.2,0,8.2-1.4,9.9-4.7h7.5v-.1a5.917,5.917,0,0,0,2,.4,7.352,7.352,0,0,0,5.7-2.8l.1.1q1.95,2.7,6.6,2.7a23.1,23.1,0,0,0,5.6-.7l1.1-.3.4-2.1a4.171,4.171,0,0,0,.9,1.6,4.678,4.678,0,0,0,3.8,1.6,11.137,11.137,0,0,0,5.1-1l.8-.4,1.3-6.7h.1l1.5-7.1-2.1-.1Zm-1.4,8.7.1-.4h.9Z" transform="translate(8083.329 4424)" opacity="0.1"/>
    <path id="Path_186" data-name="Path 186" d="M151.2,473.3l.9-5.1-9.8,2.9-.3,2.1h-1.8l-.2.9a7.185,7.185,0,0,0-4.4-1.2c-3.6,0-5.9,1.1-7.5,2.7a5.008,5.008,0,0,0-4.7-2.7,4.868,4.868,0,0,0-1.2.1l1.1-4.7h-9.4l-1,4.9H106a4.145,4.145,0,0,0-1.6-.3,7.86,7.86,0,0,0-6.1,2.3,1.794,1.794,0,0,0-.5-.7,4.475,4.475,0,0,0-3.5-1.6,8.306,8.306,0,0,0-2.7.3H85.1l1-4.9h-9l-9.9,2.8-.3,1.9h-.3c-.3,0-.6-.1-.9-.1a5.823,5.823,0,0,0-1.9.3H55.5l-.4,1.8c-1.3-1.4-3.4-2.1-6-2.1-3.9,0-6.4,1.2-8,2.8a4.834,4.834,0,0,0-4.5-2.8,6.649,6.649,0,0,0-2.1.3H26.1v.2l-.5-.1a30.886,30.886,0,0,0-4-.4c-8.7,0-9.1,5.3-9.1,6.3v.4h0l-1.2,7.2,1.3.6a15.222,15.222,0,0,0,5.5.8,10.288,10.288,0,0,0,5-1.1l-1.2,5.3h9.3l.9-4.4a4.529,4.529,0,0,0,1.6.3,7.517,7.517,0,0,0,5.9-2.7c.1.1.2.3.3.4a6.6,6.6,0,0,0,5.3,2.3c1.8,0,4.7,0,7.2-1.6l-.3,1.4h9.4l.9-4.8c.5-2.2,1.4-2.2,1.7-2.2a1.213,1.213,0,0,1,.5.1l.4.2-.1.5v.1a5.5,5.5,0,0,0,.8,4.7,5.433,5.433,0,0,0,4.4,1.7,14.041,14.041,0,0,0,2.3-.2H94.5l-.7,3.1,1.2.7c.4.2,1.9.9,5.8.9,5.2,0,8.2-1.4,9.9-4.7h7.5v-.1a5.917,5.917,0,0,0,2,.4,7.352,7.352,0,0,0,5.7-2.8l.1.1q1.95,2.7,6.6,2.7a23.1,23.1,0,0,0,5.6-.7l1.1-.3.4-2.1a4.171,4.171,0,0,0,.9,1.6,4.678,4.678,0,0,0,3.8,1.6,11.137,11.137,0,0,0,5.1-1l.8-.4,2.9-13.8-2-.1Z" transform="translate(8083.329 4424)" fill="#fdfdfd"/>
    <path id="Path_187" data-name="Path 187" d="M25.3,475.3l-.7,3a7.236,7.236,0,0,0-4.6-.5c-.9.4-.9,1.1.2,1.3,1.1.1,4.6.4,4.6,2.7,0,1.3-1.1,4.7-6.6,4.7a11.53,11.53,0,0,1-4.7-.7l.5-3a6.2,6.2,0,0,0,3.7,1c2.1,0,2.2-.6,2.2-.9,0-.7-1.4-.7-1.4-.7-3.1-.3-4.1-1.5-4.1-2.9,0-1.5,1-4.4,7.2-4.4A24.127,24.127,0,0,1,25.3,475.3Zm11.4-.4a4.972,4.972,0,0,0-4.5,2.4l.5-2.1H27.8l-3.3,15.5h5.3l1.2-5.8a3.5,3.5,0,0,0,2.9,1.6c4.5,0,6.2-4.2,6.2-7.2C40,476.8,39,474.9,36.7,474.9Zm-2.3,6c-.3,1.4-1.1,2.4-1.9,2.4s-1.2-1.1-.9-2.4c.3-1.4,1.1-2.4,1.9-2.4C34.3,478.4,34.7,479.5,34.4,480.9Zm14.7-6c-7.8,0-8.3,5.5-8.3,5.5-.8,3.9,1.4,6.1,4.6,6.1s7.3-.2,8.9-5.2S52.5,474.9,49.1,474.9Zm-.2,5.8c-.3,1.5-1.1,2.7-1.8,2.7s-1.1-1.2-.8-2.6c.3-1.5,1.1-2.7,1.8-2.7C48.9,478.1,49.2,479.2,48.9,480.7Zm8.2-5.5h5l-.5,2.5c1.5-2.1,3.1-3.1,4.9-2.8-.5,2.7-.9,4.6-.9,4.6s-3.8-1.5-4.9,3.5l-.6,3.2H54.7Zm9,3.1H68l-.9,4.1c-.5,2.4.1,4.1,3.4,4.1a8.711,8.711,0,0,0,3.6-.7l.7-3.1a1.752,1.752,0,0,1-1.2.4c-.8,0-1.3-.6-.9-2l.6-2.8h2.4l.7-3.1H73.9l.9-4.3-5.7,1.8-.5,2.5H66.7Z" transform="translate(8083.329 4424)" fill="#070b62"/>
    <path id="Path_188" data-name="Path 188" d="M77.5,475.2,75,486.3h5.4l2.4-11.1Z" transform="translate(8083.329 4424)" fill="#070b62"/>
    <path id="Path_189" data-name="Path 189" d="M77.8,474h5.3l.8-3.7H78.6Z" transform="translate(8083.329 4424)" fill="#070b62"/>
    <path id="Path_190" data-name="Path 190" d="M91,481.2l-1.1,5h5.3s1.2-5.6,1.7-7.8-.7-3.6-2.4-3.6-3,0-4.9,2.3l.4-2H85l-2.3,11.1h5.2l1.2-5.7c.5-2.4,1.1-2.4,1.7-2.3C91.4,478.4,91.4,479.4,91,481.2Zm16.3-6a4.6,4.6,0,0,1-.5,2.5,2.546,2.546,0,0,0-2.4-2.8c-2.9,0-5.1.8-6.6,5.4-1.1,4.4,1.2,6,3.1,6a5.514,5.514,0,0,0,4.3-1.8,3.9,3.9,0,0,1-4.1,3.5,5.788,5.788,0,0,1-4-1.2l-.8,3.6s1.1.6,4.9.6c6.4,0,8.1-2.3,9-6l2.2-9.9Zm-1,5.4c-.3,1.3-1.2,2.4-2,2.4s-1.2-1-1-2.3c.3-1.3,1.2-2.4,2-2.4S106.5,479.3,106.3,480.6Z" transform="translate(8083.329 4424)" fill="#070b62"/>
    <path id="Path_191" data-name="Path 191" d="M123.4,475c-1.7,0-2.4.3-4,1.7l1.5-6.3h-5.4l-3.4,16H117s.3-1.6.4-2.2a3.42,3.42,0,0,0,3.2,2.4c3.6,0,6.2-3.9,6.2-7.3C126.9,475.8,125.1,475,123.4,475Zm-2.4,6.6c-.6,1.2-1.6,1.8-2.2,1.3-.7-.5-.7-1.9-.1-3.2.6-1.2,1.6-1.8,2.2-1.3A2.992,2.992,0,0,1,121,481.6Zm23.1-8.9,5.7-1.7-.8,4.2h2.4l-.7,3.2h-2.3l-.8,3.4c-.2,1.2.8,1.6,2.1,1.1l-.6,3a9.08,9.08,0,0,1-4.2.8c-2.7,0-3.1-2-2.8-4l.9-4.3h-1.9l.8-3.1h1.9Zm-8.5,2.2c-2.4,0-6.7.4-8,5.8-.6,1.8-.5,5.8,5.6,5.8a21.442,21.442,0,0,0,5.1-.6l.5-2.7a8.3,8.3,0,0,1-3.6.7c-2.1,0-2.7-.9-2.7-2H140c.5-3.7.6-7-4.4-7Zm.3,4.8h-3.1c.4-1.5,1.3-2.2,2.1-2.2.1,0,1.3-.1,1,2.2Z" transform="translate(8083.329 4424)" fill="#d1111c"/>
  </g>
</svg>
