<svg xmlns="http://www.w3.org/2000/svg" width="165" height="74" viewBox="0 0 165 74">
  <g id="_145" data-name="145" transform="translate(-9057.329 -4720)">
    <g id="Group_1886" data-name="Group 1886" transform="translate(9057.329 -1200)">
      <g id="Group_1885" data-name="Group 1885">
        <rect id="Rectangle_866" data-name="Rectangle 866" width="165" height="74" transform="translate(0 5920)"/>
      </g>
      <g id="g11_2_" transform="translate(-534.155 110.698)">
        <path id="path35_2_" d="M638.25,5839l-7.125,28.75h11.5l7.375-30L638.25,5839" fill="#fff"/>
        <path id="path37_2_" d="M676.125,5837.75c-3.375-.375-8.75.75-11.375,2.75a9.836,9.836,0,0,0-.5-2.875l-10.125,1.25c.375,2.875,0,6-1,10.25l-4.5,18.75h11.5l4.75-19.125a6.128,6.128,0,0,1,4.5-2.75c1.875,0,2.375,1.375,1.75,3.75l-4.375,18.125h11.5l4.875-19.75c1-5.376-.75-9.751-7-10.376" fill="#fff"/>
        <path id="path39_2_" d="M651.875,5829.625A5.884,5.884,0,0,0,645.75,5824c-3.5,0-6.375,2.5-6.375,5.625s2.875,5.625,6.25,5.625,6.25-2.5,6.25-5.625" fill="#ffcb04"/>
        <path id="path47_2_" d="M624.25,5838.125l-3.625,8.375c-1.375,3.125-2.5,6.125-3.5,9L617,5838H606.625L598,5855.625l.875-18L587.5,5839l2.25,28.625h10.125s7.625-15.5,8.375-17.25l.125,17.25H618.75L635.875,5838H624.25" fill="#fff"/>
        <path id="path49_2_" d="M575.125,5837.375a13.023,13.023,0,0,0-6.5,1.5,53.838,53.838,0,0,0,2.25-11.25h0A19.355,19.355,0,0,0,571,5825l-12,1.5c.125,1.875-.125,5-1.75,11.5l-5.75,24a13.432,13.432,0,0,1-1.5,4.125,41.548,41.548,0,0,0,14.625,2.25,18.294,18.294,0,0,0,9.75-2.5c5.25-3,8.5-8.5,9.75-13.875C586.75,5842.25,582.625,5837.375,575.125,5837.375Zm-3,15.375c-1.375,5.5-3,8-6,8a4.248,4.248,0,0,1-2.75-.75l3.125-13.125a5.017,5.017,0,0,1,3.375-1.5c2.75,0,3.625,1.5,2.25,7.375" fill="#fff"/>
      </g>
    </g>
  </g>
</svg>
