<svg xmlns="http://www.w3.org/2000/svg" xmlns:xlink="http://www.w3.org/1999/xlink" width="165" height="74" viewBox="0 0 165 74">
  <defs>
    <linearGradient id="linear-gradient" x1="0.145" y1="-0.214" x2="0.858" y2="0.835" gradientUnits="objectBoundingBox">
      <stop offset="0" stop-color="#ffeb8d"/>
      <stop offset="0.263" stop-color="#ffdb33"/>
      <stop offset="0.624" stop-color="#ffc100"/>
    </linearGradient>
  </defs>
  <g id="_147" data-name="147" transform="translate(-8414.329 -6360)">
    <rect id="Rectangle_763" data-name="Rectangle 763" width="165" height="74" transform="translate(8414.329 6360)" fill="#fff"/>
    <path id="Path_862" data-name="Path 862" d="M31,5076.8v-43.2H134s-29.6,15.6-26.2,70A311.171,311.171,0,0,0,31,5076.8Z" transform="translate(8414.329 1328)" fill="url(#linear-gradient)"/>
    <path id="Path_863" data-name="Path 863" d="M122.9,5037.6a57.251,57.251,0,0,0-6.6,8.4c-6.2,9.5-13.1,25.8-12.8,51.1a325.122,325.122,0,0,0-68.6-23.6v-35.9h88m11.1-4H31v43.2a315.892,315.892,0,0,1,76.9,26.8c-3.4-54.4,26.1-70,26.1-70Z" transform="translate(8414.329 1328)"/>
    <path id="Path_865" data-name="Path 865" d="M66.1,5064.5a4.953,4.953,0,0,0-2.7-.7,6.048,6.048,0,0,0-3.5.8,4.362,4.362,0,0,0-1.6,1.7,10.79,10.79,0,0,0-1.1,3.6,3.843,3.843,0,0,0,.5,2.6,3.262,3.262,0,0,0,2.3,1.2,7.755,7.755,0,0,0,4-.4,4.036,4.036,0,0,0,2.4-2.7h-3a2.728,2.728,0,0,1-.6,1.2,1.9,1.9,0,0,1-1.9.5,1.174,1.174,0,0,1-.9-1,8.205,8.205,0,0,1,.2-2.2h6.5a6.657,6.657,0,0,0,.2-2.8A1.615,1.615,0,0,0,66.1,5064.5Zm-1.9,3.2H60.9a4.723,4.723,0,0,1,1-2,1.918,1.918,0,0,1,1.8-.4,1.143,1.143,0,0,1,.7.8A4.678,4.678,0,0,1,64.2,5067.7Z" transform="translate(8414.329 1328)"/>
    <path id="Path_866" data-name="Path 866" d="M54.7,5064c-.5.9-.8,1.8-1.3,2.7-.6,1.4-1.3,2.8-1.9,4.2a3.4,3.4,0,0,0,.1-1c.1-1.9,0-3.9.1-5.8H49.1c-.4.7-.7,1.5-1.1,2.2-.8,1.5-1.5,3.1-2.3,4.6.1-1.3.1-2.6.2-3.9,0-1,.1-1.9.1-2.9H43v9.5h3.4c1-2,2.1-3.9,3-5.9-.1,2,0,3.9-.1,5.9h3.4c1.6-3.2,3.2-6.3,4.8-9.5A25.925,25.925,0,0,0,54.7,5064Z" transform="translate(8414.329 1328)"/>
    <path id="Path_867" data-name="Path 867" d="M47.7,5052a1.945,1.945,0,0,1,1.5-1.4,1.086,1.086,0,0,1,.9.4,1.657,1.657,0,0,1,0,1.2c-.5,2.2-1.1,4.3-1.7,6.5h3.1c.6-2.2,1.1-4.3,1.7-6.5a2.871,2.871,0,0,0-.2-2.4,2.242,2.242,0,0,0-2.2-.7,5.509,5.509,0,0,0-2.7,1.2c.1-.4.2-.7.3-1.1H45.3c-.8,3-1.5,5.9-2.3,8.9a1.269,1.269,0,0,0-.1.6H46C46.5,5056.4,47.1,5054.2,47.7,5052Z" transform="translate(8414.329 1328)"/>
    <path id="Path_868" data-name="Path 868" d="M56.5,5058.8a8.825,8.825,0,0,0,2.8-.2c.1-.5.3-1.1.4-1.6a2.876,2.876,0,0,1-1.3.1c-.3-.1-.4-.3-.5-.6a5.025,5.025,0,0,1,.2-1.2c.4-1.6.8-3.1,1.2-4.7h1.6c.1-.4.2-.9.3-1.3H59.6l.6-2.4c-1.1.4-2.2.7-3.3,1.1-.2.4-.2.9-.4,1.3H55.2c-.1.4-.2.9-.3,1.3h1.2c-.4,1.8-.9,3.6-1.4,5.4a4.067,4.067,0,0,0,0,1.9A3.1,3.1,0,0,0,56.5,5058.8Z" transform="translate(8414.329 1328)"/>
    <path id="Path_869" data-name="Path 869" d="M74.8,5058.7c.4-1.6.8-3.3,1.2-4.9a3.379,3.379,0,0,1,1.3-2.2,2.128,2.128,0,0,1,2.3,0c.2-.8.5-1.6.7-2.4a2.126,2.126,0,0,0-1.9.1,4.362,4.362,0,0,0-1.6,1.7,12.072,12.072,0,0,1,.5-1.8H74.2c-.8,3.2-1.6,6.3-2.4,9.5Z" transform="translate(8414.329 1328)"/>
    <path id="Path_870" data-name="Path 870" d="M39.9,5047.9c-.9,3.6-1.9,7.2-2.8,10.8h3.1c1-4,2.1-7.9,3.1-11.9A33.92,33.92,0,0,0,39.9,5047.9Z" transform="translate(8414.329 1328)"/>
    <path id="Path_871" data-name="Path 871" d="M91.3,5064.4a6,6,0,0,0-3.2-.7,5.3,5.3,0,0,0-3.7,1.5,8.368,8.368,0,0,0-1.7,3.7,4.374,4.374,0,0,0,.3,3.2,3.081,3.081,0,0,0,2.5,1.4,6.766,6.766,0,0,0,4-.5,4.291,4.291,0,0,0,2.4-2.7h-3a2.728,2.728,0,0,1-.6,1.2,1.9,1.9,0,0,1-1.9.5,1.174,1.174,0,0,1-.9-1,8.205,8.205,0,0,1,.2-2.2h6.4a6.657,6.657,0,0,0,.2-2.8A2.2,2.2,0,0,0,91.3,5064.4Zm-1.8,3.3H86.1a3.969,3.969,0,0,1,1.1-2,1.7,1.7,0,0,1,1.8-.3,1.107,1.107,0,0,1,.7.9A7.845,7.845,0,0,1,89.5,5067.7Z" transform="translate(8414.329 1328)"/>
    <path id="Path_872" data-name="Path 872" d="M103.3,5064.8a1.9,1.9,0,0,0-1.6-1,5.231,5.231,0,0,0-3.4,1.2c.1-.4.2-.7.3-1H95.5c-.8,3.2-1.6,6.3-2.4,9.5h3.1c.5-2.1,1.1-4.2,1.6-6.2a1.976,1.976,0,0,1,.6-1.2,1.5,1.5,0,0,1,1.5-.5.715.715,0,0,1,.5.9c-.1.6-.3,1.2-.4,1.7-.5,1.8-.9,3.6-1.4,5.4h3.1c.5-2.1,1.1-4.1,1.6-6.2A5.7,5.7,0,0,0,103.3,5064.8Z" transform="translate(8414.329 1328)"/>
    <path id="Path_873" data-name="Path 873" d="M81.5,5061.6c-1.1.2-2.1.4-3.2.6-.2.6-.3,1.2-.5,1.8H76.6a6.466,6.466,0,0,1-.4,1.3h1.2c-.4,1.8-.9,3.7-1.4,5.5a2.748,2.748,0,0,0,.1,1.8,2.264,2.264,0,0,0,1.5,1,7.006,7.006,0,0,0,2.9-.2c.1-.6.3-1.1.4-1.7a1.81,1.81,0,0,1-1.6-.1c-.4-.4-.2-.9-.1-1.3.4-1.7.9-3.3,1.3-5H82c.1-.4.2-.9.3-1.3H80.7A22.459,22.459,0,0,0,81.5,5061.6Z" transform="translate(8414.329 1328)"/>
    <path id="Path_874" data-name="Path 874" d="M74.1,5061.6c-1.1.2-2.2.4-3.2.6a12.072,12.072,0,0,1-.5,1.8H69.1c-.1.4-.2.9-.3,1.3H70c0,.2-.1.4-.1.6-.4,1.5-.8,3.1-1.2,4.6a2.757,2.757,0,0,0,0,2c.2.6.9.9,1.5,1.1a7.006,7.006,0,0,0,2.9-.2c.1-.6.3-1.1.4-1.7a1.81,1.81,0,0,1-1.6-.1c-.4-.4-.2-1-.1-1.4.4-1.6.8-3.3,1.3-4.9h1.6c.1-.4.2-.9.3-1.3H73.4A21.718,21.718,0,0,0,74.1,5061.6Z" transform="translate(8414.329 1328)"/>
    <path id="Path_875" data-name="Path 875" d="M70.6,5055.7h-3c-.2.7-.5,1.4-1.2,1.6a1.462,1.462,0,0,1-2-.6,4.27,4.27,0,0,1,.1-2.5H71c.1-.5.2-.9.3-1.4a3.4,3.4,0,0,0-.6-2.6,4.206,4.206,0,0,0-2.8-1.2,6.844,6.844,0,0,0-4.2.9,5.733,5.733,0,0,0-2,3.3,7.527,7.527,0,0,0-.4,2.9,2.968,2.968,0,0,0,1,1.9,3.749,3.749,0,0,0,2.5.8,7.615,7.615,0,0,0,3.7-.6A4.357,4.357,0,0,0,70.6,5055.7Zm-4.7-4.9a2.007,2.007,0,0,1,1.7-.4,1.215,1.215,0,0,1,.8,1,3.887,3.887,0,0,1-.2,1.5H64.9A3.216,3.216,0,0,1,65.9,5050.8Z" transform="translate(8414.329 1328)"/>
  </g>
</svg>
