<svg xmlns="http://www.w3.org/2000/svg" xmlns:xlink="http://www.w3.org/1999/xlink" width="165" height="74" viewBox="0 0 165 74">
  <defs>
    <clipPath id="clip-path">
      <rect id="Rectangle_303" data-name="Rectangle 303" width="165" height="74"/>
    </clipPath>
  </defs>
  <g id="_154" data-name="154" transform="translate(-8083.329 -4572)">
    <rect id="Rectangle_301" data-name="Rectangle 301" width="165" height="74" transform="translate(8083.329 4572)" fill="#00143c"/>
    <g id="Group_1111" data-name="Group 1111" transform="translate(8083.329 4572)" clip-path="url(#clip-path)">
      <rect id="Rectangle_302" data-name="Rectangle 302" width="165" height="74" fill="#00143c"/>
    </g>
    <path id="Path_180" data-name="Path 180" d="M22.3,175.1a3.474,3.474,0,0,0-1.3.1,9.242,9.242,0,0,0-4,1.5c-4,2.4-5.6,6.9-5.3,11.5h0l.1.9a4.253,4.253,0,0,0,.2,1.1,4.469,4.469,0,0,1-2-1.6.1.1,0,0,0-.1-.1c-.1-.1-.1-.2-.2-.4a.349.349,0,0,0-.1-.2c-.1-.1-.1-.2-.1-.4a10.4,10.4,0,0,1-.3-3.5c.6-5.5,5.6-9.8,10.4-11.8,6.6-2.7,14.8-2.9,21.2.4.7.3,1.3.9,2,1a4.863,4.863,0,0,0-1.4-1.1,25.675,25.675,0,0,0-21.5-2A17.168,17.168,0,0,0,9,182.7a9.725,9.725,0,0,0,.2,4.8h0a5.64,5.64,0,0,0,1.1,2,4.35,4.35,0,0,0,.7.6c.1,0,.1.1.2.1h.1a5.9,5.9,0,0,0,.8.4,9.784,9.784,0,0,0,4.5,6.3l.1.1c.1.1.2.1.3.2a13.285,13.285,0,0,0,6.5,1.5H153V198H23.8c-3.3-.1-9.3-1-11.1-7.2a6.745,6.745,0,0,0,3.8-1,3.267,3.267,0,0,0,2.5.4h.1c.1,0,.2-.1.3-.1h.1c2-.7,3.7-2.8,4.7-4.6,1.2-2.3,2.2-5.3,1.2-7.9,0-.1-.1-.2-.2-.4a2.407,2.407,0,0,0-.6-.8h0c.2-.1.3-.1.5-.2a17.783,17.783,0,0,1,8.3-.9h.2a17.22,17.22,0,0,0-4.4,4.9c-2.3,3.6-3.7,7.5-5.5,11.3a10.155,10.155,0,0,1-2.2,3.2c-.9,0-1.4-.5-2.2-.2a.509.509,0,0,0-.3.7c.2.4,1.1.5,1.6.4a11.294,11.294,0,0,0,3.7-1c4.8-2.5,7.5-7.8,10-12.2h.1c-.9,2-1.7,4-2.7,6a31.149,31.149,0,0,1-3.8,5.9c-.4.4-.4.5-.9.4a2.879,2.879,0,0,0-1.3-.1c-.2.1-.4.3-.3.5a.842.842,0,0,0,.7.4h.8a11.305,11.305,0,0,0,3.5-.8h0c3.5-1.3,6.5-4.8,8.4-7.7l4.2-6.1c2.3-3.3,5.6-6.5,9.3-7.7,2.8-1.1,6.3-.9,8.5,1.2,0,0,.1.1.1,0,.1,0,0-.2-.1-.4-2.3-2.7-6.2-2.9-9.4-1.9-4.5,1.7-8.2,5.6-10.8,9.7-2.3,3.3-4,6.9-6.8,9.7-1.5,1.3-3,2.7-4.9,2.8-.1,0-.3,0-.2-.1l.2-.1a18.552,18.552,0,0,0,5.6-5.9c2.8-3.9,3-8.9,5.5-13,.3-.5.7-.9,1-1.4.1-.1-.2-.3-.4-.2a20.043,20.043,0,0,0-5.7,5.9c-2.9,4.5-5.2,9.6-9.4,13.2a5.108,5.108,0,0,1-2.9,1.5c.2-.2.7-.6.9-.8,4.4-4,6.1-9.3,8.4-14.3.8-1.4,1.3-3.1,2.8-4.2a11.272,11.272,0,0,0,1.8-.3c.4-.1,1.4-.5,1.2-1-.3-.5-1.4,0-1.6.1-.5.2-1,.5-1.5.7-1.6,0-3-.7-4.5-1a9.645,9.645,0,0,0-4.5.4,18.156,18.156,0,0,0-2.8,1.1m-.5,2.4a13.035,13.035,0,0,1,1.9-1.1c.3.3.4.5.6.7,1.4,3.1-.2,6.3-1.7,8.9-1,1.4-2.1,3-3.7,3.6a2.588,2.588,0,0,1-2.5-.1l.9-.6a11.4,11.4,0,0,0,3.9-6.2.878.878,0,0,0-.1-.7h-.1a12.049,12.049,0,0,1-4.2,6.4c-.3.2-.5.5-.8.7h0a4.939,4.939,0,0,1-.5-1.6v-1.2C16.5,182.4,19.2,179.3,22.3,177.3Zm-9.8,12.2v-.3a4.1,4.1,0,0,1-.1-1.1c-.3-4.8,1.8-9.9,6.4-12a8.642,8.642,0,0,1,1.5-.5c.4-.1.7-.1,1-.2h.8c-.1,0-.1.1-.2.1h0a9.225,9.225,0,0,0-.8.5,5.546,5.546,0,0,0-.8.6l-.3.3-.1.1a5.73,5.73,0,0,0-1.1,1.1l-.1.1-.2.2h0a11.834,11.834,0,0,0-3.1,6.9h0v.1a5.5,5.5,0,0,0,.9,3.8,6.58,6.58,0,0,1-3.6,1A6.376,6.376,0,0,1,12.5,189.5ZM48.4,192c-1,.8-2,2-3.1,2.4-.1,0-.3.1-.4-.1-.2-.5.3-1.2.4-1.4a49.088,49.088,0,0,1,4-5.3l8.2-9.9,2.3-2.8c.1-.1.1-.4-.1-.4H56.9c-.2,0-.3,0-.4.1l-6,7.7-4.8,6.2a43.714,43.714,0,0,1-5.9,5.5c-.3.2-.9.6-1.2.2-.3-.6.4-1.2.8-1.8l5.1-6.2,4.4-5.2c.1-.1.1-.3-.1-.3H46L40.3,188a13.616,13.616,0,0,0-2.1,3.4c-.3,1-.8,2.2,0,3.1a1.01,1.01,0,0,0,1.1.1,21.424,21.424,0,0,0,5.1-4,5.278,5.278,0,0,0-.2,3.5.8.8,0,0,0,.9.5c1.8-.4,3.1-2.1,4.5-3.3-.1,1-.4,2.3.4,3.1a.909.909,0,0,0,1.1.1c1.8-.7,3.9-2.7,5.4-3.9-.6,1.3-1.1,2.8-.3,3.7a.912.912,0,0,0,.8.3,17.493,17.493,0,0,0,4.4-3.3,4.692,4.692,0,0,0,.7,2.8,1.433,1.433,0,0,0,1.1.5c2-.6,3.5-2.4,5.1-3.7-.3,1.1-1,2.7.1,3.6a1.11,1.11,0,0,0,1.1-.1,22.15,22.15,0,0,0,4.1-4l4.4-5.2c1.3-1.4,2.4-3.1,4.1-4.1.3-.1.7-.3.8,0,.2.5-.7,1.5-1.1,2.3L73.7,194l-.4.5h2.9l3.7-4.6c2.5-3,5.1-6.3,8.3-8.7.2-.1.6-.4.8-.1,0,.6-.6,1.3-.9,1.9l-5.4,7.1L79.8,194c-.1.1-.2.4-.1.5h2.8l6.3-7.7a26.483,26.483,0,0,1,6-5.6c.6-.2,1.5-1,2.1-.3a.712.712,0,0,1-.3.8c-1.4,1.5-3.2,3-4.6,4.5-1.7,2-3.8,4-3.8,6.8a2.031,2.031,0,0,0,1.1,1.7c1.9.7,3.4-.5,4.8-1.4a22.554,22.554,0,0,0,6-8.1,11.545,11.545,0,0,0,.1-10.4,6.06,6.06,0,0,0-1.9-2,6.616,6.616,0,0,0-6.4-.1c-1.9,1-3.6,2.8-3.4,5.1a1.891,1.891,0,0,0,1.2,1.4,4.957,4.957,0,0,0,4.7-1.7,4.194,4.194,0,0,0,.9-1.4h-.1a7,7,0,0,1-3.9,2.9c-.8.1-1.6.2-2.2-.6a3.072,3.072,0,0,1,.3-2.6c1.5-2.2,3.3-3.2,5.6-3.1a5.787,5.787,0,0,1,4.9,3.6c1.8,4.6-.1,9.6-2.7,13.2-1.8,2.3-3.7,4.7-6.6,5.3-.4,0-.8-.1-.9-.4-.2-.8.5-1.5.9-2.2l4.6-5.6a14.865,14.865,0,0,0,2-3.1c.3-.8.6-2.2-.2-2.8a2,2,0,0,0-1.3-.2c-2.4.7-4.2,2.7-6,4.5h-.2a6.685,6.685,0,0,0,.8-2.5,1.809,1.809,0,0,0-.7-1.7,1.4,1.4,0,0,0-1.1,0c-1.9,1.1-2.4,1.9-4.3,3.8-.3.2-.5.5-.7.5a5.385,5.385,0,0,0,.5-2.8,1.65,1.65,0,0,0-.9-1.5,2.016,2.016,0,0,0-1.8.6c-2.2,1.9-3.9,4.4-5.9,6.5l-4.7,5.2-1.3,1.2c-.1.1-.5.3-.7,0-.1-.5.7-1.4,1.1-1.9l9.4-11.2c.1-.1.3-.4,0-.5H76.4a4.263,4.263,0,0,0-1.1,1.2c-.1,0-.1,0-.1-.1v-.1c.1-.4.1-.8-.3-1-.3-.1-.6-.3-.9-.2-5,1.4-10.6,4.7-12.4,10l-1,1.1a21.2,21.2,0,0,1-3.4,2.7c-.2,0-.4.2-.5-.1a3.365,3.365,0,0,1,.8-1.7l4.8-5.7,4.5-5.6c.1-.1.2-.4,0-.4H63.9l-3,3.9a72.1,72.1,0,0,1-5.7,6.7,15.386,15.386,0,0,1-4.2,3c-.3.1-.5.1-.5-.2a2.111,2.111,0,0,1,.6-1.6l4.9-6,9.6-11.7c.1-.1.2-.4,0-.4H62.8c-.4,0-1.1,1.1-1.6,1.8L51.2,189C50.2,190.1,49.4,191,48.4,192Zm15.8-1.7a43,43,0,0,1,7.1-7.7,8.8,8.8,0,0,1,2.9-1.8.55.55,0,0,1,.5.3,6.2,6.2,0,0,1-1.2,2.9,77.165,77.165,0,0,1-7.5,8.5,6.722,6.722,0,0,1-3,1.9.43.43,0,0,1-.4-.4A8.714,8.714,0,0,1,64.2,190.3Zm4.4-12.7c-.8.7-1.9.8-2.3.3-.5-.5-.2-1.6.6-2.3s1.9-.8,2.3-.3C69.7,175.9,69.4,176.9,68.6,177.6Zm-17.4,0c-.8.7-1.9.8-2.3.3-.5-.6-.2-1.6.6-2.3s1.9-.8,2.3-.3C52.3,175.9,52,176.9,51.2,177.6Z" transform="translate(8083.329 4424)" fill="#faff05"/>
    <path id="Path_181" data-name="Path 181" d="M120.8,173.1h6.3v21.7h-6.3V173.1Zm21,21.7h11.1v-6.5h-4.8V173.1h-6.3v21.7Zm-12.2,0h11.1v-6.5h-4.8V173.1h-6.3v21.7Zm-26.9-21.7v21.7h6.5v-8.1H112v8.1h6.5V173.1H112v7.5h-2.8v-7.5Z" transform="translate(8083.329 4424)" fill="#fff"/>
  </g>
</svg>
