<svg xmlns="http://www.w3.org/2000/svg" xmlns:xlink="http://www.w3.org/1999/xlink" width="165" height="74" viewBox="0 0 165 74">
  <defs>
    <clipPath id="clip-betsafe">
      <rect width="165" height="74"/>
    </clipPath>
  </defs>
  <g id="betsafe" clip-path="url(#clip-betsafe)">
    <rect width="165" height="74"/>
    <g id="Group_2822" data-name="Group 2822" transform="translate(11572.671 -3199.725)">
      <path id="Path_909" data-name="Path 909" d="M18.408,6996.973,13,6999.114V6974.1h5.634v8.225a6.406,6.406,0,0,1,5.3-2.366,9.056,9.056,0,0,1,6.31,2.591,9.821,9.821,0,0,1-.225,14.423,8.666,8.666,0,0,1-5.859,2.253,7.394,7.394,0,0,1-5.746-2.253m4.394-2.817a4.625,4.625,0,0,0,4.845-4.62,4.689,4.689,0,0,0-4.732-4.732,4.6,4.6,0,0,0-4.62,4.732,4.545,4.545,0,0,0,4.507,4.62" transform="translate(-11581.671 -3751.446)" fill="#fff"/>
      <path id="Path_910" data-name="Path 910" d="M51.255,6992.972a9.535,9.535,0,0,1-9.239,5.972,9.206,9.206,0,0,1-7.1-3.042,9.985,9.985,0,0,1-2.817-6.986A10,10,0,0,1,42.015,6979c5.972,0,10.141,4.281,10.141,11.38v.563H37.846q.676,3.042,4.394,3.042a4.628,4.628,0,0,0,2.93-1.014h6.084ZM46.522,6987a4.45,4.45,0,0,0-4.507-3.042c-2.366,0-3.944,1.24-4.394,3.042Z" transform="translate(-11579.25 -3750.824)" fill="#fff"/>
      <path id="Path_914" data-name="Path 914" d="M51.413,6974.1h5.408v6.084h2.7v4.169h-2.7v9.014c0,1.69.338,2.253,2.028,2.253,0,0,1.8-.113,1.915-.113v3.831c-.338,0-2.366.113-2.592.113-4.62,0-6.873-1.8-6.873-5.859.113-.113.113-19.493.113-19.493" transform="translate(-11576.816 -3751.445)" fill="#fff"/>
      <path id="Path_907" data-name="Path 907" d="M141.247,6978.148a4.94,4.94,0,1,1,0-6.986,4.964,4.964,0,0,1,0,6.986" transform="translate(-11566.483 -3752)" fill="#a20000"/>
      <path id="Path_908" data-name="Path 908" d="M155.752,6973h0l-23.1,13.183,4.732-4.62L122.4,6973l9.465,16.675-9.465,16.789,16.676-9.577,16.676,9.577-9.465-16.789Z" transform="translate(-11567.805 -3751.585)" fill="#a20000"/>
      <path id="Path_911" data-name="Path 911" d="M65.983,6992.859v.226a1.909,1.909,0,0,0,2.028,1.8c1.239,0,1.915-.563,1.915-1.69,0-1.578-1.465-1.465-3.831-2.253-3.268-1.014-4.845-2.817-4.845-5.634,0-3.718,2.7-6.31,7.211-6.31,3.944,0,6.422,2.253,6.648,5.859h-5.07c-.225-1.24-.676-1.8-1.69-1.8a1.512,1.512,0,0,0-1.69,1.577c0,1.353,1.127,1.577,3.042,2.141,3.831,1.014,5.859,2.479,5.859,5.634,0,3.831-3.042,6.535-7.549,6.535-4.282,0-6.873-2.254-7.211-6.084Z" transform="translate(-11575.612 -3750.824)" fill="#fff"/>
      <path id="Path_912" data-name="Path 912" d="M89.66,6996.314a7.646,7.646,0,0,1-5.634,2.253,8.462,8.462,0,0,1-5.859-2.253,9.733,9.733,0,0,1-3.268-7.437,9.61,9.61,0,0,1,9.352-9.577,6.39,6.39,0,0,1,5.3,2.366v-2.141h5.521v18.929Zm-4.394-2.817a4.454,4.454,0,0,0,4.394-4.62,4.6,4.6,0,0,0-4.62-4.732,4.681,4.681,0,1,0,.225,9.353" transform="translate(-11573.825 -3750.786)" fill="#fff"/>
      <path id="Path_913" data-name="Path 913" d="M95.2,6979.559c0-4.056,2.141-5.859,6.873-5.859.225,0,2.253.113,2.592.113v3.831s-1.8-.113-1.915-.113c-1.69,0-2.028.563-2.028,2.253v.451h2.7v4.169h-2.7v14.648H95.2Z" transform="translate(-11571.252 -3751.496)" fill="#fff"/>
      <path id="Path_915" data-name="Path 915" d="M122.342,6992.972a9.489,9.489,0,0,1-9.127,5.972,9.206,9.206,0,0,1-7.1-3.042,9.985,9.985,0,0,1-2.817-6.986,10,10,0,0,1,9.915-9.916c5.972,0,10.141,4.281,10.141,11.38v.563h-14.2q.676,3.042,4.394,3.042a4.628,4.628,0,0,0,2.93-1.014h5.859ZM117.61,6987a4.45,4.45,0,0,0-4.507-3.042c-2.366,0-3.944,1.24-4.394,3.042Z" transform="translate(-11570.226 -3750.824)" fill="#fff"/>
    </g>
  </g>
</svg>
