<svg xmlns="http://www.w3.org/2000/svg" width="165" height="74" viewBox="0 0 165 74">
  <g id="_2" data-name="2" transform="translate(-8083.329 -6348)">
    <rect id="Rectangle_736" data-name="Rectangle 736" width="165" height="74" transform="translate(8083.329 6348)" fill="#001f60"/>
    <rect id="Rectangle_737" data-name="Rectangle 737" width="154.5" height="44" transform="translate(8088.629 6363)" fill="none"/>
    <path id="Path_729" data-name="Path 729" d="M86,1951.6a23.261,23.261,0,0,1,4.8.4l1.2.3c.2.1.3.2.2.4-.2.7-.4,1.3-.6,2-.1.4-.2.7-.3,1.1,0,.2-.1.2-.2.1a9.416,9.416,0,0,0-5-.7,3.772,3.772,0,0,0-1.6.5,1.4,1.4,0,0,0,0,2.4,7.574,7.574,0,0,0,1.8.9,11.3,11.3,0,0,1,3.2,1.9,4.372,4.372,0,0,1,1.3,2.4,6.72,6.72,0,0,1-.3,2.8,5.131,5.131,0,0,1-1.5,2.3,6.253,6.253,0,0,1-2,1.3,10.269,10.269,0,0,1-2.5.7,15.288,15.288,0,0,1-3.7.1,25.1,25.1,0,0,1-2.7-.4c-.5-.1-1-.3-1.5-.4-.2,0-.2-.1-.2-.3.2-1.1.4-2.2.7-3.3.1-.3.1-.3.4-.2a10.8,10.8,0,0,0,3.5,1,8.63,8.63,0,0,0,2.8-.2,2.2,2.2,0,0,0,1.6-1.2,1.412,1.412,0,0,0-.4-2,9.44,9.44,0,0,0-2.8-1.5,5.631,5.631,0,0,1-2.6-1.7,3.523,3.523,0,0,1-.9-2.3,4.289,4.289,0,0,1,.4-2.5,5.675,5.675,0,0,1,1.2-1.8,7.339,7.339,0,0,1,3.5-1.8A12.2,12.2,0,0,1,86,1951.6Z" transform="translate(8083.329 4424)" fill="#79b7df"/>
    <path id="Path_730" data-name="Path 730" d="M39,1971.7a11.22,11.22,0,0,0,1.3.5,3.067,3.067,0,0,0,2.9-.5,3.316,3.316,0,0,0,1-1.4v-.2c-.5-2.4-1.1-4.8-1.6-7.3-.4-1.9-.9-3.9-1.3-5.8v-.3h4.5c.2,0,.2.1.3.3.2,1.2.4,2.4.5,3.6.2,1.5.4,3,.6,4.6l.1.6.2-.4a50.418,50.418,0,0,1,2.6-5.2c.6-1.1,1.1-2.1,1.7-3.2.1-.1.1-.2.3-.2h4.6l-.1.2c-1.3,2.2-2.6,4.4-3.9,6.7l-2.1,3.6c-1,1.8-2.1,3.5-3.1,5.3a10.041,10.041,0,0,1-1.6,2,5.437,5.437,0,0,1-3.4,1.4,11.335,11.335,0,0,1-4.1-.6c-.1,0-.2-.1-.1-.2l.7-3.5Z" transform="translate(8083.329 4424)" fill="#fff"/>
    <path id="Path_731" data-name="Path 731" d="M145.5,1952.2l-.9,4.4H147c.2,0,.3,0,.2.2l-.6,2.8c0,.1-.1.1-.2.1h-2.3a.265.265,0,0,0-.3.3c-.3,1.6-.7,3.2-1,4.8a2.437,2.437,0,0,0,0,1.2,1.009,1.009,0,0,0,1.1.9,3.888,3.888,0,0,0,1.5-.2h.3l-.1.6-.4,2.3c0,.2-.1.3-.4.4a18.281,18.281,0,0,1-3.3.2,3.718,3.718,0,0,1-3.1-2.3,3.973,3.973,0,0,1-.2-2.4,25.574,25.574,0,0,1,.5-2.7l.3-1.5.2-1.1.1-.4h-2.5c-.3,0-.3,0-.2-.3.1-.7.3-1.3.4-2l.1-.7c0-.2.1-.2.3-.2h2.3c.1,0,.2,0,.2-.2a18.428,18.428,0,0,0,.5-2.5c.1-.4.2-.6.6-.7,1.2-.3,2.4-.6,3.7-1Zm5.6,18.2a17.589,17.589,0,0,1-4.6-.6c-.3-.1-.4-.1-.3-.5.2-.9.3-1.8.5-2.7.1-.3.1-.3.4-.2a7.171,7.171,0,0,0,2.5.7,5.952,5.952,0,0,0,2.3-.1c.2-.1.4-.1.5-.2a.983.983,0,0,0,.1-1.6,5.384,5.384,0,0,0-1.3-.7,10.29,10.29,0,0,1-2.7-1.5,3.456,3.456,0,0,1-1-2.1,3.079,3.079,0,0,1,.3-1.9,4.708,4.708,0,0,1,1.3-1.5,7.98,7.98,0,0,1,4.2-1.3,12.307,12.307,0,0,1,3.8.4l1.2.3c.2,0,.2.1.2.3l-.5,1.6-.3.9c-.1.2-.1.3-.4.2-.7-.2-1.5-.4-2.2-.6a4.122,4.122,0,0,0-2.2.1,2.5,2.5,0,0,0-.7.4.859.859,0,0,0,.1,1.3,5.223,5.223,0,0,0,1.5.7,9.735,9.735,0,0,1,2.3,1.1,2.81,2.81,0,0,1,1.4,2.4,4.512,4.512,0,0,1-1.2,3.3,5.851,5.851,0,0,1-2.4,1.4,6.584,6.584,0,0,1-2.8.4Z" transform="translate(8083.329 4424)" fill="#79b7df"/>
    <path id="Path_732" data-name="Path 732" d="M63.7,1950.5l-.3,1.4-1,5.1-1.5,7.5c-.4,1.8-.7,3.6-1.1,5.4a.215.215,0,0,1-.2.2H55l.3-1.5,1.6-8.1c.5-2.3,1-4.7,1.4-7,.2-.9.4-1.9.6-2.8,0-.2.1-.2.2-.2h4.6Z" transform="translate(8083.329 4424)" fill="#fff"/>
    <path id="Path_733" data-name="Path 733" d="M123.8,1970l.3-1.6c.3-1.7.7-3.4,1-5l.8-3.9c.2-.9.3-1.7.5-2.6a.215.215,0,0,1,.2-.2h4.1l-.4,2.2h.1c.2-.3.5-.6.7-.9a6.53,6.53,0,0,1,1.6-1.3,4.289,4.289,0,0,1,2.5-.4l.7.1c.2,0,.2.1.2.3l-.5,2.7c-.1.3-.1.6-.2.9,0,.2-.1.2-.3.2l-1.2-.3a2.965,2.965,0,0,0-2.7.8,4,4,0,0,0-1,1.8c-.3,1-.5,2-.8,3-.3,1.1-.5,2.3-.7,3.4l-.1.6a.215.215,0,0,1-.2.2,35.291,35.291,0,0,1-4.6,0Z" transform="translate(8083.329 4424)" fill="#79b7df"/>
    <path id="Path_734" data-name="Path 734" d="M15.3,1942a8.174,8.174,0,0,1,3.5.8,34.7,34.7,0,0,1,5.9,3.4l2.7,2.1a.54.54,0,0,1,.2.8.631.631,0,0,1-.9.2,37.239,37.239,0,0,0-6.4-2.2,14.886,14.886,0,0,0-4.2-.3,6.279,6.279,0,0,0-4.6,2.5c-.1.1-.2.3-.4.3a.533.533,0,0,1-.7-.5,9.435,9.435,0,0,1,1.1-5A4.31,4.31,0,0,1,15.3,1942Zm-4.1,38a4.205,4.205,0,0,1-4.2-3,11.581,11.581,0,0,1-.7-4.2.548.548,0,0,1,.4-.6.618.618,0,0,1,.7.2,14.2,14.2,0,0,0,1.2,1.3,6.09,6.09,0,0,0,3.1,1.3,13.637,13.637,0,0,0,4.5-.2,30.267,30.267,0,0,0,5.8-1.9l.8-.3c.3-.1.6-.1.7.2a.605.605,0,0,1-.1.8c-.6.5-1.3,1-1.9,1.5a47.644,47.644,0,0,1-4.7,3.1,15.213,15.213,0,0,1-4.2,1.6A3.4,3.4,0,0,1,11.2,1980Z" transform="translate(8083.329 4424)" fill="#be0000"/>
    <path id="Path_735" data-name="Path 735" d="M22.1,1960.5a4.433,4.433,0,0,0,3.4-2.8,3.9,3.9,0,0,0-2.5-5.4,6.6,6.6,0,0,0-2.4-.3H13c-.2,0-.2.1-.3.2-.3,1.3-.5,2.6-.8,3.9-.5,2.5-1,4.9-1.6,7.3l-1.1,5.3-.3,1.3H17a16.545,16.545,0,0,0,3.2-.3,5.972,5.972,0,0,0,3.6-2.4,5.773,5.773,0,0,0,.9-2.6,3.556,3.556,0,0,0-1.6-3.4,5.307,5.307,0,0,0-1.7-.8l.3-.1Zm-2.1,3.9a2.243,2.243,0,0,1-2,2.1,5.854,5.854,0,0,1-1.3.2H14.3l.2-.9c.2-1.2.5-2.3.7-3.5,0-.2.1-.2.2-.2h2.4a2.2,2.2,0,0,1,.8.1A1.947,1.947,0,0,1,20,1964.4Zm.3-5.9a3.606,3.606,0,0,1-2,.6H16l.3-1.3c.2-.8.3-1.7.5-2.5a.265.265,0,0,1,.3-.3h2.4a1.856,1.856,0,0,1,1.7,1.3A2.278,2.278,0,0,1,20.3,1958.5Z" transform="translate(8083.329 4424)" fill="#fff"/>
    <path id="Path_736" data-name="Path 736" d="M107.3,1961a5.63,5.63,0,0,0-1.2-3,4.823,4.823,0,0,0-2.9-1.7,5.32,5.32,0,0,0-3.5.5,4.31,4.31,0,0,0-1.7,1.3l-.7.7v-.2l.4-1.7c.1-.3,0-.3-.2-.3H93.8c-.2,0-.2.1-.3.2-.1.4-.2.9-.3,1.3l-.8,4-.5,2.7a22.114,22.114,0,0,0-.5,2.5c-.3,1.2-.5,2.5-.8,3.7l-.9,4.2c-.1.3-.1.3.3.3h4c.2,0,.3,0,.3-.2.2-.9.4-1.9.6-2.8.3-1.2.5-2.4.8-3.7l.2-.9H96l.1.2a4.522,4.522,0,0,0,2.2,1.9,6.107,6.107,0,0,0,4.6-.1,6,6,0,0,0,2.7-2,8.867,8.867,0,0,0,1.4-2.5,8.505,8.505,0,0,0,.4-2.2A16.95,16.95,0,0,0,107.3,1961Zm-4.7,2a4.688,4.688,0,0,1-.6,2.1,3.319,3.319,0,0,1-1.7,1.6,2.636,2.636,0,0,1-2.7-.3,2.342,2.342,0,0,1-.8-1.8v-.5a4.805,4.805,0,0,1,1-3.1,2.99,2.99,0,0,1,2.5-1.3,2.26,2.26,0,0,1,2.1,1.4A3.133,3.133,0,0,1,102.6,1963Z" transform="translate(8083.329 4424)" fill="#79b7df"/>
    <path id="Path_737" data-name="Path 737" d="M40.8,1959.7a5.907,5.907,0,0,0-3.8-3.1,10.436,10.436,0,0,0-6.3.2,7.244,7.244,0,0,0-4.4,4,8.435,8.435,0,0,0-.6,4.7,5.322,5.322,0,0,0,2.8,4,7.35,7.35,0,0,0,3.8.9,9.778,9.778,0,0,0,3.8-.6,7.679,7.679,0,0,0,3.9-3,7.388,7.388,0,0,0,1.2-4.3A4.9,4.9,0,0,0,40.8,1959.7Zm-5.4,6.4a2.8,2.8,0,0,1-2.3,1.2,2.55,2.55,0,0,1-2.5-2.1,5.286,5.286,0,0,1,1.4-4.8,2.651,2.651,0,0,1,3.1-.7,2.32,2.32,0,0,1,1.4,1.9A5.422,5.422,0,0,1,35.4,1966.1Z" transform="translate(8083.329 4424)" fill="#fff"/>
    <path id="Path_738" data-name="Path 738" d="M123.7,1960.5a6.081,6.081,0,0,0-1.5-2.4,5.1,5.1,0,0,0-2.6-1.4,9.944,9.944,0,0,0-4.2-.2,7.533,7.533,0,0,0-4.9,2.3,6.523,6.523,0,0,0-1.8,3.1,9.659,9.659,0,0,0-.2,3.8,8.64,8.64,0,0,0,.7,2.1,6.077,6.077,0,0,0,3.7,2.6,9.865,9.865,0,0,0,2.4.3c.7-.1,1.3-.1,2-.2a7.178,7.178,0,0,0,2.7-.9,8.152,8.152,0,0,0,2.6-2.3,6.962,6.962,0,0,0,1.1-2.3,15.172,15.172,0,0,0,.3-2.1A4.693,4.693,0,0,0,123.7,1960.5Zm-4.5,3.3a5.348,5.348,0,0,1-1.3,2.6,2.8,2.8,0,0,1-3.3.7,2.333,2.333,0,0,1-1.3-1.6,6.53,6.53,0,0,1-.2-1.1,5.8,5.8,0,0,1,1.7-4.3,2.736,2.736,0,0,1,3.2-.4,2.335,2.335,0,0,1,1,1.2A5.664,5.664,0,0,1,119.2,1963.8Z" transform="translate(8083.329 4424)" fill="#79b7df"/>
    <path id="Path_739" data-name="Path 739" d="M76.2,1960.5a4.817,4.817,0,0,0-3.6-4.1,10.205,10.205,0,0,0-5.2.2,6.674,6.674,0,0,0-3.7,2.7,8.631,8.631,0,0,0-1.5,5.8,5.638,5.638,0,0,0,2.9,4.5,8.2,8.2,0,0,0,3.4.9,17.451,17.451,0,0,0,5.1-.7c.2,0,.2-.1.3-.3.2-.8.3-1.6.5-2.5l.1-.7-.4.1a9.81,9.81,0,0,1-4.5.9,3.922,3.922,0,0,1-1.8-.4,2.825,2.825,0,0,1-1.5-2.5h9.3c.2,0,.3-.1.4-.3a8.576,8.576,0,0,0,.2-3.6Zm-3.8,1.1v.2c0,.2-.1.2-.2.2H67c.4-1.3,1-2.5,2.4-2.9A2.235,2.235,0,0,1,72.4,1961.6Z" transform="translate(8083.329 4424)" fill="#fff"/>
  </g>
</svg>
