<svg xmlns="http://www.w3.org/2000/svg" width="165" height="74" viewBox="0 0 165 74">
  <g id="_20" data-name="20" transform="translate(-8083.329 -6644)">
    <rect id="Rectangle_739" data-name="Rectangle 739" width="165" height="74" transform="translate(8083.329 6644)" fill="#040406"/>
    <rect id="Rectangle_740" data-name="Rectangle 740" width="141.1" height="40.2" transform="translate(8095.229 6660.9)" fill="none"/>
    <path id="Path_758" data-name="Path 758" d="M103,2239v11.5h.1a5.927,5.927,0,0,1,1.1-1.9,10.7,10.7,0,0,1,1.6-1.4,4.961,4.961,0,0,1,2-.8,7.8,7.8,0,0,1,2.2-.3,8.027,8.027,0,0,1,3.9.9,8.857,8.857,0,0,1,2.8,2.3,12.036,12.036,0,0,1,1.7,3.4,13.569,13.569,0,0,1,.5,4.1,17.706,17.706,0,0,1-.5,4.1,9.88,9.88,0,0,1-1.7,3.4,7.88,7.88,0,0,1-2.8,2.3,8.012,8.012,0,0,1-3.9.8,8.581,8.581,0,0,1-4.3-1.1,6.04,6.04,0,0,1-2.7-3.2h-.1v3.8h-2.2V2239Zm13.1,14.6a6.6,6.6,0,0,0-1.2-2.7,6.364,6.364,0,0,0-2-2,5.571,5.571,0,0,0-3-.8,6.71,6.71,0,0,0-3.3.8,7.032,7.032,0,0,0-2.2,2,8.253,8.253,0,0,0-1.2,2.7,16.456,16.456,0,0,0-.4,3.1,11,11,0,0,0,.4,3.1,6.6,6.6,0,0,0,1.2,2.7,7.032,7.032,0,0,0,2.2,2,6.71,6.71,0,0,0,3.3.8,5.831,5.831,0,0,0,3-.8,6.364,6.364,0,0,0,2-2,11.066,11.066,0,0,0,1.2-2.7,12.213,12.213,0,0,0,0-6.2Zm7.6,6.5a5.817,5.817,0,0,0,1.2,2.5,6.06,6.06,0,0,0,2,1.9,5.559,5.559,0,0,0,3,.7,6.075,6.075,0,0,0,4.2-1.4,7.518,7.518,0,0,0,2.1-3.7h2.4a10.378,10.378,0,0,1-2.8,5.3,8.6,8.6,0,0,1-5.8,1.9,10.33,10.33,0,0,1-4.1-.8,7.88,7.88,0,0,1-2.8-2.3,9.7,9.7,0,0,1-1.6-3.4,17.706,17.706,0,0,1-.5-4.1,17.37,17.37,0,0,1,.5-3.9,9.7,9.7,0,0,1,1.6-3.4,7.318,7.318,0,0,1,2.8-2.4,8.567,8.567,0,0,1,4.1-.9,7.8,7.8,0,0,1,4.1,1,8.091,8.091,0,0,1,2.7,2.5,11.448,11.448,0,0,1,1.5,3.6,19,19,0,0,1,.4,4.1H123.4a6.72,6.72,0,0,0,.3,2.8Zm12-7.5a8.361,8.361,0,0,0-1.2-2.3,5.266,5.266,0,0,0-2-1.6,5.538,5.538,0,0,0-2.6-.6,5.952,5.952,0,0,0-2.7.6,6.151,6.151,0,0,0-2,1.6,8.582,8.582,0,0,0-1.3,2.3,13.1,13.1,0,0,0-.6,2.7h12.8A8.421,8.421,0,0,0,135.7,2252.6Zm14-5.9v2.1h-4v13.5a5.04,5.04,0,0,0,.3,1.9c.2.5.8.7,1.6.8a14.755,14.755,0,0,0,2.1-.1v2.1h-2.2a4.614,4.614,0,0,1-3.4-1c-.6-.6-.9-1.8-.9-3.5v-13.7h-3.5v-2.1h3.5v-6h2.4v6Zm-124.8-2.3H18.7a3.612,3.612,0,0,1-2.4-.7,2.462,2.462,0,0,1-1-2,2.334,2.334,0,0,1,1-2,3.793,3.793,0,0,1,2.4-.7h19a3.612,3.612,0,0,1,2.4.7,2.462,2.462,0,0,1,1,2,2.221,2.221,0,0,1-1,2,3.793,3.793,0,0,1-2.4.7H31.5v19.7a3.168,3.168,0,0,1-.9,2.3,3.243,3.243,0,0,1-2.4.9,3.244,3.244,0,0,1-2.4-.9,3.013,3.013,0,0,1-.9-2.3v-19.7Zm50.9,16.9a7.59,7.59,0,0,0,.1,1.6l.3,1.2a4.4,4.4,0,0,1,.2,1,1.9,1.9,0,0,1-.8,1.5,2.884,2.884,0,0,1-1.9.6,3.419,3.419,0,0,1-2.6-.9,4.33,4.33,0,0,1-.9-2.4,9.408,9.408,0,0,1-3.6,2.5,12.307,12.307,0,0,1-4.4.8,6.8,6.8,0,0,1-4.6-1.6,5.114,5.114,0,0,1-2-4.1,6.526,6.526,0,0,1,.6-2.9,5.193,5.193,0,0,1,1.7-1.9,8.857,8.857,0,0,1,2.6-1.1,16.151,16.151,0,0,1,3.3-.6l3.6-.4a4.251,4.251,0,0,0,1.9-.6,2.039,2.039,0,0,0-.4-3.2,5.261,5.261,0,0,0-2.6-.6,5.99,5.99,0,0,0-2.6.5,7.713,7.713,0,0,0-1.9,1.4,7.3,7.3,0,0,1-1.1.9,2.016,2.016,0,0,1-1.1.3,2.791,2.791,0,0,1-1.8-.6,1.8,1.8,0,0,1-.7-1.5,3.489,3.489,0,0,1,.6-1.8,5.92,5.92,0,0,1,1.8-1.7,11,11,0,0,1,2.9-1.2,16,16,0,0,1,3.9-.5,14.511,14.511,0,0,1,6.9,1.4,4.551,4.551,0,0,1,2.5,4.3l.1,9.6Zm-5.9-4a3.131,3.131,0,0,1-1,.5q-.6.15-1.5.3h0l-2.1.3a7.037,7.037,0,0,0-2.8.9,2.082,2.082,0,0,0-.9,1.9,1.922,1.922,0,0,0,.9,1.6,4.267,4.267,0,0,0,2.4.7,5.488,5.488,0,0,0,3.7-1.2,3.848,3.848,0,0,0,1.4-2.9l-.1-2.1Zm-25.1-7h-1c-1.5,0-2.3-.6-2.3-1.8s.8-1.8,2.3-1.8h1v-3.4a2.865,2.865,0,0,1,.8-2.1,3.5,3.5,0,0,1,4.2,0,2.865,2.865,0,0,1,.8,2.1v3.4h1.8c1.8,0,2.6.6,2.6,1.8s-.9,1.8-2.6,1.8H50.6v11.2c0,.9.5,1.3,1.5,1.3H53c1.4,0,2,.6,2,1.9,0,1.7-1.4,2.5-4.2,2.5a7.234,7.234,0,0,1-4.6-1.2,4.576,4.576,0,0,1-1.4-3.8Zm-9.9,19.4a3.389,3.389,0,0,1,4.6,0,3.212,3.212,0,0,1,1,2.2,2.7,2.7,0,0,1-1,2.2,3.389,3.389,0,0,1-4.6,0,3.212,3.212,0,0,1-1-2.2A3.468,3.468,0,0,1,34.9,2269.7Zm5.5-15.7c0,.4-.1,1-.2,1.8l-1.2,9a2.258,2.258,0,0,1-.5,1.1,2.55,2.55,0,0,1-2.4,0,1.29,1.29,0,0,1-.5-1.1l-1.2-9c-.1-.8-.2-1.4-.2-1.8v-4.5c0-2,1.1-3,3.2-3s3.2,1,3.2,3l-.2,4.5Zm2.2,16.6a2.352,2.352,0,0,1,1.9-.7,2.2,2.2,0,0,1,.8.1,3.329,3.329,0,0,1,.6.3.781.781,0,0,1,.4.4.6.6,0,0,1,.1.4.519.519,0,0,1-.2.4.6.6,0,0,1-.4.1.367.367,0,0,1-.3-.1l-.2-.2c-.1-.1-.2-.3-.3-.3a.749.749,0,0,0-.5-.1.6.6,0,0,0-.4.1c-.1.1-.3.1-.4.3a2.189,2.189,0,0,0-.3.5,1.482,1.482,0,0,0-.1.7,1.69,1.69,0,0,0,.3,1,1.235,1.235,0,0,0,.8.4.749.749,0,0,0,.5-.1l.3-.3.3-.3a.367.367,0,0,1,.3-.1c.2,0,.3,0,.4.1s.2.2.2.3a1.087,1.087,0,0,1-.1.5.78.78,0,0,1-.4.4,4.875,4.875,0,0,1-.7.3,2.766,2.766,0,0,1-.9.1,2.444,2.444,0,0,1-1.8-.6,2.352,2.352,0,0,1-.6-1.7A2.489,2.489,0,0,1,42.6,2270.6Zm3.9.8a3.508,3.508,0,0,1,.5-.8,2.352,2.352,0,0,1,1.9-.7,2.489,2.489,0,0,1,1.9.7,2.177,2.177,0,0,1,.5.8,2.959,2.959,0,0,1,.2,1,2.482,2.482,0,0,1-.1.9,2.994,2.994,0,0,1-.4.8,2.179,2.179,0,0,1-.8.5,3.126,3.126,0,0,1-2.2,0,2.179,2.179,0,0,1-.8-.5,2.01,2.01,0,0,1-.4-.8,2.769,2.769,0,0,1-.1-.9A.987.987,0,0,1,46.5,2271.4Zm1.5,2a1.213,1.213,0,0,0,1.8,0,1.8,1.8,0,0,0,.3-1.1,2.017,2.017,0,0,0-.3-1.1,1.213,1.213,0,0,0-1.8,0,1.8,1.8,0,0,0-.3,1.1A1.608,1.608,0,0,0,48,2273.4Zm3.5-2.8a.7.7,0,1,1,1.4,0v.2h0a1.345,1.345,0,0,1,.7-.6,2.917,2.917,0,0,1,.9-.2,2.357,2.357,0,0,1,.8.2,1.025,1.025,0,0,1,.5.6,1.345,1.345,0,0,1,.7-.6,2.917,2.917,0,0,1,.9-.2,1.6,1.6,0,0,1,1.2.4,1.364,1.364,0,0,1,.5,1.2v2.6a.7.7,0,1,1-1.4,0v-2.3a1.423,1.423,0,0,0-.2-.6c-.1-.2-.3-.2-.6-.2a1.025,1.025,0,0,0-1,1v2.2a.7.7,0,1,1-1.4,0V2272a1.423,1.423,0,0,0-.2-.6c-.1-.2-.3-.2-.6-.2a1.025,1.025,0,0,0-1,1v2.2a.7.7,0,1,1-1.4,0l.2-3.8ZM78,2248.9a2.817,2.817,0,0,1,.7-2.1,2.481,2.481,0,0,1,2-.8,2.629,2.629,0,0,1,2,.8,3.3,3.3,0,0,1,.7,2.1v.7h.1a9.581,9.581,0,0,1,3.1-2.6,9.33,9.33,0,0,1,6.7-.5,6.773,6.773,0,0,1,2.4,1.2,5.775,5.775,0,0,1,1.7,2.3,9.146,9.146,0,0,1,.6,3.5v10.9a2.724,2.724,0,0,1-.7,2,2.887,2.887,0,0,1-2.3.8,3.037,3.037,0,0,1-2.3-.8,3.221,3.221,0,0,1-.7-2v-9.8a4.1,4.1,0,0,0-.9-2.8,3.465,3.465,0,0,0-2.8-1.1,4.847,4.847,0,0,0-3.1,1.2,4.158,4.158,0,0,0-1.4,3.2v9.3a2.724,2.724,0,0,1-.7,2,2.887,2.887,0,0,1-2.3.8,3.037,3.037,0,0,1-2.3-.8,3.221,3.221,0,0,1-.7-2l.2-15.5Z" transform="translate(8083.329 4424)" fill="#fff"/>
  </g>
</svg>
