<svg xmlns="http://www.w3.org/2000/svg" width="165" height="74" viewBox="0 0 165 74">
  <g id="Group_21" data-name="Group 21" transform="translate(-9057.329 -6348)">
    <rect id="Rectangle_772" data-name="Rectangle 772" width="165" height="74" transform="translate(9057.329 6348)" fill="#fff"/>
    <path id="Path_953" data-name="Path 953" d="M74.3,7600H14.6a7.49,7.49,0,0,1-7.5-7.5v-23.1a7.555,7.555,0,0,1,7.5-7.5H74.3V7600Z" transform="translate(9057.329 -1200)" fill="#fff"/>
    <path id="Path_954" data-name="Path 954" d="M145.6,7562H74.1v38h71.5a7.555,7.555,0,0,0,7.5-7.5v-23a7.366,7.366,0,0,0-7.5-7.5" transform="translate(9057.329 -1200)" fill="#0d0802"/>
    <path id="Path_955" data-name="Path 955" d="M91.8,7593.8H87.5a1.175,1.175,0,0,1-1.2-1.2v-17.4c0-1.1-.1-1.9-1.3-1.9H83.3A1.273,1.273,0,0,1,82,7572v-2.5a1.2,1.2,0,0,1,1.3-1.3h5.9c2.4,0,3.7,1.3,3.7,3.7v20.7a1.069,1.069,0,0,1-1.1,1.2" transform="translate(9057.329 -1200)" fill="#fff"/>
    <path id="Path_956" data-name="Path 956" d="M97.9,7592.5V7590s-.1-1.2,1.3-1.2h9.7c2.4,0,3.6-.3,3.6-2.7,0-1.8-.7-2.9-3.1-2.9h-6.2a1.1,1.1,0,0,1-1.2-1.2v-2.4a1.1,1.1,0,0,1,1.2-1.2h5.9c2.1,0,3-.8,3-2.8,0-1.7-.7-2.6-2.8-2.6H99.6a1.167,1.167,0,0,1-1.3-1.2v-2.5a1.2,1.2,0,0,1,1.3-1.3h13.1c4.3,0,6.1,2.2,6.1,6.6,0,2.8-.7,5.4-4,5.8v.2c3.4.2,4.5,2.4,4.5,5.8,0,4.1-1.3,7.2-6.4,7.2H99.2a1.019,1.019,0,0,1-1.3-1.1" transform="translate(9057.329 -1200)" fill="#fff"/>
    <path id="Path_957" data-name="Path 957" d="M135.5,7578.4c1.8,0,2.4-.8,2.4-2.7s-.6-2.7-2.6-2.7h-1.9c-2,0-2.6.8-2.6,2.7s.6,2.7,2.4,2.7Zm.3,10.4c1.9,0,2.8-.8,2.8-2.9,0-2-1-2.8-2.8-2.8h-2.7c-1.8,0-2.8.7-2.8,2.8,0,2,.8,2.9,2.8,2.9Zm.6-20.6c5.5,0,8.3.9,8.3,7.1,0,2.8-.9,4.9-3.6,5.4v.2c3.4.6,4.3,2.7,4.3,6.1,0,5.3-2.5,6.9-7.8,6.9h-6c-4.9,0-7.8-1.5-7.8-6.9,0-3.5.7-5.6,4.3-6.1v-.2c-2.5-.4-3.6-2.7-3.6-5.4,0-6.2,2.8-7.1,8.3-7.1Z" transform="translate(9057.329 -1200)" fill="#fff"/>
    <path id="Path_958" data-name="Path 958" d="M116.3,7613.6h-5c-3.8,0-4.8-2.2-4.8-5.6s.9-5.6,4.8-5.6h4.8s.6-.1.6.6v1.2c0,.7-.6.6-.6.6h-3.5c-2.2,0-2.6,1.3-2.6,3.2s.4,3.2,2.6,3.2h3.7s.6-.1.6.6v1.2a.587.587,0,0,1-.6.6" transform="translate(9057.329 -1200)" fill="#0d0802"/>
    <path id="Path_959" data-name="Path 959" d="M124.1,7611.3c2.2,0,2.9-1.1,2.9-3.3s-.6-3.3-2.9-3.3c-2.2,0-2.9,1.1-2.9,3.3s.7,3.3,2.9,3.3m6.3-3.3c0,4.6-1.9,5.7-6.2,5.7-4.4,0-6.2-1.2-6.2-5.7,0-4.6,1.9-5.7,6.2-5.7s6.2,1.1,6.2,5.7" transform="translate(9057.329 -1200)" fill="#0d0802"/>
    <path id="Path_960" data-name="Path 960" d="M148,7613.6h-2.1a.588.588,0,0,1-.6-.6v-5.7c0-1.7-.6-2.5-2.3-2.5h-1v8.2c0,.7-.6.6-.6.6h-2.1c-.7,0-.6-.6-.6-.6v-8.2h-2.5c-.6,0-.7.2-.7.7v7.5c0,.7-.6.6-.6.6h-2.1c-.7,0-.6-.6-.6-.6v-8.5c0-1.5.7-2.1,2.1-2.1h9.9c2.7,0,4.4,1.2,4.4,4v6.6a.588.588,0,0,1-.6.6" transform="translate(9057.329 -1200)" fill="#0d0802"/>
    <path id="Path_961" data-name="Path 961" d="M105.4,7610.8v2.2s.1.6-.6.6h-2.2c-.7,0-.6-.6-.6-.6v-2.2s-.1-.6.6-.6h2.2c-.1,0,.6,0,.6.6" transform="translate(9057.329 -1200)" fill="#0d0802"/>
    <path id="Path_962" data-name="Path 962" d="M32.4,7576.7H27v-3.5h4.4c.3,0,.6.1.8.1.2.1.2.3.2.7v2.7Zm0,5.6a1.291,1.291,0,0,1-.2.8,1.291,1.291,0,0,1-.8.2H27v-3.6h5.4Zm-13.2.9a1.291,1.291,0,0,1-.8-.2,1.292,1.292,0,0,1-.2-.8v-2.5h5.6v3.6l-4.6-.1Zm-1-9a1.548,1.548,0,0,1,.2-.8.956.956,0,0,1,.7-.2h4.7v3.5H18.2v-2.5Zm16.9-3.3a2.77,2.77,0,0,0-2.1-.6H27v-.6c0-.6-.1-1-.4-1.2a2.551,2.551,0,0,0-2.4,0c-.3.2-.4.6-.4,1.2v.6H17.7a2.928,2.928,0,0,0-2.1.6,2.928,2.928,0,0,0-.6,2.1v10.5a3.1,3.1,0,0,0,.6,2.1,2.749,2.749,0,0,0,2.1.7h6.2v6.1a1.691,1.691,0,0,0,.4,1.2,1.921,1.921,0,0,0,1.2.3,1.481,1.481,0,0,0,.7-.1c.2-.1.3-.1.5-.2.1-.1.2-.3.3-.4a1.719,1.719,0,0,0,.1-.8v-6.1h6a2.541,2.541,0,0,0,2.1-.7,3.1,3.1,0,0,0,.6-2.1V7573a5,5,0,0,0-.7-2.1" transform="translate(9057.329 -1200)" fill="#e42613"/>
    <path id="Path_963" data-name="Path 963" d="M48.2,7576.9a1.8,1.8,0,0,0-.3-1.1,1.246,1.246,0,0,0-1.1-.4H46v-5.5a1.445,1.445,0,0,0-.3-1.1,1.608,1.608,0,0,0-1.1-.3,1.8,1.8,0,0,0-1.1.3,1.6,1.6,0,0,0-.4,1.1v5.5H41.9c-.6,0-.9.1-1.1.4a2.167,2.167,0,0,0,0,2.2,1.492,1.492,0,0,0,1,.3H43v13.9c0,.6.1.9.4,1.1a1.416,1.416,0,0,0,2.5-1.1v-13.9h.8c.5,0,.9-.1,1-.3.4-.2.5-.6.5-1.1" transform="translate(9057.329 -1200)" fill="#e42613"/>
    <path id="Path_964" data-name="Path 964" d="M61.9,7577.2h-4v-1.1h3.4a.53.53,0,0,1,.6.6Zm0,3.2h-4v-1h4Zm-6.7-3.1H51.7v-.6c0-.2.1-.4.2-.4a.6.6,0,0,1,.4-.1h2.9v1.1Zm0,3.1H51.7v-1h3.5ZM54.1,7592l.3-.3c.1-.2.2-.3.2-.5a.638.638,0,0,0,0-.6c-.1-.2-.1-.4-.3-.6l-1.3-1.4h6.8v1.9c0,.2-.1.3-.1.5a.4.4,0,0,1-.5.1,1.267,1.267,0,0,0-.6-.1c-.2-.1-.6-.2-1.2-.4a1.732,1.732,0,0,0-1.2-.1c-.3.1-.4.3-.6.7a1.673,1.673,0,0,0-.1,1.2,1.427,1.427,0,0,0,1,.8,15.4,15.4,0,0,0,1.7.5,6.144,6.144,0,0,0,1.4.1,3.136,3.136,0,0,0,2.4-.7,3.6,3.6,0,0,0,.7-2.4v-2h2c.5,0,.9-.1,1-.3a1.328,1.328,0,0,0,.3-1,1.8,1.8,0,0,0-.3-1.1,1.492,1.492,0,0,0-1-.3h-2v-.3c0-.1-.1-.2-.1-.3a1.806,1.806,0,0,0,1.4-1,5,5,0,0,0,.4-2.3v-5.7a3.678,3.678,0,0,0-.5-2,2.4,2.4,0,0,0-1.9-.6H57.7v-.8H64a1.328,1.328,0,0,0,1-.3,1.494,1.494,0,0,0,.3-1c0-.4-.1-.9-.3-1a1.492,1.492,0,0,0-1-.3H63a5.539,5.539,0,0,0-.6-.8c-.2-.2-.3-.4-.5-.6a1.525,1.525,0,0,0-1-.6,1.061,1.061,0,0,0-.9.3,1.072,1.072,0,0,0-.1,1.2c.2.3.2.4.2.4H57.8v-.5c0-.5-.1-.9-.3-1a1.818,1.818,0,0,0-2,0,1.053,1.053,0,0,0-.4,1v.6H49.5a1.328,1.328,0,0,0-1,.3,1.493,1.493,0,0,0-.3,1c0,.4.1.9.3,1a1.492,1.492,0,0,0,1,.3h5.6v.8H51.2a2.546,2.546,0,0,0-1.9.6,2.654,2.654,0,0,0-.6,2v7.7a1.053,1.053,0,0,0,.4,1,1.688,1.688,0,0,0,1,.3,1.1,1.1,0,0,0,1.3-1.3v-1.5h3.5v1.4a1.175,1.175,0,0,0,.4,1,1.688,1.688,0,0,0,1,.3,1.1,1.1,0,0,0,1.3-1.3v-1.4h4v.1c0,.3-.2.5-.5.4a1.8,1.8,0,0,0-1-.1,1.015,1.015,0,0,0-.7.6,1.079,1.079,0,0,0-.2.9,2.239,2.239,0,0,0,.7.7,1.493,1.493,0,0,0-.3,1h-11a1.328,1.328,0,0,0-1,.3,1.817,1.817,0,0,0,0,2,1.326,1.326,0,0,0,1,.3h1.2s2.3,2.7,2.7,3.1c0-.3.7.7,1.6.1" transform="translate(9057.329 -1200)" fill="#e42613"/>
  </g>
</svg>
