<svg xmlns="http://www.w3.org/2000/svg" width="165" height="74" viewBox="0 0 165 74">
  <g id="_23" data-name="23" transform="translate(-8083.329 -5164)">
    <rect id="Rectangle_311" data-name="Rectangle 311" width="165" height="74" transform="translate(8083.329 5164)" fill="#007b5d"/>
    <path id="Path_200" data-name="Path 200" d="M14.5,762.7h9.3v11a6.336,6.336,0,0,1,5.6-2.6c5.4,0,8.5,3.7,8.5,10.3,0,6.3-3.1,10.1-8.3,10.1-3.1,0-5.3-1.1-6.5-3.6v3.3H14.4l.1-28.5Zm9.1,18.5c0,2.9.6,4.3,2.3,4.3,1.6,0,2.3-1.4,2.3-4.3s-.7-4.3-2.3-4.3C24.2,776.9,23.6,778.3,23.6,781.2Z" transform="translate(8083.329 4424)" fill="#001722"/>
    <path id="Path_201" data-name="Path 201" d="M61.7,783.4H48.8c.2,2.2,1.9,3.2,5,3.2a17.734,17.734,0,0,0,6.7-1.3v5.1a23.053,23.053,0,0,1-8.6,1.4c-7.9,0-12.2-3.8-12.2-10.5,0-6.5,4.2-10.5,11.2-10.5,7.8,0,10.8,3.6,10.8,11.3Zm-8.1-3.9v-.6c0-2.2-.8-3.5-2.4-3.5s-2.5,1.3-2.5,3.6v.6l4.9-.1Z" transform="translate(8083.329 4424)" fill="#001722"/>
    <path id="Path_202" data-name="Path 202" d="M75.4,771.3h4.3v5.8H75.4v4.8c0,2.4.4,3.6,2.2,3.6a8.793,8.793,0,0,0,2-.3v5.7a20.869,20.869,0,0,1-6.1.8c-2.6,0-4.6-.8-5.8-2.3-1.5-1.9-1.6-4.3-1.6-7.5v-4.8H62.8v-5.8h3.3v-4.4l9.3-2.9Z" transform="translate(8083.329 4424)" fill="#001722"/>
    <path id="Path_203" data-name="Path 203" d="M89.5,785.9c2.5,0,3.9-.8,3.9-2.6,0-1.7-1.4-2.7-4-2.7a21.363,21.363,0,0,0-3.4.3v-5.8c1.1.1,2,.2,3,.2,2.7,0,4.1-.8,4.1-2.6s-1.2-2.6-3.8-2.6a23.286,23.286,0,0,0-6.4,1.3v-6a25.736,25.736,0,0,1,8.4-1.2c7.2,0,11.3,3.1,11.3,7.9,0,3-1.9,5.1-5.3,5.9,3.7.8,5.7,2.9,5.7,6.1,0,5-4.2,8-12.2,8a38.171,38.171,0,0,1-8.1-1v-6.2A31.887,31.887,0,0,0,89.5,785.9Z" transform="translate(8083.329 4424)" fill="#001722"/>
    <path id="Path_204" data-name="Path 204" d="M119.4,774c5.6,0,9.4,3.5,9.4,8.6,0,5.5-4.3,9.3-11,9.3-7.9,0-13.1-5-13.1-13.2,0-9.3,5.4-14.6,15.2-14.6a30.9,30.9,0,0,1,6.6.7v6a23,23,0,0,0-6.3-1c-4.3,0-6.3,1.7-6.4,5.7A9.03,9.03,0,0,1,119.4,774Zm.8,8.4c0-2.2-1.2-3.6-3.1-3.6-1.8,0-3,1.4-3,3.6s1.2,3.6,3,3.6C119,786,120.2,784.6,120.2,782.4Z" transform="translate(8083.329 4424)" fill="#001722"/>
    <path id="Path_205" data-name="Path 205" d="M131.6,764.8H150v6.3h-9.8v4c.8,0,1.3-.1,1.5-.1,6.1,0,9.4,3.1,9.4,8.3,0,5.4-4,8.6-11.8,8.6a32.241,32.241,0,0,1-8.1-1.1v-6a19.572,19.572,0,0,0,5.4.8c3.2,0,4.8-1.1,4.8-3,0-2.2-1.7-3.3-5.3-3.3a23.158,23.158,0,0,0-4.5.6V764.8Z" transform="translate(8083.329 4424)" fill="#001722"/>
    <path id="Path_206" data-name="Path 206" d="M88.9,785.4c2.5,0,3.9-.8,3.9-2.6,0-1.7-1.4-2.7-4-2.7a21.363,21.363,0,0,0-3.4.3v-5.8c1.1.1,2,.2,3,.2,2.7,0,4.1-.8,4.1-2.6s-1.2-2.6-3.8-2.6a23.286,23.286,0,0,0-6.4,1.3v-6a25.736,25.736,0,0,1,8.4-1.2c7.2,0,11.3,3.1,11.3,7.9,0,3-1.9,5.1-5.3,5.9,3.7.8,5.7,2.9,5.7,6,0,5-4.2,8-12.2,8a38.171,38.171,0,0,1-8.1-1v-6.2A31.777,31.777,0,0,0,88.9,785.4Z" transform="translate(8083.329 4424)" fill="#ffe418"/>
    <path id="Path_207" data-name="Path 207" d="M118.8,773.4c5.6,0,9.4,3.5,9.4,8.6,0,5.5-4.3,9.3-11,9.3-7.9,0-13.1-5-13.1-13.2,0-9.3,5.4-14.6,15.2-14.6a30.9,30.9,0,0,1,6.6.7v6.1a23,23,0,0,0-6.3-1c-4.3,0-6.3,1.7-6.4,5.7A9.06,9.06,0,0,1,118.8,773.4Zm.8,8.4c0-2.2-1.2-3.6-3.1-3.6-1.8,0-3,1.4-3,3.6s1.2,3.6,3,3.6C118.4,785.4,119.6,784,119.6,781.8Z" transform="translate(8083.329 4424)" fill="#ffe418"/>
    <path id="Path_208" data-name="Path 208" d="M131,764.2h18.4v6.3h-9.8v4c.8,0,1.3-.1,1.5-.1,6.1,0,9.4,3.1,9.4,8.3,0,5.4-4,8.6-11.8,8.6a32.241,32.241,0,0,1-8.1-1.1v-6a19.572,19.572,0,0,0,5.4.8c3.2,0,4.8-1.1,4.8-3,0-2.2-1.7-3.3-5.3-3.3a23.158,23.158,0,0,0-4.5.6V764.2Z" transform="translate(8083.329 4424)" fill="#ffe418"/>
    <path id="Path_209" data-name="Path 209" d="M13.9,762.1h9.3v11a6.336,6.336,0,0,1,5.6-2.6c5.4,0,8.5,3.7,8.5,10.3,0,6.3-3.1,10.1-8.3,10.1-3.1,0-5.3-1.1-6.5-3.6v3.3H13.8l.1-28.5Zm9,18.5c0,2.9.6,4.3,2.3,4.3,1.6,0,2.3-1.4,2.3-4.3s-.7-4.3-2.3-4.3S22.9,777.7,22.9,780.6Z" transform="translate(8083.329 4424)" fill="#fff"/>
    <path id="Path_210" data-name="Path 210" d="M61.1,782.8H48.2c.2,2.2,1.9,3.2,5,3.2a17.734,17.734,0,0,0,6.7-1.3v5.1a23.053,23.053,0,0,1-8.6,1.4c-7.9,0-12.2-3.8-12.2-10.5,0-6.5,4.2-10.5,11.2-10.5,7.8,0,10.8,3.6,10.8,11.3ZM53,779v-.6c0-2.2-.8-3.5-2.4-3.5s-2.5,1.3-2.5,3.6v.6L53,779Z" transform="translate(8083.329 4424)" fill="#fff"/>
    <path id="Path_211" data-name="Path 211" d="M74.8,770.7h4.3v5.8H74.8v4.8c0,2.4.4,3.6,2.2,3.6a8.793,8.793,0,0,0,2-.3v5.7a20.869,20.869,0,0,1-6.1.8c-2.6,0-4.6-.8-5.8-2.3-1.5-1.9-1.6-4.3-1.6-7.5v-4.8H62.2v-5.8h3.3v-4.4l9.3-2.9Z" transform="translate(8083.329 4424)" fill="#fff"/>
  </g>
</svg>
