<svg xmlns="http://www.w3.org/2000/svg" width="165" height="74" viewBox="0 0 165 74">
  <g id="_25" data-name="25" transform="translate(-9057.329 -5904)">
    <g id="Group_2146" data-name="Group 2146">
      <rect id="Rectangle_768" data-name="Rectangle 768" width="165" height="74" transform="translate(9057.329 5904)" fill="#e20001"/>
      <path id="Path_928" data-name="Path 928" d="M42,7133.6s-1.4-.3-2.5,1.9c-.8,1.7-4,8.8-5.4,12.2v-11.6s0-2.7-2.4-2.7c0,0-1-.2-2.3,1.5s-3.6,4.8-3.6,4.8l-3.6-4.8c-1.3-1.7-2.3-1.5-2.3-1.5-2.4,0-2.4,2.7-2.4,2.7v13.3h3.6v-9.8s3,3.8,3.5,4.7c.6.9,1.1.8,1.1.8s.6.1,1.1-.8c.6-.9,3.5-4.7,3.5-4.7v9.8h6.8l1.3-2.9h6.8l1.3,2.9h4s-5.1-11.7-6.2-13.9C43.4,7133.4,42,7133.6,42,7133.6Zm0,9.4H40.2l1.8-4.3,1.8,4.3Zm24.7-5.8a6.15,6.15,0,0,1,2.9.8c1.2.8,2.1-.1,3.4-1.7a8.279,8.279,0,0,0-6.4-3,7.649,7.649,0,0,0-6.5,3.8v-1.5a1.774,1.774,0,0,0-1.7-2H48.9a1.832,1.832,0,0,0-1.8,2v1.6h4.7v12.3h3.6v-12.3H60a9.012,9.012,0,0,0-1.3,4h0v.8h0c.3,4.7,3.8,7.9,7.8,7.9a8.119,8.119,0,0,0,6.4-2.9c-1.3-1.6-2.2-2.4-3.4-1.7a6.15,6.15,0,0,1-2.9.8c-2.9,0-4.1-2.3-4.2-4.4C62.6,7139.5,63.7,7137.2,66.7,7137.2Zm72.3,4.4,2-2,2.8-2.8a1.768,1.768,0,0,0-2.5-2.5l-2.8,2.8-1.7,1.7v-3.2a1.8,1.8,0,0,0-3.6,0v14.1h3.6V7144Zm-54.1-8a1.792,1.792,0,0,0-1.8,1.8v4.3H77v-4.3a1.8,1.8,0,0,0-3.6,0v14.1H77v-6.1h6.1v6.1h3.6v-14.1A1.859,1.859,0,0,0,84.9,7133.6Z" transform="translate(9057.329 -1200)" fill="#fff"/>
      <path id="Path_929" data-name="Path 929" d="M139.9,7141.9l-2.3,2.6,4.6,5h5.3Z" transform="translate(9057.329 -1200)" fill="#fff"/>
      <path id="Path_930" data-name="Path 930" d="M99.6,7141.3c1.3-.3,1.7-1.6,1.7-3.2a4.525,4.525,0,0,0-4.9-4.5H90.3a2.187,2.187,0,0,0-2.2,2.3v13.6h7.6s5.9.5,5.9-4.9C101.6,7143.1,100.7,7141.3,99.6,7141.3Zm-7.9-4.1h3.9c1.1,0,1.7.3,1.7,1.3,0,1.3-1.6,1.3-1.6,1.3h-4Zm4.3,8.7H91.7V7143h4.2c1.2,0,1.9.3,1.9,1.4C97.8,7145.9,96,7145.9,96,7145.9Zm28-12.5s-3.7,0-6.2,4.4a38.588,38.588,0,0,1,2.2,3.3s1.8-3.6,4.7-3.8c3.4-.2,4.3,2.8,4.4,4.3a4,4,0,0,1-4,4.3c-1.8.1-3.1-.6-4.6-2.4l-4.2-6.4a8.123,8.123,0,1,0-6.7,12.6,8.529,8.529,0,0,0,6.8-4.1c-1.9-2.8-2.3-3.3-2.3-3.3s-2.1,3.5-4.9,3.5c-3.4,0-4.1-3.1-4.1-4.6a4.027,4.027,0,0,1,4.3-4c1.8,0,3,.7,4.3,2.5,0,0,3.5,5.3,4.5,6.7,3.5,3.9,6.9,3.3,6.9,3.3a8.193,8.193,0,0,0,7.6-8.8,8.1,8.1,0,0,0-8.7-7.5Z" transform="translate(9057.329 -1200)" fill="#fff"/>
    </g>
  </g>
</svg>
