<svg xmlns="http://www.w3.org/2000/svg" xmlns:xlink="http://www.w3.org/1999/xlink" width="165" height="74" viewBox="0 0 165 74">
  <defs>
    <clipPath id="clip-_26">
      <rect width="165" height="74"/>
    </clipPath>
  </defs>
  <g id="_26" data-name="26" clip-path="url(#clip-_26)">
    <rect width="165" height="74" fill="#fff"/>
    <g id="_26-2" data-name="26" transform="translate(0.505)">
      <g id="Layer_1" data-name="Layer 1">
        <rect id="Rectangle_1088" data-name="Rectangle 1088" width="164.99" height="74" fill="#fff"/>
        <path id="Path_2007" data-name="Path 2007" d="M56.769,35.935l-1.61,5.385,3.3.1Z" transform="translate(-14.165 -9.228)" fill="none"/>
        <path id="Path_2008" data-name="Path 2008" d="M102.363,35.935l-1.59,5.385h3.2Z" transform="translate(-25.879 -9.228)" fill="none"/>
        <path id="Path_2009" data-name="Path 2009" d="M78.83,34.756H76.843v3.1h1.808a4.988,4.988,0,0,0,1.192-.2,1.371,1.371,0,0,0,.795-.5,1.411,1.411,0,0,0-.2-1.987A2.524,2.524,0,0,0,78.83,34.756Z" transform="translate(-19.734 -8.923)" fill="none"/>
        <path id="Path_2010" data-name="Path 2010" d="M162.8,39.283h0a4.928,4.928,0,0,0,.894,3.3,3.2,3.2,0,0,0,4.59.1h0l.1-.1a5.961,5.961,0,0,0,.815-3.5,4.292,4.292,0,0,0-.914-3.1,3.1,3.1,0,0,0-4.59,0,5.186,5.186,0,0,0-.894,3.3Z" transform="translate(-41.802 -8.98)" fill="none"/>
        <path id="Path_2011" data-name="Path 2011" d="M55.961,60.4l.1.1Z" transform="translate(-14.371 -15.511)" fill="#636369"/>
        <path id="Path_2012" data-name="Path 2012" d="M162.8,40.774Z" transform="translate(-41.808 -10.471)" fill="#cb2129"/>
        <path id="Path_2013" data-name="Path 2013" d="M34.718,45.77h3.7v-15.1H32.333l-2.305,9.2-2.4-9.2h-6.1v15.1h3.895V34.284l2.9,11.486h3.5l2.9-11.486Z" transform="translate(-5.527 -7.876)" fill="#cb2129"/>
        <path id="Path_2014" data-name="Path 2014" d="M53.475,58.261a6.18,6.18,0,0,0,5.087,4.69l-3.1-3.1-.1-.1h0l.1.1,3.458,2.8a6.438,6.438,0,0,0-5.445-4.392Z" transform="translate(-13.732 -14.961)" fill="#636369"/>
        <path id="Path_2015" data-name="Path 2015" d="M165.81,60.533l-.2.318.3-.318Z" transform="translate(-42.529 -15.545)" fill="#636369"/>
        <path id="Path_2016" data-name="Path 2016" d="M47.753,58.929l.6.6-.5-.6Z" transform="translate(-12.263 -15.133)" fill="#636369"/>
        <path id="Path_2017" data-name="Path 2017" d="M50.362,61.771l-2.484-2.8-.715-.6h.1l.517.6,2.683,2.5a5.961,5.961,0,0,0-5.008-4.709,6.577,6.577,0,0,0,4.908,5.008Z" transform="translate(-11.673 -14.577)" fill="#636369"/>
        <path id="Path_2018" data-name="Path 2018" d="M155.882,61.232h0l-3.617,2.385a6.081,6.081,0,0,0,5.8-3.5,6.22,6.22,0,0,0-6.2,3.3Z" transform="translate(-39 -15.429)" fill="#636369"/>
        <path id="Path_2019" data-name="Path 2019" d="M166.578,58.394a6.24,6.24,0,0,0-5.4,4.392l3.3-2.6.3-.3h0l-.3.3-3,2.9A6.3,6.3,0,0,0,166.578,58.394Z" transform="translate(-41.39 -14.996)" fill="#636369"/>
        <path id="Path_2020" data-name="Path 2020" d="M174.681,56.63a6.339,6.339,0,0,0-5.166,4.809l2.7-2.4.6-.7h0l-.7.7-2.4,2.7A6.279,6.279,0,0,0,174.681,56.63Z" transform="translate(-43.532 -14.543)" fill="#636369"/>
        <path id="Path_2021" data-name="Path 2021" d="M61.763,59.985a6.259,6.259,0,0,0,5.763,3.5L63.81,61.2l4.113,2.086a6.16,6.16,0,0,0-6.16-3.3Z" transform="translate(-15.861 -15.395)" fill="#636369"/>
        <path id="Path_2022" data-name="Path 2022" d="M173.747,58.929l-.6.7.7-.7Z" transform="translate(-44.466 -15.133)" fill="#636369"/>
        <path id="Path_2023" data-name="Path 2023" d="M97.4,43.266h5.286l.815,2.5h4.888l-5.7-15.1H97.6l-5.7,15.1h4.789Zm2.683-8.684,1.61,5.385h-3.3Z" transform="translate(-23.599 -7.876)" fill="#cb2129"/>
        <path id="Path_2024" data-name="Path 2024" d="M157.366,42.6a6.935,6.935,0,0,0,2.7,2.6,8.862,8.862,0,0,0,4.213.795A8.7,8.7,0,0,0,168.474,45a6.22,6.22,0,0,0,2.6-2.7,9.26,9.26,0,0,0,.894-4.292,7.253,7.253,0,0,0-2.106-5.6,7.73,7.73,0,0,0-5.782-1.987,7.472,7.472,0,0,0-5.7,2.106,7.551,7.551,0,0,0-2.106,5.8h0a9.817,9.817,0,0,0,1.093,4.272Zm4.511-7.69a3.1,3.1,0,0,1,4.59,0,5.465,5.465,0,0,1,.914,3.1,6.14,6.14,0,0,1-.775,3.577v.1h0a3.3,3.3,0,0,1-4.69-.1,5.961,5.961,0,0,1-.894-3.2,6.379,6.379,0,0,1,.894-3.477Z" transform="translate(-40.126 -7.806)" fill="#cb2129"/>
        <path id="Path_2025" data-name="Path 2025" d="M51.92,43.266h5.286l.914,2.5h4.789l-5.7-15.1H52.119l-5.7,15.1h4.809Zm2.6-8.684,1.59,5.484h-3.3Z" transform="translate(-11.92 -7.876)" fill="#cb2129"/>
        <path id="Path_2026" data-name="Path 2026" d="M151.891,66.6l2.9,3.3v.2l-3.3-3.1a5.842,5.842,0,0,0,5.008,4.59,5.961,5.961,0,0,0-4.61-4.988Z" transform="translate(-38.904 -17.104)" fill="#636369"/>
        <path id="Path_2027" data-name="Path 2027" d="M161.625,67.123l3.974,2.206h0l-4.213-1.808a6.16,6.16,0,0,0,6.3,2.9,5.961,5.961,0,0,0-6.061-3.3Z" transform="translate(-41.444 -17.227)" fill="#636369"/>
        <path id="Path_2028" data-name="Path 2028" d="M158.584,65.264a24.6,24.6,0,0,0,9.8-3.1,32.41,32.41,0,0,1-13,2.7c-5.206-.2-6.5-.417-8.7-1.411h0l-.7.6C145.986,64.151,149.483,66.357,158.584,65.264Z" transform="translate(-37.49 -15.964)" fill="#636369"/>
        <path id="Path_2029" data-name="Path 2029" d="M143.437,45.77h4.59v-15.1h-4.59v5.306H138.33V30.668h-4.59v15.1h4.59v-6.1h5.107Z" transform="translate(-34.345 -7.876)" fill="#cb2129"/>
        <path id="Path_2030" data-name="Path 2030" d="M175.851,66.843Z" transform="translate(-45.159 -17.166)" fill="#636369"/>
        <path id="Path_2031" data-name="Path 2031" d="M120.826,61.368h2.8v6.6h2.8v-6.7h2.782V59.063h-8.286Z" transform="translate(-31.028 -15.167)" fill="#0e2244"/>
        <path id="Path_2032" data-name="Path 2032" d="M176.466,60.769l4.193-1.808h0l-4.054,2.206a6.538,6.538,0,0,0,6.3-3.2A6.6,6.6,0,0,0,176.466,60.769Z" transform="translate(-45.317 -14.867)" fill="#636369"/>
        <path id="Path_2033" data-name="Path 2033" d="M191.053,30.668v8.306l-5.7-8.306h-4.392v15.1h4.392V37.464l5.7,8.306h4.411v-15.1Z" transform="translate(-46.471 -7.876)" fill="#cb2129"/>
        <path id="Path_2034" data-name="Path 2034" d="M170.149,65.137l4.113,1.212h0l-4.213-.795a5.961,5.961,0,0,0,6.6,1.391A6.12,6.12,0,0,0,170.149,65.137Z" transform="translate(-43.669 -16.651)" fill="#636369"/>
        <path id="Path_2035" data-name="Path 2035" d="M54.157,69.6,58.131,67.4a6.379,6.379,0,0,0-6.1,3.3,6.12,6.12,0,0,0,6.3-2.9L54.237,69.6Z" transform="translate(-13.362 -17.303)" fill="#636369"/>
        <path id="Path_2036" data-name="Path 2036" d="M43.277,61.289l-4.113-2.206h0l4.312,1.709a6.458,6.458,0,0,0-6.5-2.7,6.438,6.438,0,0,0,6.3,3.2Z" transform="translate(-9.496 -14.89)" fill="#636369"/>
        <path id="Path_2037" data-name="Path 2037" d="M65.344,70l2.9-3.4a5.961,5.961,0,0,0-4.61,4.888,5.723,5.723,0,0,0,5.008-4.59Z" transform="translate(-16.342 -17.104)" fill="#636369"/>
        <path id="Path_2038" data-name="Path 2038" d="M45.253,66.586l4.292-1.292a5.961,5.961,0,0,0-6.5,1.888,6.2,6.2,0,0,0,6.6-1.391Z" transform="translate(-11.055 -16.69)" fill="#636369"/>
        <path id="Path_2039" data-name="Path 2039" d="M67.58,63.723c-2.206,1.013-3.5,1.212-8.7,1.411a34.178,34.178,0,0,1-13-2.7,26.29,26.29,0,0,0,9.8,3.1c9.1,1.093,12.6-1.113,12.6-1.113Z" transform="translate(-11.782 -16.033)" fill="#636369"/>
        <path id="Path_2040" data-name="Path 2040" d="M95.874,62.884a.854.854,0,0,0,.3-.6.715.715,0,0,0-.3-.6,1.47,1.47,0,0,0-.894-.2H93.768v1.689H94.98A1.61,1.61,0,0,0,95.874,62.884Z" transform="translate(-24.08 -15.79)" fill="none"/>
        <path id="Path_2041" data-name="Path 2041" d="M95.179,65.934H93.768v1.788h1.411a1.987,1.987,0,0,0,.994-.3.894.894,0,0,0,.3-.7.715.715,0,0,0-.3-.6A4.372,4.372,0,0,0,95.179,65.934Z" transform="translate(-24.08 -16.932)" fill="none"/>
        <path id="Path_2042" data-name="Path 2042" d="M97.742,64a2.7,2.7,0,0,0-1.411-.815,1.987,1.987,0,0,0,1.013-.6,2.086,2.086,0,0,0,.5-1.292,2.166,2.166,0,0,0-.7-1.51,2.623,2.623,0,0,0-1.987-.6H90.132v8.8h4.709c.4,0,.795-.1,1.192-.1a1.749,1.749,0,0,0,1.013-.3,1.987,1.987,0,0,0,.894-.914,2.643,2.643,0,0,0,.3-1.192,3.3,3.3,0,0,0-.5-1.49Zm-4.908-1.411V60.9h1.212a1.47,1.47,0,0,1,.894.2.854.854,0,0,1,.3.6.715.715,0,0,1-.3.6,1.013,1.013,0,0,1-.894.2l-1.212.1Zm2.305,3.2a1.669,1.669,0,0,1-.994.3H92.695V64.3h1.411a3.537,3.537,0,0,1,.994.2.854.854,0,0,1,.3.6A.894.894,0,0,1,95.139,65.788Z" transform="translate(-23.146 -15.196)" fill="#0e2244"/>
        <path id="Path_2043" data-name="Path 2043" d="M108.682,64.17h4.292V62.361h-4.193V60.97h4.511V59.063h-7.313l-.1,8.9h7.511V65.958h-4.709Z" transform="translate(-27.19 -15.167)" fill="#0e2244"/>
        <path id="Path_2044" data-name="Path 2044" d="M121.18,45.77V34.463h4.69v-3.8H111.682v3.8h4.69V45.77Z" transform="translate(-28.68 -7.876)" fill="#cb2129"/>
        <path id="Path_2045" data-name="Path 2045" d="M83.238,41.322a6.161,6.161,0,0,0-.7-1.013,5.723,5.723,0,0,0-.715-.795,6.08,6.08,0,0,0-1.192-.5,4.391,4.391,0,0,0,1.59-.6l.318-.2a4.332,4.332,0,0,0,1.093-5.961,3.537,3.537,0,0,0-1.808-1.411,12.638,12.638,0,0,0-3.4-.4H70.64V45.575h4.69v-6.16h.437a2.822,2.822,0,0,1,1.212.4,4.173,4.173,0,0,1,.795,1.113l2.464,4.65H85.7Zm-4.113-5.206a2.166,2.166,0,0,1-.795.5,4.988,4.988,0,0,1-1.192.2H75.33v-3.16h1.987a2.524,2.524,0,0,1,1.689.4,1.411,1.411,0,0,1,.119,2.067Z" transform="translate(-18.141 -7.82)" fill="#cb2129"/>
      </g>
    </g>
  </g>
</svg>
