<svg xmlns="http://www.w3.org/2000/svg" width="165" height="74" viewBox="0 0 165 74">
  <g id="_27" data-name="27" transform="translate(-8083.329 -5016)">
    <rect id="Rectangle_308" data-name="Rectangle 308" width="165" height="74" transform="translate(8083.329 5016)" fill="#ffb90c"/>
    <path id="Path_192" data-name="Path 192" d="M49.5,639.3h0c1.1,1.4,3.1,2.2,5.6,2.2h1.3c5.1,0,8.8-1.3,8.8-7.2v-3.6c0-5.4-2.4-7.4-8.7-7.4H54.6c-2.7,0-4.3.9-5,1.9h-.1v-8.7H45.7v24.3h3.8Zm0-8.8c0-4.1,2.6-4.1,6.1-4.1H56c3.4,0,5.3.6,5.3,4.5v2.7c0,3.3-.9,4.7-5.4,4.7H55c-4.3,0-5.5-1.2-5.5-4.5Z" transform="translate(8083.329 4424)" fill="#1e1e1e"/>
    <path id="Path_193" data-name="Path 193" d="M111.6,623.7h-5.1v-1.6c0-1.5,1-2.7,3.1-2.7h3.8v-2.9h-5.1c-3.1,0-5.7,1.6-5.7,5.6v1.6h-2.1v3.1h2.1v14.6h3.8V626.8h5.1l.1-3.1Z" transform="translate(8083.329 4424)" fill="#1e1e1e"/>
    <path id="Path_194" data-name="Path 194" d="M89.5,635.8c0,4,2.6,5.6,5.7,5.6H100v-3.1H96.2c-2.1,0-2.8-1-2.8-2.5v-9h5.2v-3.1H93.4v-7.2H89.6v7.2H87.5v3.1h2.1Z" transform="translate(8083.329 4424)" fill="#1e1e1e"/>
    <rect id="Rectangle_309" data-name="Rectangle 309" width="3.8" height="3.9" transform="translate(8216.929 5040.5)" fill="#1e1e1e"/>
    <rect id="Rectangle_310" data-name="Rectangle 310" width="3.8" height="18.1" transform="translate(8216.929 5047.3)" fill="#1e1e1e"/>
    <path id="Path_195" data-name="Path 195" d="M75.1,641.4h3.4c4.6,0,6.8-1.5,7.3-4.1l-3.4-1c-.6,1.6-1.9,2-4.9,2h-.9c-4.9,0-5.7-.6-5.7-4.5H86.1v-3.4c0-6.1-3.2-7.2-8.2-7.2H76c-4,0-8.8.7-8.8,6.9v4.3C67.2,640.5,71.4,641.5,75.1,641.4Zm-4.2-11.2c0-3.5,1.6-3.8,5.6-3.8h.8c4.5,0,5,1.1,5,3.4v1H70.9Z" transform="translate(8083.329 4424)" fill="#1e1e1e"/>
    <path id="Path_196" data-name="Path 196" d="M121.6,623.3h-1.4c-5.2,0-7.5,1.6-7.6,4l3.7,1.2c.2-1.6,2-2.1,4.9-2.1,4.2,0,5.2.2,5.2,3.3v1.7h-.1c-1-1.3-2.3-1.6-5.6-1.6h-1.5c-4.9,0-7.7,1.2-7.7,5.1V636c0,3.2,1.2,5.5,6.3,5.5h3.7c3.7,0,4.1-.6,4.8-1.7h.1v1.7h3.8V629.8C130.2,624.7,126.8,623.3,121.6,623.3Zm4.8,12.7c0,1.7-1.2,2.3-5.7,2.3h-1c-3.9,0-4.3-.7-4.3-2.2v-1c0-1.7,1-2.3,4.2-2.3h1.7c2.9,0,5.2.6,5.2,2.5l-.1.7Z" transform="translate(8083.329 4424)" fill="#1e1e1e"/>
    <path id="Path_197" data-name="Path 197" d="M149.2,623.3a4.977,4.977,0,0,0-4.5,2.4h-.1v-2.4H141v18.1h3.8V630.5a3.855,3.855,0,0,1,4.2-4.1c2.1,0,3.2.6,3.4,1.2l2.4-1.6C154.2,624.3,152.6,623.3,149.2,623.3Z" transform="translate(8083.329 4424)" fill="#1e1e1e"/>
    <path id="Path_198" data-name="Path 198" d="M38.6,616.6h-10v5H23.3l10.3,12,10.3-12H38.6Z" transform="translate(8083.329 4424)" fill="#1e1e1e"/>
    <path id="Path_199" data-name="Path 199" d="M10.3,636.4h5.3v4.9h9.9v-4.9h5.3l-10.3-12Z" transform="translate(8083.329 4424)" fill="#1e1e1e"/>
  </g>
</svg>
