<svg xmlns="http://www.w3.org/2000/svg" width="165" height="74" viewBox="0 0 165 74">
  <g id="_270" data-name="270" transform="translate(-8083.329 -6496)">
    <rect id="Rectangle_738" data-name="Rectangle 738" width="165" height="74" transform="translate(8083.329 6496)" fill="#ff6400"/>
    <path id="Path_740" data-name="Path 740" d="M56.8,2101.9a5.03,5.03,0,0,0-4.2,4.9,5,5,0,1,0,5.8-4.9H56.8Zm5.9-12.2a5,5,0,1,0-5.8,4.9h1.7A4.955,4.955,0,0,0,62.7,2089.7Z" transform="translate(8083.329 4424)" fill="none"/>
    <path id="Path_741" data-name="Path 741" d="M56.8,2094.6a5.03,5.03,0,0,1-4.2-4.9,5,5,0,1,1,5.8,4.9,12.622,12.622,0,0,1,7.9,3.6,12,12,0,0,0,3.5-8.6,12.2,12.2,0,1,0-20.9,8.6A12.867,12.867,0,0,1,56.8,2094.6Z" transform="translate(8083.329 4424)" fill="#fee2d1"/>
    <path id="Path_742" data-name="Path 742" d="M56.8,2101.9h1.7c-.3,0-.6-.1-.9-.1A2.5,2.5,0,0,0,56.8,2101.9Z" transform="translate(8083.329 4424)" fill="#fff"/>
    <path id="Path_743" data-name="Path 743" d="M58.5,2101.9a5.03,5.03,0,0,1,4.2,4.9,5,5,0,1,1-5.8-4.9,12.622,12.622,0,0,1-7.9-3.6,12,12,0,0,0-3.5,8.6,12.2,12.2,0,1,0,20.9-8.6A12.383,12.383,0,0,1,58.5,2101.9Z" transform="translate(8083.329 4424)" fill="#fee2d1"/>
    <path id="Path_744" data-name="Path 744" d="M56.8,2094.6c.3,0,.6.1.8.1a2.766,2.766,0,0,0,.9-.1H56.8Z" transform="translate(8083.329 4424)" fill="#fff"/>
    <path id="Path_745" data-name="Path 745" d="M56.8,2101.9c.3,0,.6-.1.8-.1a2.766,2.766,0,0,1,.9.1,12.622,12.622,0,0,0,7.9-3.6,11.9,11.9,0,0,0-7.9-3.6c-.3,0-.6.1-.9.1a1.948,1.948,0,0,1-.8-.1,12.622,12.622,0,0,0-7.9,3.6A12.867,12.867,0,0,0,56.8,2101.9Z" transform="translate(8083.329 4424)" fill="#fffaf7"/>
    <path id="Path_746" data-name="Path 746" d="M81.7,2101.9a5.03,5.03,0,0,0-4.2,4.9,5,5,0,1,0,5.8-4.9H81.7Zm5.8-12.2a5,5,0,1,0-5.8,4.9h1.6A4.951,4.951,0,0,0,87.5,2089.7Z" transform="translate(8083.329 4424)" fill="none"/>
    <path id="Path_747" data-name="Path 747" d="M81.7,2094.6a5.03,5.03,0,0,1-4.2-4.9,5,5,0,1,1,5.8,4.9,12.622,12.622,0,0,1,7.9,3.6,12,12,0,0,0,3.5-8.6,12.2,12.2,0,1,0-20.9,8.6,12.383,12.383,0,0,1,7.9-3.6Z" transform="translate(8083.329 4424)" fill="#fee2d1"/>
    <path id="Path_748" data-name="Path 748" d="M81.7,2101.9h1.6c-.3,0-.6-.1-.8-.1A1.956,1.956,0,0,0,81.7,2101.9Z" transform="translate(8083.329 4424)" fill="#fff"/>
    <path id="Path_749" data-name="Path 749" d="M83.3,2101.9a5.03,5.03,0,0,1,4.2,4.9,5,5,0,1,1-5.8-4.9,12.622,12.622,0,0,1-7.9-3.6,12,12,0,0,0-3.5,8.6,12.2,12.2,0,1,0,20.9-8.6A12.383,12.383,0,0,1,83.3,2101.9Z" transform="translate(8083.329 4424)" fill="#fee2d1"/>
    <path id="Path_750" data-name="Path 750" d="M81.7,2094.6c.3,0,.6.1.8.1a1.948,1.948,0,0,0,.8-.1H81.7Z" transform="translate(8083.329 4424)" fill="#fff"/>
    <path id="Path_751" data-name="Path 751" d="M81.7,2101.9c.3,0,.6-.1.8-.1a1.948,1.948,0,0,1,.8.1,12.622,12.622,0,0,0,7.9-3.6,11.9,11.9,0,0,0-7.9-3.6c-.3,0-.6.1-.8.1a1.948,1.948,0,0,1-.8-.1,12.622,12.622,0,0,0-7.9,3.6A12.383,12.383,0,0,0,81.7,2101.9Z" transform="translate(8083.329 4424)" fill="#fffaf7"/>
    <path id="Path_752" data-name="Path 752" d="M106.5,2101.9a5.03,5.03,0,0,0-4.2,4.9,5,5,0,1,0,5.8-4.9h-1.6Zm5.8-12.2a5,5,0,1,0-5.8,4.9h1.7a4.955,4.955,0,0,0,4.1-4.9Z" transform="translate(8083.329 4424)" fill="none"/>
    <path id="Path_753" data-name="Path 753" d="M106.5,2094.6a5.03,5.03,0,0,1-4.2-4.9,5,5,0,1,1,5.8,4.9,12.622,12.622,0,0,1,7.9,3.6,12,12,0,0,0,3.5-8.6,12.2,12.2,0,1,0-20.9,8.6A12.383,12.383,0,0,1,106.5,2094.6Z" transform="translate(8083.329 4424)" fill="#fee2d1"/>
    <path id="Path_754" data-name="Path 754" d="M106.5,2101.9h1.7c-.3,0-.6-.1-.8-.1A2.773,2.773,0,0,0,106.5,2101.9Z" transform="translate(8083.329 4424)" fill="#fff"/>
    <path id="Path_755" data-name="Path 755" d="M108.2,2101.9a5.03,5.03,0,0,1,4.2,4.9,5,5,0,1,1-5.8-4.9,12.622,12.622,0,0,1-7.9-3.6,12,12,0,0,0-3.5,8.6,12.2,12.2,0,1,0,20.9-8.6A12.867,12.867,0,0,1,108.2,2101.9Z" transform="translate(8083.329 4424)" fill="#fee2d1"/>
    <path id="Path_756" data-name="Path 756" d="M106.5,2094.6c.3,0,.6.1.9.1a1.948,1.948,0,0,0,.8-.1h-1.7Z" transform="translate(8083.329 4424)" fill="#fff"/>
    <path id="Path_757" data-name="Path 757" d="M106.5,2101.9c.3,0,.6-.1.9-.1a1.948,1.948,0,0,1,.8.1,12.622,12.622,0,0,0,7.9-3.6,11.9,11.9,0,0,0-7.9-3.6c-.3,0-.6.1-.8.1a3.082,3.082,0,0,1-.9-.1,12.622,12.622,0,0,0-7.9,3.6A12.383,12.383,0,0,0,106.5,2101.9Zm-22.8,22.8a4.355,4.355,0,0,0-4.1,2.3v-2H77.5v15.5h2.1v-6.7a4.382,4.382,0,0,0,4,2.2,5.334,5.334,0,0,0,5.4-5.7A5.509,5.509,0,0,0,83.7,2124.7Zm-.4,9.3a3.706,3.706,0,1,1,3.5-3.7A3.528,3.528,0,0,1,83.3,2134Zm12.9-9.3a5.613,5.613,0,0,0-5.6,5.7,5.677,5.677,0,0,0,5.6,5.7,5.7,5.7,0,0,0,0-11.4Zm0,9.2a3.6,3.6,0,1,1,3.6-3.6A3.585,3.585,0,0,1,96.2,2133.9Zm7.9-9h2.1v2.6a4.267,4.267,0,0,1,3.9-2.7v2.1a3.924,3.924,0,0,0-3.8,2.6,11.029,11.029,0,0,0-.1,2.2v4.2h-2.1Zm7.6,0v2.1h1.4v6.2a2.734,2.734,0,0,0,3,2.8c1.8,0,2.2-.4,2.2-.4v-1.8a4.74,4.74,0,0,1-1.6.3c-1.6,0-1.5-1.5-1.5-2.2V2127h3.1v-2.1h-3v-3.1h-2.1v3.1Zm-36.8,1-.5,1.7a5.238,5.238,0,0,0-3-1.1c-1.2,0-1.7.7-1.7,1.1s0,1,2.1,1.7c2.1.8,3.6,1.6,3.6,3.7s-2,3.1-4.4,3.1a6.794,6.794,0,0,1-4.4-1.8l1-1.5a6.027,6.027,0,0,0,3.7,1.5c2.1,0,2.2-1.3,2.2-1.5,0-.9-.9-1.2-2.3-1.8s-3.7-1.3-3.4-3.7,3.3-3.2,5.7-2.3C74.5,2125.6,74.9,2125.9,74.9,2125.9Z" transform="translate(8083.329 4424)" fill="#fffaf7"/>
  </g>
</svg>
