<svg xmlns="http://www.w3.org/2000/svg" width="165" height="74" viewBox="0 0 165 74">
  <g id="_286" data-name="286" transform="translate(-8737.329 -4572)">
    <rect id="Rectangle_742" data-name="Rectangle 742" width="165" height="74" transform="translate(8737.329 4572)" fill="#fff"/>
    <path id="Path_765" data-name="Path 765" d="M135.2,2679.7h1.7a7.754,7.754,0,0,1,4.6,1.8,11.986,11.986,0,0,1,1.1,1.2,9.039,9.039,0,0,1,1.1,2.7,7.153,7.153,0,0,1-.5,4.3,11.428,11.428,0,0,1-2.9,4,28.9,28.9,0,0,1-7.5,5,17.018,17.018,0,0,1-2.4.9c.3-.3.6-.4.9-.7a30.017,30.017,0,0,0,6.5-5.8,9.557,9.557,0,0,0,2-4.6,5.179,5.179,0,0,0-.9-3.8,4.689,4.689,0,0,0-2.4-1.5,12.333,12.333,0,0,0-4.7-.2,29.587,29.587,0,0,0-5.9,1.3,61.233,61.233,0,0,0-9.3,3.5,66.228,66.228,0,0,1,9.3-5.4A33.156,33.156,0,0,1,135.2,2679.7Z" transform="translate(8737.329 1908)" fill="#900"/>
    <path id="Path_766" data-name="Path 766" d="M124.9,2689.7a2.75,2.75,0,0,1,1.8.2,3.158,3.158,0,0,1,1.7,2.2,4.28,4.28,0,0,1-1.1,3.9,3.521,3.521,0,0,1-1.9,1,2.856,2.856,0,0,1-2.6-.8,3.959,3.959,0,0,1-.8-3.9A3.68,3.68,0,0,1,124.9,2689.7Z" transform="translate(8737.329 1908)" fill="#900"/>
    <path id="Path_767" data-name="Path 767" d="M79.2,2692.6c.7-.2,1.4-.6,2.2-.8-.7,2.4-1.3,4.8-1.9,7.1h6.2a17.316,17.316,0,0,0-3,5.7H78l-2.1,8.1a1.91,1.91,0,0,0,.3,1.9,2.56,2.56,0,0,0,1.9.8,10.556,10.556,0,0,0,2.5-.2c-.8,1.5-1.6,3-2.4,4.4-.4.8-.8,1.5-1.3,2.3a16.186,16.186,0,0,1-2.2.1,7.713,7.713,0,0,1-4.2-1.3,4.823,4.823,0,0,1-1.7-2.9,12.516,12.516,0,0,1,.4-4.7c.7-2.8,1.5-5.6,2.2-8.4H67.9c.9-1.9,1.9-3.8,2.8-5.7h2.1l1.2-4.5C75.7,2693.9,77.4,2693.3,79.2,2692.6Z" transform="translate(8737.329 1908)" fill="#900"/>
    <path id="Path_768" data-name="Path 768" d="M22.4,2698.2c.5-2,1-4,1.6-6h8.4a17.685,17.685,0,0,1,2.3.1,11.163,11.163,0,0,1,4.8,1.4,4.647,4.647,0,0,1,2.3,3.3,7.594,7.594,0,0,1-.6,4.2,8.875,8.875,0,0,1-4.8,4.9c-.1.1-.3.1-.4.2a6.712,6.712,0,0,1,1.4.9,5.851,5.851,0,0,1,1.7,4,10.434,10.434,0,0,1-1,4.3,11.29,11.29,0,0,1-7,5.8,27.628,27.628,0,0,1-7.6.7H16v-.1c2.2-7.9,4.3-15.8,6.4-23.7m7.3-.1c-.5,2-1.1,4-1.6,6a12.965,12.965,0,0,0,3.4-.2,3.6,3.6,0,0,0,2.2-1.8,4.188,4.188,0,0,0,.5-2.5,1.548,1.548,0,0,0-1-1.2,8.481,8.481,0,0,0-3.5-.3m-4.8,18h2a5.8,5.8,0,0,0,3.4-.9,3.62,3.62,0,0,0,1.5-2.3,2.232,2.232,0,0,0-.2-2.1,2.965,2.965,0,0,0-1.5-.7c-1.2-.2-2.3-.1-3.5-.2C26,2712,25.4,2714.1,24.9,2716.1Z" transform="translate(8737.329 1908)" fill="#900"/>
    <path id="Path_769" data-name="Path 769" d="M53.3,2698.8a11.009,11.009,0,0,1,4-.5,9.449,9.449,0,0,1,5.4,1.8,7.844,7.844,0,0,1,3.1,5c-5.5,3.1-10.9,6.1-16.4,9.2,0,.2.2.4.3.6a3.468,3.468,0,0,0,2.2,1,10.232,10.232,0,0,0,4.6-.9,21.387,21.387,0,0,0,3-1.7c.7,1.7,1.4,3.5,2,5.2a21.439,21.439,0,0,1-9.1,3.4,12.9,12.9,0,0,1-3.4,0,8.576,8.576,0,0,1-6.4-4.8,9.712,9.712,0,0,1-.6-6.7,14.044,14.044,0,0,1,2.9-5.7,17.737,17.737,0,0,1,8.4-5.9m.5,5.3a7.329,7.329,0,0,0-3.5,2.5,8,8,0,0,0-1.7,3.6c3.2-1.8,6.3-3.6,9.4-5.5a2.716,2.716,0,0,0-1.7-.8A6.877,6.877,0,0,0,53.8,2704.1Z" transform="translate(8737.329 1908)" fill="#900"/>
    <path id="Path_770" data-name="Path 770" d="M99.8,2691.6a20.183,20.183,0,0,1,6.5-.4,8.288,8.288,0,0,1,2.8.8c0,.5-.1,1-.1,1.5-.2,2.1-.4,4.3-.7,6.4a22.664,22.664,0,0,0-2-1.3,7.381,7.381,0,0,0-4.1-.8,11.14,11.14,0,0,0-6.3,2.4,10.729,10.729,0,0,0-2.9,3.1,9.744,9.744,0,0,0-1.5,4,7.491,7.491,0,0,0,.3,4.2,5.1,5.1,0,0,0,2.2,2.6,8.183,8.183,0,0,0,5.1,1.1,9.746,9.746,0,0,0,4-1.5,3.332,3.332,0,0,1,1-.6c-.4,1.7-.9,3.4-1.4,5.1-.3.9-.5,1.9-.8,2.8a6.072,6.072,0,0,1-1.8.5,19.333,19.333,0,0,1-4.1.6,15.512,15.512,0,0,1-6.4-1.2,12.3,12.3,0,0,1-3.1-1.9,9.763,9.763,0,0,1-2.5-3.5,13.2,13.2,0,0,1-.9-5.6,18.957,18.957,0,0,1,3.3-9.2A21.8,21.8,0,0,1,99.8,2691.6Z" transform="translate(8737.329 1908)" fill="#666"/>
    <path id="Path_771" data-name="Path 771" d="M112.8,2692.2h6.6c-2.6,10-5.3,20.1-7.9,30.1h-6.7C107.5,2712.3,110.1,2702.2,112.8,2692.2Z" transform="translate(8737.329 1908)" fill="#666"/>
    <path id="Path_772" data-name="Path 772" d="M130.3,2703.7a15.611,15.611,0,0,1,11.8-5.2,9.6,9.6,0,0,1,6.8,2.7h0c-.6.5-1.1,1.1-1.6,1.6-1.1,1.1-2.1,2.2-3.2,3.3a3.555,3.555,0,0,0-1.6-1.1,6.3,6.3,0,0,0-5.2.3,7.145,7.145,0,0,0-4.2,6.4,4.465,4.465,0,0,0,.6,2.8,3.824,3.824,0,0,0,2,1.5,7.489,7.489,0,0,0,2.1.2,7.107,7.107,0,0,0,4-1.6,2.994,2.994,0,0,1,.4.8c.7,1.3,1.3,2.7,2,4a4.2,4.2,0,0,1-1.4.9,20.37,20.37,0,0,1-4.7,1.7,15.494,15.494,0,0,1-4.8.2,9.742,9.742,0,0,1-4-1.5,8.722,8.722,0,0,1-2.8-3.5,9.056,9.056,0,0,1-.4-5.4,17.607,17.607,0,0,1,1.5-4.4,27.182,27.182,0,0,1,2.7-3.7Z" transform="translate(8737.329 1908)" fill="#666"/>
    <path id="Path_773" data-name="Path 773" d="M126.7,2699.9c-1.9,7.5-3.9,14.9-5.9,22.4h-6.7c1.9-7.5,3.9-14.9,5.9-22.4Z" transform="translate(8737.329 1908)" fill="#666"/>
  </g>
</svg>
