<svg xmlns="http://www.w3.org/2000/svg" width="165" height="74" viewBox="0 0 165 74">
  <g id="_289" data-name="289" transform="translate(-8737.329 -4720)">
    <rect id="Rectangle_743" data-name="Rectangle 743" width="165" height="74" transform="translate(8737.329 4720)" fill="#fff"/>
    <path id="Path_774" data-name="Path 774" d="M34.2,2836.5a8.034,8.034,0,0,1,2.7-6.2c3.3-2.9,12-10,14.2-11.3,3.4-2,6.3-.8,9.6.6,9.1,3.7,8.2,3.4,20.5,8.6,6.6,2.8,7.7,3.2,6.5,9.2-3.6,18.1-4.2,20.1-9.5,36.5-1.1,3.4-4.1,7.5-11.2,5.7-13.1-3.2-13.5-3.2-26.3-6.9-4.5-1.3-4.6-5.6-4.8-9.2-1-14.6-1-15.2-1.7-27" transform="translate(8737.329 1908)" fill="#f36518"/>
    <path id="Path_775" data-name="Path 775" d="M92.7,2852.4v5.4h1.7a2.865,2.865,0,0,0,2.1-.8,2.323,2.323,0,0,0,.9-1.9,2.518,2.518,0,0,0-.9-2,3.139,3.139,0,0,0-2.1-.7Zm0-8.7v4.4h.6a2.882,2.882,0,0,0,1.9-.6,2.453,2.453,0,0,0,.2-3.2,2.544,2.544,0,0,0-1.6-.5l-1.1-.1Zm-5.3-4.4h8.2a6,6,0,0,1,4.2,1.5,4.987,4.987,0,0,1,1.6,3.9,4.625,4.625,0,0,1-1,3.1,5.929,5.929,0,0,1-2.9,2.1,7.438,7.438,0,0,1,4.1,1.8,5.58,5.58,0,0,1,1.3,3.9,5.794,5.794,0,0,1-2.2,4.8,9.036,9.036,0,0,1-5.9,1.8H87.4" transform="translate(8737.329 1908)" fill="#656263"/>
    <path id="Path_776" data-name="Path 776" d="M103.3,2839.3h13.1v4.6h-7.7v4.2h7.2v4.5h-7.2v4.9h7.7v4.7H103.3Z" transform="translate(8737.329 1908)" fill="#656263"/>
    <path id="Path_777" data-name="Path 777" d="M116.8,2839.3h14v4.7h-4.4v18.3H121V2844h-4.2" transform="translate(8737.329 1908)" fill="#656263"/>
    <path id="Path_778" data-name="Path 778" d="M75.8,2857.2a2.39,2.39,0,0,1-2.6-2.5c0-1.4.8-2.8,1.4-2.8a5.259,5.259,0,0,1,1.5.6c1.3.6,2.3,1.3,2.3,2.4A2.347,2.347,0,0,1,75.8,2857.2Zm.1-13.9a1.894,1.894,0,0,1,2.1,1.9c0,1.2-.5,2.4-1.1,2.4a4.881,4.881,0,0,1-1.1-.4c-1.2-.5-2-1.2-2-2.2A1.933,1.933,0,0,1,75.9,2843.3Zm-15.8,13.9a2.39,2.39,0,0,1-2.6-2.5c0-1.4.8-2.8,1.4-2.8a5.259,5.259,0,0,1,1.5.6c1.3.6,2.3,1.3,2.3,2.4A2.347,2.347,0,0,1,60.1,2857.2Zm.1-13.9a1.894,1.894,0,0,1,2.1,1.9c0,1.2-.5,2.4-1.1,2.4a4.881,4.881,0,0,1-1.1-.4c-1.1-.5-2-1.2-2-2.2A1.933,1.933,0,0,1,60.2,2843.3Zm21,6.5h0a8.277,8.277,0,0,0,1.9-5.1c0-3.8-2.9-6.8-7.2-6.7a6.931,6.931,0,0,0-7.2,7,6.253,6.253,0,0,0,1.9,4.6v.1a9.211,9.211,0,0,0-2.6,4,6,6,0,0,0-2.5-3.8v-.1a7.939,7.939,0,0,0,1.9-5.1c0-3.8-2.9-6.8-7.2-6.7a6.931,6.931,0,0,0-7.2,7,6.253,6.253,0,0,0,1.9,4.6v.1a8.1,8.1,0,0,0-2.9,5.7,6.721,6.721,0,0,0,.4,2.4H50.8c-.4,0-.4-.3-.4-.7v-18a.684.684,0,0,0-.7-.7h-4a.765.765,0,0,0-.5.2l-2.8,2.7a.55.55,0,0,0-.3.5v4.1a.442.442,0,0,0,.7.3l2-2V2857c0,.4-.1.7-.4.7H42.9a.684.684,0,0,0-.7.7v3.3a.684.684,0,0,0,.7.7h9.5a.684.684,0,0,0,.7-.7V2859a7.611,7.611,0,0,0,7,3.6c4.3-.1,7.1-2.7,7.8-5.6a7.5,7.5,0,0,0,7.8,5.6c5.2-.1,8.1-3.8,8.1-7.4a6.451,6.451,0,0,0-2.6-5.4" transform="translate(8737.329 1908)" fill="#fff"/>
  </g>
</svg>
