<svg xmlns="http://www.w3.org/2000/svg" width="165" height="74" viewBox="0 0 165 74">
  <g id="_29" data-name="29" transform="translate(-8414.329 -6804)">
    <rect id="Rectangle_761" data-name="Rectangle 761" width="165" height="74" transform="translate(8414.329 6804)" fill="#e21f25"/>
    <path id="Path_851" data-name="Path 851" d="M137,5523.7a27.82,27.82,0,0,1-9-1.1c-1.8-.7-5-2.6-5.8-4.9l-.3-.8,8.9-1,.1.6a3.526,3.526,0,0,0,1.3.8,9.934,9.934,0,0,0,3,.5,4.864,4.864,0,0,0,1.2-.1,1.793,1.793,0,0,0,1.1-.5c0-.4-.6-.8-2.5-1.1-3.2-.5-5.2-1.1-6.5-1.9-3.1-2-3.2-4.1-3-5.3.5-2.8,3.2-4.3,5.5-5.3a16.887,16.887,0,0,1,5.9-1,16.121,16.121,0,0,1,6.9,1.2c1.4.6,4.6,2.3,5.2,4.4l.2.7-8.1,1.3-.2-.4a4.193,4.193,0,0,0-1.8-1.4,10.577,10.577,0,0,0-2.2-.3c-1.3,0-1.5.5-1.6.7a4.619,4.619,0,0,0,1.9.7,40.585,40.585,0,0,1,5.8,1.6c.1,0,.1,0,.2.1a7.026,7.026,0,0,1,2.8,1.5,4.551,4.551,0,0,1,1.7,3.5v.2c0,3.5-4.4,6-5.6,6.5A14.387,14.387,0,0,1,137,5523.7Z" transform="translate(8414.329 1328)"/>
    <path id="Path_852" data-name="Path 852" d="M137,5503.1a17.088,17.088,0,0,1,6.6,1.1c.7.3,4.2,2,4.8,4l-6.9,1.1a4.468,4.468,0,0,0-2.3-1.7,14.306,14.306,0,0,0-2.3-.3c-1.1,0-2,.3-2.3,1.3-.2.7,1.4,1.2,2.5,1.4a35.315,35.315,0,0,1,5.7,1.6c.1,0,.1,0,.2.1h0c1.6.5,4,1.8,4.1,4.4v.2c0,2.9-3.9,5.3-5.2,5.9a14.142,14.142,0,0,1-5,.8,26.953,26.953,0,0,1-8.8-1.1c-1.7-.6-4.7-2.5-5.4-4.5l7.4-.9c.1.8,2.5,1.9,5,1.9a5.7,5.7,0,0,0,1.3-.1c.9-.1,1.6-.6,1.6-1.2s-.4-1.4-3.1-1.9a17.063,17.063,0,0,1-6.2-1.8c-2.2-1.4-3-3.1-2.7-4.6.4-2.3,2.5-3.7,5.1-4.8a19.789,19.789,0,0,1,5.9-.9m0-1.4a16.362,16.362,0,0,0-6.2,1.1c-2.4,1.1-5.3,2.7-5.9,5.8a5.079,5.079,0,0,0,.5,3.2,8.675,8.675,0,0,0,2.7,2.7,13.39,13.39,0,0,0,1.2.6l-6.8.8-1.7.2.6,1.6a7.829,7.829,0,0,0,2.8,3.4,12.778,12.778,0,0,0,3.4,1.9q3,1.2,9.3,1.2a14.72,14.72,0,0,0,5.5-.9,13.82,13.82,0,0,0,3.5-2.3,6.672,6.672,0,0,0,2.6-4.8v-.2a5.555,5.555,0,0,0-2-4,9.352,9.352,0,0,0-3-1.7h-.1l5.2-.9,1.8-.4-.6-1.3a6.909,6.909,0,0,0-2.9-3.7,20.2,20.2,0,0,0-2.8-1.5c-1.5-.7-4.2-.8-7.1-.8Z" transform="translate(8414.329 1328)" fill="#fff"/>
    <path id="Path_853" data-name="Path 853" d="M93.1,5521.7l5.1-19.4h13.5l-1.6,6.2h-5.7l-.1.5h5l-1.4,5.8h-5.1l-.1.5h5.5l-1.3,6.4Z" transform="translate(8414.329 1328)"/>
    <path id="Path_854" data-name="Path 854" d="M110.8,5503l-1.3,4.8h-5.7l-.5,1.9h5l-1.1,4.4h-5l-.4,1.9h5.5l-1.1,5H94l4.7-18h12.1m-2.4,6.7h0m-1,6.3h0m5.2-14.3H97.7l-.3,1-4.7,18-.5,1.7h15.2l.2-1.1,1.1-5,.4-1.7h-.5l.1-.2,1.1-4.4.2-.9h.6l.3-1,1.3-4.8.4-1.6Zm-1.8,2.7Zm-2.4,4Zm-1,6.2Z" transform="translate(8414.329 1328)" fill="#fff"/>
    <path id="Path_855" data-name="Path 855" d="M111.3,5521.7l2.9-12.5-3.9.2,1.5-7.1h15.1l-1.5,7.1-3.8-.2-2.7,12.5Z" transform="translate(8414.329 1328)"/>
    <path id="Path_856" data-name="Path 856" d="M126,5503l-1.2,5.7-3.8-.2-2.8,12.5H112l2.9-12.5-3.9.2,1.2-5.7H126m1.7-1.3H111.2l-.2,1.1-1.2,5.7-.4,1.8,1.8-.1,2.1-.1-2.5,10.7-.4,1.7h9l.2-1.1,2.5-11.4,2.6.1,1.1.1.2-1.1,1.2-5.7.5-1.7Zm-1.7,2.7Z" transform="translate(8414.329 1328)" fill="#fff"/>
    <path id="Path_857" data-name="Path 857" d="M77.4,5521.7l4.8-19.3h9.6a4.088,4.088,0,0,1,3.7,1.6,4.268,4.268,0,0,1,.5,3.7,7.259,7.259,0,0,1-1.7,3.1,5.519,5.519,0,0,1-.9.7,3.338,3.338,0,0,1,1.1,1.3,5.2,5.2,0,0,1,.1,3.3,10.166,10.166,0,0,1-1.3,2.8,6.575,6.575,0,0,1-2.2,1.9,8.152,8.152,0,0,1-2.2.7,17.552,17.552,0,0,1-2.3.3H77.4Zm9.5-6a2,2,0,0,0,.9-.2,1.612,1.612,0,0,0,.4-.7,1.58,1.58,0,0,0,0-.7,1.45,1.45,0,0,0-.6-.1H86.4l-.4,1.8Zm.8-6.7a1.438,1.438,0,0,0,.9-.2.918.918,0,0,0,.4-.6v-.3a1.45,1.45,0,0,0-.6-.1h-.8l-.3,1.2Z" transform="translate(8414.329 1328)"/>
    <path id="Path_858" data-name="Path 858" d="M91.8,5503c1.5,0,2.6.4,3.1,1.3a3.84,3.84,0,0,1,.4,3.2,5.942,5.942,0,0,1-1.5,2.7,5.617,5.617,0,0,1-2,1.2,3.186,3.186,0,0,1,2.1,1.6,4.648,4.648,0,0,1,.1,2.9,5.818,5.818,0,0,1-1.2,2.5,8.592,8.592,0,0,1-2,1.8,4.74,4.74,0,0,1-2,.6,11.868,11.868,0,0,1-2.2.2H78.3l4.5-18h9m-5.4,6.7h1.3a2.272,2.272,0,0,0,1.3-.3,1.7,1.7,0,0,0,.6-1c.1-.4.1-.7-.1-.9a1.444,1.444,0,0,0-1.1-.3H87.1l-.7,2.5m.5,6.7a1.754,1.754,0,0,0,2-1.5,1.575,1.575,0,0,0-.1-1.2c-.2-.3-.6-.4-1.2-.4l-1.8-.1-.7,3.1,1.8.1m9.7-8.6a5.217,5.217,0,0,0-.6-4.3,4.968,4.968,0,0,0-4.2-1.9h-10l-.3,1-4.5,18-.4,1.7h10a11.915,11.915,0,0,0,2.4-.3,5.233,5.233,0,0,0,2.4-.8,7.911,7.911,0,0,0,2.4-2.1,6.894,6.894,0,0,0,1.4-3" transform="translate(8414.329 1328)" fill="#fff"/>
    <path id="Path_859" data-name="Path 859" d="M14.5,5517l7.4-.9c.1,1,2.6,2.4,5.6,1.9.9-.1,2.3-.7,2.3-1.2,0-.7-.5-1.4-3.8-1.9-2.8-.5-4.9-1-6.2-1.9-2.2-1.5-2.6-3.2-2.3-4.8a9.856,9.856,0,0,1,5.2-5.5,11.613,11.613,0,0,1,5-.8,11.286,11.286,0,0,1,6,1.5c.6.3,4.4,2.5,5,4.5l-6.5,1.3c-.3-1.6-2.4-1.7-3.1-1.9-1.4-.3-3.2.4-3.3.9-.3,1.3.7,1.5,1.9,1.7,2.8.6,4.2,1.1,5.8,1.5,1.3.3,4.4,3.6,4.4,4.7,0,1.3-3.9,5.6-5.2,6.2a11.592,11.592,0,0,1-4.9.9,18.8,18.8,0,0,1-7.9-1.5C18.3,5520.7,15.3,5519.1,14.5,5517Zm19.2-5.9c1.2.6,4.4,1.8,4.4,4.7,0,1.3-3.9,5.6-5.2,6.2m.8-10.9c1.6.5,4.4,1.8,4.4,4.7,0,3.1-3.9,5.6-5.2,6.2" transform="translate(8414.329 1328)" fill="#fff"/>
    <path id="Path_860" data-name="Path 860" d="M55.1,5521.7H49.4l.5-2a16.931,16.931,0,0,1-3,1.8,8.8,8.8,0,0,1-3.3.5,4.988,4.988,0,0,1-3.7-1.2c-.8-.8-.9-2-.5-3.6l2-7.9h6.2l-1.7,6.9a2.308,2.308,0,0,0,.1,1.7,1.979,1.979,0,0,0,1.4.5,3.057,3.057,0,0,0,2-.7,3.887,3.887,0,0,0,1.3-2.4l1.5-6h6.1Z" transform="translate(8414.329 1328)" fill="#fff"/>
    <path id="Path_861" data-name="Path 861" d="M60.4,5509.2h5.7l-.5,2a16.931,16.931,0,0,1,3-1.8,8.8,8.8,0,0,1,3.3-.5,4.988,4.988,0,0,1,3.7,1.2c.8.8.9,2,.5,3.7l-2,7.9H67.9l1.7-6.9a2.308,2.308,0,0,0-.1-1.7,2.071,2.071,0,0,0-1.5-.5,3.057,3.057,0,0,0-2,.7,3.887,3.887,0,0,0-1.3,2.4l-1.5,6H57Z" transform="translate(8414.329 1328)" fill="#fff"/>
    <text id="THE" transform="matrix(0.971, 0.239, -0.239, 0.971, 8457.021, 6836.01)" fill="#fff" font-size="6" font-family="SegoeUI, Segoe UI"><tspan x="0" y="0">THE</tspan></text>
  </g>
</svg>
