<svg xmlns="http://www.w3.org/2000/svg" width="165" height="74" viewBox="0 0 165 74">
  <g id="Group_354" data-name="Group 354" transform="translate(1686 -6411) rotate(90)">
    <rect id="Rectangle_744" data-name="Rectangle 744" width="165" height="74" transform="translate(6411 1686) rotate(-90)" fill="#fff"/>
    <g id="lvbet-logo" transform="translate(6435 1660.368) rotate(-90)">
      <g id="Warstwa_1" data-name="Warstwa 1">
        <path id="Path_128" data-name="Path 128" d="M194.356,16.35h12.059c4.389,0,6.272,2.8,6.272,5.4a5.7,5.7,0,0,1-4.874,5.524,4.277,4.277,0,0,1,3.088,4.291c0,2.858-1.983,6.467-7.7,6.467H189.58Zm8.678,13.391h-5.069l-.65,2.956h5.069a1.758,1.758,0,0,0,1.983-1.623,1.28,1.28,0,0,0-1.333-1.333Zm1.405-8.06h-4.686l-.618,2.728h4.874a1.5,1.5,0,0,0,1.69-1.56A1.136,1.136,0,0,0,204.439,21.682Z" transform="translate(-142.171 -12.261)" fill="#fbcb00"/>
        <path id="Path_129" data-name="Path 129" d="M290.036,16.35h16.447l-1.2,5.462H295.4l-.553,2.533H304.5l-1.2,5.462h-9.653l-.618,2.751h9.88L301.7,38.019H285.26Z" transform="translate(-213.924 -12.261)" fill="#fbcb00"/>
        <path id="Path_130" data-name="Path 130" d="M385.439,22.072H379.62l1.268-5.722h18.168l-1.268,5.722H392l-3.511,15.947h-6.564Z" transform="translate(-284.687 -12.261)" fill="#fbcb00"/>
        <path id="Path_131" data-name="Path 131" d="M5.679,0h7.8L9.31,18.968h7.252l1,6.8H0Z" fill="#1d1d1b"/>
        <path id="Path_132" data-name="Path 132" d="M136.516,9.753,142.268,0h-9.24q-4.276,7.9-8.548,15.795Z" transform="translate(-93.351)" fill="#1d1d1b"/>
        <path id="Path_133" data-name="Path 133" d="M90.53,17.345,88.792,0H80.33l3.826,25.758h9.813l6.8-11.528Z" transform="translate(-60.242)" fill="#1d1d1b"/>
      </g>
    </g>
  </g>
</svg>
