<svg xmlns="http://www.w3.org/2000/svg" width="165" height="74" viewBox="0 0 165 74">
  <g id="Group_3691" data-name="Group 3691" transform="translate(16966 -8678)">
    <rect id="Rectangle_1704" data-name="Rectangle 1704" width="165" height="74" transform="translate(-16966 8678)" fill="#223367"/>
    <g id="betinkenya" transform="translate(-16945.082 8691.987)">
      <g id="_x39_MhF4c_1_" transform="translate(0.082 0.012)">
        <g id="Group_3689" data-name="Group 3689" transform="translate(0)">
          <path id="Path_997" data-name="Path 997" d="M236.934,27.749A15.2,15.2,0,0,0,237,25.475q-.063-3.728-.063-7.456A3.282,3.282,0,0,1,241,14.543a3.087,3.087,0,0,1,2.338,3.075c.021,1.264.042,2.506,0,3.77-.021.758.253,1.074,1.053,1.053,1.264-.042,2.506.042,3.77.021.653,0,.948.253.927.906-.021,1.348-.021,2.675,0,4.023.021.632-.253.885-.885.864-1.453,0-2.907,0-4.339.021-1.137,0-1.264.126-1.243,1.285a32.437,32.437,0,0,0,.126,5.16,5.471,5.471,0,0,0,5.181,4.718c1.158.084,1.158.084,1.179,1.264,0,1.116-.021,2.254,0,3.37.021.716-.253.99-.948.969a11.175,11.175,0,0,1-9.5-5.392c-.274-.442-.527-.885-.864-1.432-2.148,4.318-5.392,6.887-10.278,6.972-4.929.084-8.109-2.527-10.342-6.8a24.428,24.428,0,0,1-2.064,3.244A11.263,11.263,0,0,1,200.2,43.483a11.122,11.122,0,0,1-4.8-9.457c.042-5.308,0-10.615,0-15.923a3.027,3.027,0,0,1,3.1-3.286,3.065,3.065,0,0,1,3.138,3.265c.021,1.2,0,2.4,0,3.6,0,1.116.063,1.158,1.158,1.179h3.77a11.019,11.019,0,0,1,9.857,5.729c.126.211.232.442.358.653.105.168.147.484.4.484.274,0,.316-.316.442-.527a10.959,10.959,0,0,1,16.808-3.56C235.333,26.359,236.155,27.1,236.934,27.749Zm-32.478.821v-.042c-.906,0-1.811.021-2.717,0-.59-.021-.821.232-.821.821.021,1.664-.021,3.328,0,5.013a5.5,5.5,0,0,0,1.6,3.833,5.7,5.7,0,0,0,6.656,1.1,5.621,5.621,0,0,0,2.928-6.277,5.528,5.528,0,0,0-4.95-4.423C206.267,28.508,205.362,28.571,204.456,28.571Zm25.78,8.341h0c-1.074.021-2.127.021-3.2.021-1.1,0-2.19,0-3.286.021-.253,0-.632-.105-.716.211-.084.274.19.484.358.7a5.436,5.436,0,0,0,7.414.7,2.609,2.609,0,0,1,1.727-.59c1.5.021,3.012,0,4.507,0,.253,0,.611.063.59-.358-.021-.295-.126-.611-.505-.653-.274-.021-.548-.042-.821-.042Zm-2.78-5.5h3.833c.211,0,.484.042.611-.169.147-.274-.126-.442-.232-.653a2.231,2.231,0,0,0-.211-.253,5.42,5.42,0,0,0-8.151.253c-.147.19-.421.358-.274.632.126.253.442.19.674.19Z" transform="translate(-154.261 -11.408)" fill="#fccc00"/>
          <path id="Path_998" data-name="Path 998" d="M34.249,17.133a84.464,84.464,0,0,1-.569,11.774v.084c-.442,3.433-1.137,4.276-4.549,4.7a94.422,94.422,0,0,1-24.5-.105,7.894,7.894,0,0,1-1.58-.4,2.739,2.739,0,0,1-1.832-1.938,23.912,23.912,0,0,1-.8-5.181A115.721,115.721,0,0,1,.57,6.581a17,17,0,0,1,.674-3.517A2.7,2.7,0,0,1,3.2,1.147,25.5,25.5,0,0,1,8.532.326,119.837,119.837,0,0,1,26.14.347a32.093,32.093,0,0,1,4.465.632A3.22,3.22,0,0,1,33.3,3.59a49.946,49.946,0,0,1,.927,9.52C34.291,14.458,34.249,15.785,34.249,17.133Zm-27.3-3.475h0c0,2.38-.021,4.76,0,7.14a10.665,10.665,0,0,0,6.7,9.9,10.5,10.5,0,0,0,11.711-2.633A10.586,10.586,0,0,0,27.383,16.48a10.309,10.309,0,0,0-9.625-6.445c-1.264-.042-2.506-.042-3.77.021-.842.042-1.116-.274-1.074-1.1.063-.99.021-1.959,0-2.949A3,3,0,1,0,6.931,6.1C6.952,8.624,6.952,11.152,6.952,13.658Z" transform="translate(-0.082 -0.012)" fill="#fccc00"/>
          <path id="Path_999" data-name="Path 999" d="M488.217,64.042v-10.4c0-.548.084-.842.758-.842,2.928.042,5.855-.063,8.762.063a11.314,11.314,0,0,1,10.8,11.268c-.021,3.475-.042,6.951-.021,10.4,0,.569-.147.779-.737.758-1.348-.042-2.675-.042-4.023,0-.611.021-.8-.168-.8-.779,0-3.517,0-7.056-.063-10.573a5.536,5.536,0,0,0-4.549-5.455,22.958,22.958,0,0,0-4.17-.105c-.611,0-.484.484-.484.842,0,3.033.021,6.066,0,9.1,0,2.043-.063,4.107-.042,6.15,0,.632-.19.864-.842.842-1.264-.042-2.506-.042-3.77,0-.611.021-.864-.147-.842-.821.021-3.5,0-6.972.021-10.447Z" transform="translate(-385.386 -41.676)" fill="#fff"/>
          <path id="Path_1000" data-name="Path 1000" d="M461.67,64.02c0,3.433-.021,6.887,0,10.321,0,.653-.105.969-.885.927-1.285-.084-2.57-.021-3.854,0-.484,0-.674-.147-.674-.653-.063-7.014-.042-14.049.021-21.062,0-.548.169-.779.758-.758q1.927.063,3.854,0c.569-.021.758.168.758.737-.021,3.5-.021,6.993-.021,10.489Z" transform="translate(-360.146 -41.676)" fill="#fff"/>
          <path id="Path_1001" data-name="Path 1001" d="M458.068,18.593a3,3,0,0,1,3.012,3.265,3.044,3.044,0,0,1-6.087-.063A3,3,0,0,1,458.068,18.593Z" transform="translate(-359.176 -14.678)" fill="#fff"/>
          <path id="Path_1002" data-name="Path 1002" d="M61.561,73.085c1.264.063,2.8-.211,4.255.59A5.444,5.444,0,0,1,68.448,79.7a5.21,5.21,0,0,1-4.929,4.065,5.139,5.139,0,0,1-5.582-5.223c-.042-1.5-.021-3.012-.042-4.507-.021-.7.274-.99.969-.948C59.686,73.106,60.508,73.085,61.561,73.085Zm1.432,2.464a2.554,2.554,0,0,0-2.654,2.7,2.678,2.678,0,1,0,5.35-.147A2.542,2.542,0,0,0,62.993,75.55Z" transform="translate(-45.718 -57.691)" fill="#fccc00"/>
        </g>
      </g>
      <g id="Group_3690" data-name="Group 3690" transform="translate(84.605 37.435)">
        <path id="Path_1003" data-name="Path 1003" d="M514.056,177.735c-.03-.244-.03-.427-.061-.64-.03-.3-.061-.609-.061-.884-.03-.67-.061-1.371-.061-2.041v-2.742l.031-.03h1.767a.065.065,0,0,1,.061.061v8.714c0,.274.031.244-.244.244H513.66c-.03,0-.061-.03-.091-.061a.094.094,0,0,1-.03-.061c-.7-1.249-1.4-2.529-2.1-3.778-.457-.853-.884-1.706-1.249-2.59,0-.03-.03-.061-.061-.091h-.031v.061c.091,1.706.061,3.382.061,5.088v1.341a.065.065,0,0,1-.061.061h-1.737a.066.066,0,0,1-.061-.061v-8.714c0-.244-.03-.213.213-.213h2.072c.03,0,.061,0,.091.061a.094.094,0,0,1,.03.061c.64,1.127,1.28,2.224,1.889,3.352a26.551,26.551,0,0,1,1.28,2.651C513.934,177.552,513.964,177.643,514.056,177.735Z" transform="translate(-493.002 -171.335)" fill="#fff"/>
        <path id="Path_1004" data-name="Path 1004" d="M462.335,175.278c1.036,1.706,2.072,3.412,3.108,5.088,0,.061,0,.061-.03.061H463.1a.764.764,0,0,1-.122-.213c-.64-1.127-1.31-2.285-1.95-3.412-.031-.061-.061-.152-.122-.183-.091.03-.122.122-.183.183-.183.213-.335.427-.518.64a.346.346,0,0,0-.091.244v2.62c0,.183,0,.183-.183.183h-1.767a.066.066,0,0,1-.061-.061v-8.836a.066.066,0,0,1,.061-.061h1.859a.066.066,0,0,1,.061.061v3.869c0,.03,0,0,.03,0h.03a.106.106,0,0,0,.03-.061c.457-.792,1.005-1.554,1.523-2.316.335-.487.64-.945.975-1.432.03-.03.061-.061.061-.091a.159.159,0,0,1,.122-.061h2.377c.03.061,0,.091-.03.122-.335.457-.7.884-1.036,1.341-.579.731-1.127,1.462-1.706,2.194C462.427,175.156,462.4,175.187,462.335,175.278Z" transform="translate(-458.1 -171.407)" fill="#fff"/>
        <path id="Path_1005" data-name="Path 1005" d="M566.135,180.219h-2.1a.081.081,0,0,1-.091-.091.275.275,0,0,1-.03-.152c-.183-.64-.366-1.249-.549-1.889-.061-.213-.061-.213-.274-.213h-2.346a.224.224,0,0,0-.061.183c-.183.67-.366,1.31-.548,1.98a.112.112,0,0,1-.03.091.065.065,0,0,1-.061.061h-1.919a.184.184,0,0,1-.122-.03v-.03c.914-2.955,1.828-5.941,2.712-8.9a.183.183,0,0,1,.122-.03h2.559a.03.03,0,0,1,.03.03v.03c0,.03.03.061.03.091.914,2.925,1.828,5.88,2.742,8.805Zm-4.174-7.465c-.03.183-.061.3-.091.427-.122.548-.244,1.066-.4,1.615-.122.457-.274.914-.4,1.4a.386.386,0,0,0-.031.183c.213.03,1.767.03,1.92,0v-.03c-.335-1.158-.7-2.285-.975-3.473A.23.23,0,0,0,561.961,172.754Z" transform="translate(-527.562 -171.199)" fill="#fff"/>
        <path id="Path_1006" data-name="Path 1006" d="M490.795,178.54v1.615a.03.03,0,0,1-.031.03h-5.606c-.061,0-.061-.03-.061-.091V171.41c0-.244-.031-.213.213-.213h5.149c.183,0,.183,0,.183.152v1.371c0,.152,0,.152-.152.152h-3.169c-.213,0-.183,0-.183.183v1.584a.066.066,0,0,0,.061.061h3.169a.066.066,0,0,1,.061.061v1.523a.03.03,0,0,1-.03.03H487.23a.066.066,0,0,0-.061.061v1.98a.065.065,0,0,0,.061.061h3.382C490.612,178.54,490.7,178.54,490.795,178.54Z" transform="translate(-476.871 -171.196)" fill="#fff"/>
        <path id="Path_1007" data-name="Path 1007" d="M535.3,171.33a.112.112,0,0,1,.091-.03h2.133c.03,0,.061.03.091.061,0,.03.03.061.03.091.427,1.005.884,2.011,1.28,3.047.091.213.152.4.244.609a.066.066,0,0,0,.061.061c.091-.213.152-.427.244-.64a5.453,5.453,0,0,0,.244-.64l.274-.64.274-.64.274-.64c.091-.213.183-.427.274-.609H543.1c.031.061-.03.091-.03.152-.3.518-.609,1.066-.914,1.584-.64,1.1-1.249,2.224-1.889,3.321a.723.723,0,0,0-.091.366v3.321c0,.274.031.244-.244.244h-1.554c-.274,0-.244.03-.244-.244v-3.26a.515.515,0,0,0-.091-.3c-.762-1.4-1.493-2.8-2.255-4.2-.152-.274-.274-.548-.427-.792C535.331,171.422,535.3,171.361,535.3,171.33Z" transform="translate(-511.779 -171.268)" fill="#fff"/>
      </g>
    </g>
  </g>
</svg>
