<svg xmlns="http://www.w3.org/2000/svg" xmlns:xlink="http://www.w3.org/1999/xlink" width="165" height="74" viewBox="0 0 165 74">
  <defs>
    <clipPath id="clip-_32">
      <rect width="165" height="74"/>
    </clipPath>
  </defs>
  <g id="_32" data-name="32" clip-path="url(#clip-_32)">
    <g id="Final-Brand-Guidelines" transform="translate(1 26)">
      <g id="Group" transform="translate(0 0)">
        <path id="PLANETSPORT" d="M111.544,31.642l.132-.744.49-2.764h4.34l1.881-1.6.695-3.927L117.764,21H109l1.908,1.306-1.65,9.335Zm4.065-5.328h-3.125l.622-3.494h3.125l.463.563-.405,2.368ZM126.1,31.642l.347-1.92H121.4L122.929,21h-2.286l-1.881,10.642Zm3.424,0,1.071-2.354h4.036l.246,2.354h2.315L135.814,21h-3.631l-5.223,10.642Zm4.919-4.187h-3.009l2.1-4.577h.434Zm6.148,4.187,1.215-6.83h.492l2.662,6.83h2.214L149.051,21h-2.213l-1.244,7.017L142.86,21h-2.6l-1.881,10.642Zm16.434,0,.333-1.92H151.9l.463-2.671h4.962l.333-1.848H152.7l.405-2.281h5.454L158.9,21h-7.754l-1.881,10.642Zm6.076,0,1.548-8.721h2.98l.347-1.92h-8.26l-.347,1.92h2.995l-1.548,8.721Zm10.879,0,1.9-1.6.564-3.205-1.331-1.6h-4.224l-.477-.578.2-1.17.68-.578h5.266L176.885,21h-6.5l-1.9,1.6-.506,2.888,1.316,1.617,4.239-.014.478.578-.26,1.487-.68.578h-5.454l-.333,1.906Zm5.642,0,.622-3.509h4.34l1.881-1.6.695-3.927L185.84,21h-6.626l-1.881,10.642Zm4.065-5.328H180.56l.622-3.494h3.125l.463.563-.405,2.368Zm10.76,5.328,1.9-1.6,1.317-7.436L196.326,21h-5.787l-1.9,1.6-1.3,7.436,1.316,1.6Zm-.911-1.819h-3.3l-.477-.578,1.042-5.862.68-.563h3.269l.477.563L194.2,29.245Zm6.514,1.819.665-3.769h2.677l.868,3.769h2.286l-1-4.043,1.577-1.328.651-3.667L206.442,21h-6.8l-1.881,10.642Zm4.282-5.588h-3.3l.579-3.234h3.3l.463.563-.362,2.108Zm8.145,5.588,1.548-8.721H217L217.35,21H209.09l-.347,1.92h2.995l-1.548,8.721Z" transform="translate(-82.372 -15.87)" fill="#010a26"/>
        <path id="Combined-Shape" d="M10.5,0A10.5,10.5,0,1,1,0,10.5,10.5,10.5,0,0,1,10.5,0Zm0,1.626A8.876,8.876,0,1,0,19.378,10.5,8.876,8.876,0,0,0,10.5,1.626Zm3.721,4.791,1.343,1.754-.684,2.975-1.847,1.5H8.863l-.607,2.238H6.009l1.676-7.3L6.008,6.417ZM12.729,8.371H9.787l-.521,2.279H12.16l.569-.465.339-1.4Z" transform="translate(0 0)" fill="#ec004f" fill-rule="evenodd"/>
        <path id="BET" d="M556.756,31.664l1.865-1.606.531-3.01L558.2,25.89l.8-.781.4-2.3L557.932,21h-5.867L550.2,31.664Zm-.245-6.3h-3.4l.466-2.666h3.388l.508.631-.226,1.319Zm-.379,4.6h-3.992l.57-3.151H556.7l.526.627-.336,1.9Zm11.569,1.7.29-1.649H562.5l.537-3.111h5.026l.291-1.649h-5.011l.45-2.6H569.3L569.588,21h-7.321l-1.888,10.664Zm5.543,0,1.585-9.014h2.94l.3-1.649h-7.709l-.288,1.649h2.94l-1.571,9.014Z" transform="translate(-415.788 -15.87)" fill="#ec004f"/>
      </g>
    </g>
  </g>
</svg>
