<svg xmlns="http://www.w3.org/2000/svg" width="165" height="74" viewBox="0 0 165 74">
  <g id="_3" data-name="3" transform="translate(-8737.329 -5164)">
    <rect id="Rectangle_746" data-name="Rectangle 746" width="165" height="74" transform="translate(8737.329 5164)" fill="#01a1dd"/>
    <path id="Path_782" data-name="Path 782" d="M31,3295.3h5.1l3.1-4.4H31v-3.2h7l3.7-4.8H25.6v20H37l3.3-4.4H31Z" transform="translate(8737.329 1908)" fill="#fff"/>
    <path id="Path_783" data-name="Path 783" d="M43.1,3282.9l-3.2,4.8h6.3v15.2h5.4v-15.2h5.1v-4.8Z" transform="translate(8737.329 1908)" fill="#fff"/>
    <path id="Path_784" data-name="Path 784" d="M21.2,3292.4a4.791,4.791,0,0,0,2.7-4.5c0-2.2-1.3-5-6.8-5H10v20h8.7s5.7-.2,5.7-5.5A5.257,5.257,0,0,0,21.2,3292.4Zm-6.5-5.7h1.4s2.2,0,2.2,2a2.2,2.2,0,0,1-2.4,2.2H14.7Zm1.8,12.1H14.7v-4.1h2s2.2.1,2.2,2A2.182,2.182,0,0,1,16.5,3298.8Z" transform="translate(8737.329 1908)" fill="#fff"/>
    <rect id="Rectangle_747" data-name="Rectangle 747" width="5.4" height="20" transform="translate(8830.329 5190.9)" fill="#f6ee34"/>
    <path id="Path_785" data-name="Path 785" d="M132.8,3290.5h-6.4v-7.6H121v20h5.4v-7.6h6.4v7.6h5.4v-20h-5.4Z" transform="translate(8737.329 1908)" fill="#f6ee34"/>
    <path id="Path_786" data-name="Path 786" d="M139.8,3282.9v4.8h4.7v15.2h5.4v-15.2H155v-4.8Z" transform="translate(8737.329 1908)" fill="#f6ee34"/>
    <path id="Path_787" data-name="Path 787" d="M70,3292.4a4.791,4.791,0,0,0,2.7-4.5c0-2.2-1.3-5-6.8-5H58.6v20h8.9s5.7-.2,5.7-5.5A5.257,5.257,0,0,0,70,3292.4Zm-6.6-5.7H65s2.2,0,2.2,2a2.2,2.2,0,0,1-2.4,2.2H63.4Zm2,12.1h-2v-4.1h2.2s2.2.1,2.2,2A2.32,2.32,0,0,1,65.4,3298.8Zm23.9-9.6c0-3.8-2.4-6.3-7.3-6.3H74.9v20H80v-8.3l5.7,8.3h6.7l-6.4-8.7A5.341,5.341,0,0,0,89.3,3289.2Zm-8.1,2.9H80v-5.3c1.4,0,3.9,0,3.9,2.6A2.565,2.565,0,0,1,81.2,3292.1Zm28.2,3.2h4.2v3a7.06,7.06,0,0,1-2.8.6,5.913,5.913,0,0,1-6-5.8,5.831,5.831,0,0,1,6-5.7,6.229,6.229,0,0,1,3.8,1.3l3.1-4a11.4,11.4,0,0,0-7-2.4,10.706,10.706,0,1,0-.1,21.4s5.8-.2,8.1-2.1v-10.5h-6Z" transform="translate(8737.329 1908)" fill="#f6ee34"/>
  </g>
</svg>
