<svg xmlns="http://www.w3.org/2000/svg" width="165" height="74" viewBox="0 0 165 74">
  <g id="_30" data-name="30" transform="translate(-10024.329 -6197)">
    <rect id="Rectangle_816" data-name="Rectangle 816" width="165" height="74" transform="translate(10024.329 6197)" fill="#242424"/>
    <path id="Path_1259" data-name="Path 1259" d="M138.9,14994.5v-3.7h4v3.7Zm3.9-6.4H139l-.1-13.3h4l-.1,13.3Zm-14.6-10.3a7.346,7.346,0,0,0-7.6,7.3v9.4h4.3v-9.3a3.3,3.3,0,0,1,6.6,0v9.3h4.3v-9.4a7.347,7.347,0,0,0-7.6-7.3m-18.6,13.2a4.6,4.6,0,1,1,4.6-4.6,4.588,4.588,0,0,1-4.6,4.6h0m0-13.2a8.6,8.6,0,1,0,8.6,8.6,8.6,8.6,0,0,0-8.6-8.6" transform="translate(10024.329 -8751)" fill="#8eb50d"/>
    <path id="Path_1260" data-name="Path 1260" d="M90.5,14981.4a4.43,4.43,0,0,1,3,1.1,4.1,4.1,0,0,1,1.3,2.3H86a4.835,4.835,0,0,1,4.5-3.4m8.2,3.9a8.169,8.169,0,0,0-2.6-5.4,8.268,8.268,0,0,0-5.5-2,7.943,7.943,0,0,0-5.8,2.5,8.6,8.6,0,0,0-2.4,6.2,8.07,8.07,0,0,0,2.6,6.2,8.643,8.643,0,0,0,6,2.3,9.193,9.193,0,0,0,7-2.9l-2.8-2.5a5.349,5.349,0,0,1-4.1,1.7,5.287,5.287,0,0,1-3-.9,4.3,4.3,0,0,1-1.8-2.4v-.1H98.8c-.2-.1,0-1.2-.1-2.7m-25.5-7.4a6.715,6.715,0,0,0-4.5,1.8,6.715,6.715,0,0,0-4.5-1.8,6.487,6.487,0,0,0-6.5,6.5h0v10.1h4.1v-10.1a2.369,2.369,0,0,1,2.4-2.4,2.433,2.433,0,0,1,2.4,2.4v10.1h4.1v-10.1a2.369,2.369,0,0,1,2.4-2.4,2.433,2.433,0,0,1,2.4,2.4v10.1h4.1v-10.1a6.4,6.4,0,0,0-6.4-6.5h0M46.6,14991a4.817,4.817,0,0,1-3.2-1.3,4.705,4.705,0,0,1-1.4-3.3,4.871,4.871,0,0,1,1.3-3.3,4.479,4.479,0,0,1,3.2-1.4,4.653,4.653,0,0,1,4.6,4.6,4.47,4.47,0,0,1-4.5,4.7m0-13.2a8.482,8.482,0,0,0-6.8,3.3,8.412,8.412,0,0,0,0,10.4,8.482,8.482,0,0,0,6.8,3.3,8.5,8.5,0,1,0,0-17m-15.9,4a4.668,4.668,0,0,1,3.9,2.2l2.2-3.5a8.316,8.316,0,0,0-6.1-2.6,8.6,8.6,0,1,0,0,17.2,8.879,8.879,0,0,0,6.1-2.5l-2.2-3.5a4.533,4.533,0,0,1-3.8,2.1,4.653,4.653,0,0,1-4.6-4.6,4.5,4.5,0,0,1,4.5-4.8" transform="translate(10024.329 -8751)" fill="#f9f9f9"/>
  </g>
</svg>
