<svg xmlns="http://www.w3.org/2000/svg" width="165" height="74" viewBox="0 0 165 74">
  <g id="_31" data-name="31" transform="translate(-10024.329 -4865)">
    <rect id="Rectangle_807" data-name="Rectangle 807" width="165" height="74" transform="translate(10024.329 4865)" fill="#090909"/>
    <path id="Path_1240" data-name="Path 1240" d="M43.9,13656.2a2.434,2.434,0,0,1-2.4,2.4h-.2c-1.4,0-2.3-.5-2.5-1.9v-12.4a2.54,2.54,0,0,1,2.5-2.5h.2a2.455,2.455,0,0,1,2.4,2.5Zm-10.8,0a2.394,2.394,0,0,1-2.5,2.4h-.2a2.251,2.251,0,0,1-2.5-1.9v-12.4a2.455,2.455,0,0,1,2.4-2.5h.2a2.475,2.475,0,0,1,2.5,2.5l.1,11.9Z" transform="translate(10024.329 -8751)" fill="#57b902" opacity="0.5"/>
    <path id="Path_1241" data-name="Path 1241" d="M64.2,13646.4c.7,0,1,.4,1,1.1l-1.1,11.4H61.5l1.1-10.4h-.3l-2.9,7.8c-.2.6-.5.8-1.2.8H56.4c-.6,0-1-.3-1-.9l-.9-7.7h-.3l-1.8,10.4H49.8l2.1-11.5c.2-.7.5-1,1.1-1h2.6a.919.919,0,0,1,1,.9l.7,6.2a9.7,9.7,0,0,1,.1,1.7h.2c.2-.6.4-1.1.6-1.7l2.3-6.4a1.177,1.177,0,0,1,1.2-.9l2.5.2Zm13.2,6.4c-.7,5-2.3,6.4-6,6.4-3.8,0-5.3-1.6-4.6-6.6.6-4.8,2.2-6.4,6-6.4,3.6,0,5.2,1.6,4.6,6.6Zm-7.7,0c-.5,3.3-.2,4.2,1.7,4.2s2.6-.9,3-4.4c.5-3.3,0-4.2-1.8-4.2-1.9,0-2.5.9-2.9,4.4Zm10.6-6.4c1.4-.1,2.6-.2,4.5-.2,3.1,0,4.4.8,4,3.4-.2,1.8-.9,2.6-2.6,2.8v.1c1.9.2,2.4,1.4,2.1,3.4-.4,2.6-1.6,3.2-4.5,3.2a41.108,41.108,0,0,1-5.4-.2l1.9-12.5Zm3.1,10.6c1.6,0,2-.3,2.3-1.8.2-1.4-.2-1.8-1.6-1.8h-2l-.5,3.6Zm.7-5.5c1.3,0,1.8-.4,2-1.7.2-1.2-.2-1.4-1.5-1.4H82.7l-.5,3.1h1.9Zm5.8,7.4,1.7-12.5h2.8l-1.8,12.5Zm8.4-3.1c-.1.6.1.9.8.9h4.2l-.1,2.1a44.3,44.3,0,0,1-5.2.2c-1.8,0-2.8-1-2.5-2.9l1.3-9.7h2.8l-1.3,9.4Zm11.4-7.2c-.7,0-.9.2-1.1,1l-.3,1.9h4.9l-.2,2h-5l-.3,2.4c-.1.7.1.9.8.9h4.6l-.1,2a47.8,47.8,0,0,1-5.4.2c-2.1,0-3-1.2-2.8-3l1-7.2a2.668,2.668,0,0,1,3-2.4c2,0,4.1.1,5.7.2l-.3,2h-4.5Zm7-2.2c1.4-.1,2.6-.1,4.5-.1,3.1,0,4.4.7,4,3.4-.3,1.8-.9,2.6-2.6,2.8v.2c1.9.2,2.4,1.4,2.1,3.4-.4,2.6-1.6,3.2-4.5,3.2a41.108,41.108,0,0,1-5.4-.2l1.8-12.5Zm3.1,10.6c1.6,0,2.1-.3,2.3-1.8.2-1.4-.2-1.8-1.6-1.8h-1.9l-.5,3.6h1.7Zm.7-5.5c1.3,0,1.8-.4,2-1.7.2-1.2-.2-1.4-1.5-1.4h-2l-.4,3.1h1.9Zm10.9-2.9c-.7,0-.9.2-1,1l-.3,1.9H135l-.2,2h-4.9l-.3,2.4c-.1.7.1.9.8.9H135l-.1,2a46.921,46.921,0,0,1-5.4.2c-2.1,0-3-1.2-2.7-3l1-7.2a2.668,2.668,0,0,1,3-2.4c2,0,4.1.1,5.7.2l-.3,2h-4.8Zm12.2.1-1.5,10.3h-2.5l1.4-10.3h-3.7l.3-2.2h10.1l-.3,2.3h-3.7Z" transform="translate(10024.329 -8751)" fill="#f9f9f9"/>
    <path id="Path_1242" data-name="Path 1242" d="M21.5,13658.3a2.5,2.5,0,0,1-3.5.2h0a2.51,2.51,0,0,1-.2-3.5l11-12.6a2.5,2.5,0,0,1,3.5-.2h0a2.51,2.51,0,0,1,.2,3.5l-11,12.6Zm10.8,0a2.5,2.5,0,0,1-3.5.2h0a2.51,2.51,0,0,1-.2-3.5l11-12.6a2.5,2.5,0,0,1,3.5-.2h0a2.51,2.51,0,0,1,.2,3.5Zm10.9,0a2.39,2.39,0,0,1-3.4.2h0a2.51,2.51,0,0,1-.2-3.5l2.6-3a2.39,2.39,0,0,1,3.4-.2h0a2.51,2.51,0,0,1,.2,3.5h0l-2.6,3Z" transform="translate(10024.329 -8751)" fill="#57b902"/>
  </g>
</svg>
