<svg xmlns="http://www.w3.org/2000/svg" width="165" height="74" viewBox="0 0 165 74">
  <g id="_5" data-name="5" transform="translate(-8083.329 -6200)">
    <rect id="Rectangle_733" data-name="Rectangle 733" width="165" height="74" transform="translate(8083.329 6200)" fill="#0116a6"/>
    <rect id="Rectangle_734" data-name="Rectangle 734" width="150.8" height="43" transform="translate(8090.429 6215.5)" fill="none"/>
    <path id="Path_712" data-name="Path 712" d="M153.6,1806.6a3.1,3.1,0,0,1-1.6-.4,7.267,7.267,0,0,0,4.2-3.7,8.3,8.3,0,0,1-4.5,1.3c-2.1,0-3.1-1-5.6-1a9.294,9.294,0,0,0-4.6,1.4l-1.8,5.7a24.747,24.747,0,0,1,4.2-2.3l-.6,2a15.333,15.333,0,0,0-4.2,2.4l-2,6.5c4.2-3.3,6.6-3.4,8.7-3s4.2.6,5.5-.2a5.858,5.858,0,0,1-3.7-2.9,12,12,0,0,0,2.5-.9,5.265,5.265,0,0,0,5.3-.6c1.7-5.2,1.9-5.9,1.9-5.9A5.543,5.543,0,0,1,153.6,1806.6Zm-129.5,1.2c2.1,0,2.8,2.7,2.8,2.7h6.2s-2.4-5.5-9.8-5.5a16.382,16.382,0,0,0-12.3,5.1c-3.4,3.5-5.7,13.8,5.7,15.7,7.7,1.3,13.4-2.7,13.7-5.2H24a6.171,6.171,0,0,1-5.3,3.1c-3.7,0-4.9-4.6-2.5-10.4C18.4,1807.6,22,1807.8,24.1,1807.8Zm28-2.7s-10.4-1-15,6.4c-2,3.3-7,14.4,7.2,14.8,7.9.1,12.8-2.6,15.7-7.8C63,1813.3,63.3,1805.1,52.1,1805.1Zm2.9,10.4c-.9,3.3-3.7,9-9.3,9s-5.7-7.1-2.1-12.7c3.7-5.6,8-4.8,8-4.8C56.5,1807.9,55.9,1812.2,55,1815.5Zm26.2-10.4H68.5l-.4,1.4c1.2,0,1.6.8.8,2.7s-6.1,16.4-6.1,16.4h5.9l5.8-15.8c1.3-3.6,2.1-3.5,3.9-3.5,0,0,2.6-.2,2.6,2.2s-3.6,6-8.2,7.1a2.555,2.555,0,0,0,0,1.1l3.9,8.8h7.1s-4.5-7.8-5.2-9.8c3.4-1.1,8.2-2.8,8.2-7.2C87,1806.6,85.5,1805.1,81.2,1805.1Zm25,0c-3.1,0-4.3,1.3-6.6,4.5l-11.8,16h5.9l4.7-6.6h7.4l1.9,6.6h6.1l-4.7-18.4A2.437,2.437,0,0,0,106.2,1805.1Zm-6.8,12s2.8-4.1,4.7-6.7c.1.8,1.2,6.7,1.2,6.7Zm30.7-12h-8.2l-.4,1.3s1.8.1,1.1,2.9c-.7,2.7-6,16.4-6,16.4H133l1.3-3.6h-10Z" transform="translate(8083.329 4424)" opacity="0.1"/>
    <path id="Path_713" data-name="Path 713" d="M136.9,1815.3l2-6.5c3.1-2.1,4.4-3,8.7-2.8a48.9,48.9,0,0,1,5.1.5,12.971,12.971,0,0,1-5.3,2.8,5.858,5.858,0,0,0,3.7,2.9c-1.4.7-3.5.6-5.5.2C143.5,1811.9,141,1812,136.9,1815.3Z" transform="translate(8083.329 4424)" fill="#e8302c"/>
    <path id="Path_714" data-name="Path 714" d="M142.1,1809.6s2.8-1.9,5.2-1.9,4.3,2.4,7.9,0c1.7-5.2,1.9-5.9,1.9-5.9a4.8,4.8,0,0,1-3.6,1.7c-2.3,0-2.6-1.4-2.6-1.4l-7,2.1-1.8,5.4Z" transform="translate(8083.329 4424)" fill="#ffd23c"/>
    <path id="Path_715" data-name="Path 715" d="M139.6,1806.8s3.7-2.7,6.6-3.1,7.1.7,9.9-4.4a8.3,8.3,0,0,1-4.5,1.3c-2.1,0-3.1-1-5.6-1a9.294,9.294,0,0,0-4.6,1.4Z" transform="translate(8083.329 4424)" fill="#6eb341"/>
    <path id="Path_716" data-name="Path 716" d="M33.1,1807.3s-2.4-5.5-9.8-5.5a16.382,16.382,0,0,0-12.3,5.1c-3.4,3.5-5.7,13.8,5.7,15.7,7.7,1.3,13.4-2.7,13.7-5.2H24a6.171,6.171,0,0,1-5.3,3.1c-3.7,0-4.9-4.6-2.5-10.4,2.3-5.8,6-5.5,8.1-5.5s2.8,2.7,2.8,2.7Zm19-5.3s-10.4-1-15,6.4c-2,3.3-7,14.4,7.2,14.8,7.9.1,12.8-2.6,15.7-7.8C63,1810.1,63.3,1802,52.1,1802Zm2.9,10.3c-.9,3.3-3.7,9-9.3,9s-5.7-7.1-2.1-12.7c3.7-5.6,8-4.8,8-4.8C56.5,1804.7,55.9,1809,55,1812.3Zm7.8,10.1h5.9l5.8-15.8c1.3-3.6,2.1-3.5,3.9-3.5,0,0,2.6-.2,2.6,2.2s-3.6,6-8.2,7.1a2.555,2.555,0,0,0,0,1.1l3.9,8.8h7.1s-4.5-7.8-5.2-9.8c3.4-1.1,8.2-2.8,8.2-7.2,0-1.8-1.5-3.4-5.8-3.4H68.3l-.4,1.4c1.2,0,1.6.8.8,2.7-.5,1.9-5.9,16.4-5.9,16.4ZM109,1804c-.5-2.3-1.9-2.1-2.8-2.1-3.1,0-4.3,1.3-6.6,4.5l-11.8,16h5.9l4.7-6.6h7.4l1.9,6.6h6.1Zm-9.6,9.9s2.8-4.1,4.7-6.7c.1.8,1.2,6.7,1.2,6.7Zm17.2,8.5H133l1.3-3.6h-10l5.8-16.9h-8.2l-.4,1.3s1.8.1,1.1,2.9C121.9,1808.8,116.6,1822.4,116.6,1822.4Z" transform="translate(8083.329 4424)" fill="#fff"/>
  </g>
</svg>
