<svg xmlns="http://www.w3.org/2000/svg" width="165" height="74" viewBox="0 0 165 74">
  <g id="_6" data-name="6" transform="translate(-10024.329 -6345)">
    <rect id="Rectangle_817" data-name="Rectangle 817" width="165" height="74" transform="translate(10024.329 6345)" fill="#ff7f00"/>
    <g id="Group_2037" data-name="Group 2037" transform="translate(10024.329 -8751)">
      <rect id="Rectangle_876" data-name="Rectangle 876" width="120" height="34.2" transform="translate(22.5 15118.7)" fill="none"/>
      <path id="Path_1775" data-name="Path 1775" d="M58,15134.5l7.7-8.9c.1-.1.1-.2,0-.2H59.6c-.1,0-.2.1-.3.2l-3.9,4.4-2.6-4.4c-.1-.1-.2-.2-.3-.2H46.8c-.1,0-.1.1-.1.2l5.1,8.4-8.2,9.3c-.1.1-.1.2,0,.2H50c.1,0,.2-.1.3-.2l4.2-4.9,2.9,4.9c.1.1.2.2.3.2h5.5c.1,0,.1-.1.1-.2Zm-20.2,5.3c-2.7,0-4-1.4-4-3.2H44.3s.9.1,1-1.1c.1-1.3.1-3,.1-3a7.555,7.555,0,0,0-7.7-7.4c-2.3,0-7.7.8-9.5,7.8H26.1c-.7,0-.7.2-1.1.7l-2,2.5c-.3.4-.2.5.6.5h4.3c0,1.4,1.2,7.3,8.9,7.3a13.458,13.458,0,0,0,5.8-1.1,1.38,1.38,0,0,0,.7-.9c.1-.6.7-3.7.7-3.7A18.5,18.5,0,0,1,37.8,15139.8Zm0-10.6c1.4.1,2.1,1.1,2,3.7H34.3C35.4,15130.5,35.9,15129.2,37.8,15129.2Zm55.9-4.1c-2.3,0-10.1,1.4-9.7,11.4,0,1.4,1.2,7.3,8.9,7.3a13.458,13.458,0,0,0,5.8-1.1,1.38,1.38,0,0,0,.7-.9c.1-.6.7-3.7.7-3.7a19.411,19.411,0,0,1-6.3,1.6c-2.7,0-4-1.4-4-3.2h10.5s.9.1,1-1.1c.1-1.3.1-3,.1-3A7.537,7.537,0,0,0,93.7,15125.1Zm2,7.8H90.2c1.1-2.4,1.6-3.7,3.5-3.7C95.1,15129.3,95.9,15130.2,95.7,15132.9Zm-23-7.4.2-1.3c0-.3-.1-.5-.4-.5H67.8a.472.472,0,0,0-.5.5l-3.5,22.6c0,.3.1.5.4.5h4.7a.472.472,0,0,0,.5-.5l.6-3.8a8.049,8.049,0,0,0,3.7.7c3.3,0,8.9-1.9,9.4-9.8C83.6,15126.9,77.6,15124,72.7,15125.5Zm-.7,13.6c-1.1,0-1.3-.2-1.2-1.1l1.2-7.7a1.008,1.008,0,0,1,1-.9c1,0,4-.1,4,4C77,15134.8,76.6,15139.1,72,15139.1Zm42.3-4.5,7.4-8.9c.1-.1.1-.2,0-.2h-6.4c-.1,0-.2.1-.3.2l-6.4,7.7,1.4-9.5.2-1.3c0-.3-.1-.5-.4-.5H105a.472.472,0,0,0-.5.5l-3.1,20.6c0,.3.1.5.4.5h4.7a.472.472,0,0,0,.5-.5l1.2-8.3,5.7,8.1s.4.6.9.6h5.5c.4,0,.2-.3,0-.6C116.8,15137.9,115,15135.5,114.3,15134.6Zm20.4-9.1h-2.9l.6-3.2a.265.265,0,0,0-.3-.3h-5.2a.265.265,0,0,0-.3.3l-.6,3.1h-2.6a.433.433,0,0,0-.4.2l-3.2,4a.216.216,0,0,0,.2.2h5.1l-1.1,5.7s-2.1,6.5,3.4,8.1c1.4.6,4.5,0,6.2-1.1.5-.4.5-.6.6-1.5s.2-3.9.2-3.9h-.2a6.53,6.53,0,0,1-3.2,1.3c-1.5,0-1.7-1.3-1.3-2.9l1.1-5.7h2.8a.856.856,0,0,0,.9-.7l.5-2.6c.5-1,.3-1-.3-1Z" fill="#fff"/>
      <path id="Path_1776" data-name="Path 1776" d="M137.2,15126h.7v1.7h.6v-1.7h.7v-.7h-2Z" fill="#fff"/>
      <path id="Path_1777" data-name="Path 1777" d="M141,15125.3l-.3,1.4h0l-.3-1.4h-1v2.4h.7v-1.5h0l.4,1.5h.5l.4-1.5h0v1.5h.6v-2.4Z" fill="#fff"/>
    </g>
  </g>
</svg>
