<svg xmlns="http://www.w3.org/2000/svg" width="165" height="74" viewBox="0 0 165 74">
  <g id="_7" data-name="7" transform="translate(-8413.329 -6052)">
    <rect id="Rectangle_729" data-name="Rectangle 729" width="165" height="74" transform="translate(8413.329 6052)" fill="#101928"/>
    <rect id="Rectangle_730" data-name="Rectangle 730" width="4.6" height="18.6" transform="translate(8453.929 6076.5)" fill="#fff"/>
    <path id="Path_689" data-name="Path 689" d="M389.1,1663.5l-7.7-11h-4.8v18.6H381v-11.6l8.1,11.6h4.4v-18.6h-4.4Z" transform="translate(8083.329 4424)" fill="#fff"/>
    <path id="Path_690" data-name="Path 690" d="M412,1652.5h-4.4v11l-7.7-11h-4.8v18.6h4.4v-11.6l8.1,11.6h1.3l3.1-6.4Z" transform="translate(8083.329 4424)" fill="#fff"/>
    <path id="Path_691" data-name="Path 691" d="M419.8,1651.5l-9.3,19.7h5l1.1-2h6.8l.9,2h5.4l-9.4-19.7Zm-1.7,13.9,1.9-3.6,1.5,3.6Z" transform="translate(8083.329 4424)" fill="#fff"/>
    <path id="Path_692" data-name="Path 692" d="M450.4,1652.5h-4.7v18.7h11.7v-4.4h-7Z" transform="translate(8083.329 4424)" fill="#fff"/>
    <path id="Path_693" data-name="Path 693" d="M463,1667.2v-3.3h7.5v-4.2H463v-3h7.5v-4.2H458.6v18.7h12v-4Z" transform="translate(8083.329 4424)" fill="#fff"/>
    <path id="Path_694" data-name="Path 694" d="M436.2,1666.8a5,5,0,1,1,4.4-7.4l4-2.4a9.724,9.724,0,0,0-18.1,4.5l3.8,8.1a9.6,9.6,0,0,0,5.8,1.9,9.5,9.5,0,0,0,8.6-5.3l-4.1-2.2A4.7,4.7,0,0,1,436.2,1666.8Z" transform="translate(8083.329 4424)" fill="#fff"/>
    <path id="Path_695" data-name="Path 695" d="M367.7,1654.6a5.94,5.94,0,0,0-3.9-2h-.1c-.3,0-.5-.1-.8-.1h-3.1v.1h-4.5v18.5h4.6v-5h3.2a6.165,6.165,0,0,0,4.9-2.2,4.864,4.864,0,0,0,1.3-2.9,8.806,8.806,0,0,0,.2-1.7,6.713,6.713,0,0,0-1.5-4.2C368,1654.9,367.8,1654.8,367.7,1654.6Zm-3.8,7.2-.1.1a2.354,2.354,0,0,1-.8.2h-3v-5.5h2.9a2.1,2.1,0,0,1,1.4.7,2.594,2.594,0,0,1,.9,2.1A2.809,2.809,0,0,1,363.9,1661.8Z" transform="translate(8083.329 4424)" fill="#fff"/>
    <rect id="Rectangle_731" data-name="Rectangle 731" width="115.1" height="3.9" transform="translate(8438.829 6099.6)" fill="#ff5400"/>
  </g>
</svg>
