<svg xmlns="http://www.w3.org/2000/svg" width="165" height="74" viewBox="0 0 165 74">
  <g id="_8" data-name="8" transform="translate(-8083.329 -4720)">
    <rect id="Rectangle_304" data-name="Rectangle 304" width="165" height="74" transform="translate(8083.329 4720)" fill="#004d43"/>
    <g id="Group_1117" data-name="Group 1117" transform="translate(8083.329 4424)">
      <g id="Group_1116" data-name="Group 1116">
        <path id="Path_182" data-name="Path 182" d="M7.7,330.8c.5-.1,1.8-.3,2.7-.4a16.222,16.222,0,0,1,2.3-.1,7.534,7.534,0,0,1,2.9.6,4.97,4.97,0,0,1,3,4.3,6.591,6.591,0,0,1-.4,2.9,4.588,4.588,0,0,1-1.9,2.2,8.864,8.864,0,0,1-1.7.8,8.505,8.505,0,0,1-2.2.4l.4,5-3.6.3Zm7.1,4.8a2.453,2.453,0,0,0-1.1-1.8,3.653,3.653,0,0,0-1.5-.3,1.268,1.268,0,0,0-.6.1l.4,4.7c.1,0,.5,0,.6-.1a2.594,2.594,0,0,0,1.4-.6,1.456,1.456,0,0,0,.6-.9c.2-.2.2-.6.2-1.1Z" fill="#fff"/>
        <path id="Path_183" data-name="Path 183" d="M22.4,343.4l-.7,2.4-3.9.3,5.8-17h.5l8.6,15.8-4.3.4-1.1-2.2Zm3.5-3.4-1.6-3.5-1,3.7Zm20.8-4.9a8.1,8.1,0,0,1-3,7.4,9.635,9.635,0,0,1-5.3,1.9c-1,.1-2,.2-2.7.2H34.2l-1.4-15.9a12.492,12.492,0,0,1,1.9-.3c1-.1,1.8-.2,2.5-.3a10.611,10.611,0,0,1,5.7.8,7.333,7.333,0,0,1,3.8,6.2Zm-3.9.5a4.307,4.307,0,0,0-1.9-3.5,4.784,4.784,0,0,0-3-.6,2.509,2.509,0,0,0-1,.2l.8,9.2h.9a4.589,4.589,0,0,0,2.5-1,4.66,4.66,0,0,0,1.7-4.3Zm19.3-1.8a7.826,7.826,0,0,1-3,7.3,9.635,9.635,0,0,1-5.3,1.9c-1,.1-2,.2-2.7.2H49.6l-1.4-15.9c1.5-.2,3.6-.5,4.4-.6a10.611,10.611,0,0,1,5.7.8,7.489,7.489,0,0,1,3.8,6.3Zm-4,.4a4.307,4.307,0,0,0-1.9-3.5,4.784,4.784,0,0,0-3-.6,3.6,3.6,0,0,0-1.1.2l.8,9.2h.9a4.589,4.589,0,0,0,2.5-1,4.328,4.328,0,0,0,1.8-4.3Zm13,.4.6,6.8-3.8.3-.6-6.6-6.3-9,4.3-.4,3.5,5.3,2.7-5.9,4.1-.4Zm5.7-9.8c.5-.1,1.8-.3,2.7-.4a16.222,16.222,0,0,1,2.3-.1,7.534,7.534,0,0,1,2.9.6,4.97,4.97,0,0,1,3,4.3,6.591,6.591,0,0,1-.4,2.9,5.1,5.1,0,0,1-1.9,2.2,8.864,8.864,0,0,1-1.7.8,8.505,8.505,0,0,1-2.2.4l.4,5-3.6.3Zm7.1,4.8a2.453,2.453,0,0,0-1.1-1.8,3.339,3.339,0,0,0-1.5-.3,1.268,1.268,0,0,0-.6.1l.4,4.7a1.952,1.952,0,0,0,.7-.1,2.986,2.986,0,0,0,1.4-.6,1.456,1.456,0,0,0,.6-.9,1.885,1.885,0,0,0,.1-1.1Zm22.4.6a8.492,8.492,0,1,1-9-7.4,7.921,7.921,0,0,1,9,7.4Zm-3.9.4a4.47,4.47,0,0,0-4.9-4.3,4.821,4.821,0,0,0,.8,9.6,4.738,4.738,0,0,0,4.1-5.3Zm20.6,6.6h-.5l-5.6-9.2L113,338h-.5L106,322l3.9-.3,2.9,7.4,3.3-7.9h.5l4.6,7.1,1.5-7.7,3.6-.3Zm4.8-17,8.6-.8.3,3.2-4.8.4.3,3.2,4.2-.4.3,3.2-4.2.4.3,3.3,4.9-.4.3,3.2-8.7.8Zm11.2-.9c.4-.1.9-.1,1.5-.2a12.31,12.31,0,0,1,2-.2,11.613,11.613,0,0,1,3.3.1,4.327,4.327,0,0,1,3.6,4.2,4.55,4.55,0,0,1-1.2,3.7,2.35,2.35,0,0,1-1,.8v.1c.2.2,5.2,6.5,5.2,6.5l-4.3.4s-2.8-3.9-4.3-5.9h-.4l.5,6.2-3.6.3Zm6.8,4.5a1.807,1.807,0,0,0-2.2-1.8,5.638,5.638,0,0,0-.7.1l.4,4.1h.5a2.541,2.541,0,0,0,1.3-.5,2.11,2.11,0,0,0,.7-1.9Z" fill="#fff"/>
        <path id="Path_184" data-name="Path 184" d="M158.2,332a2.22,2.22,0,0,1-2.2,2.2,2.263,2.263,0,0,1-2.3-2.3,2.326,2.326,0,0,1,2.3-2.3A2.4,2.4,0,0,1,158.2,332Z" fill="#47a141"/>
      </g>
    </g>
  </g>
</svg>
