<svg xmlns="http://www.w3.org/2000/svg" xmlns:xlink="http://www.w3.org/1999/xlink" width="165" height="74" viewBox="0 0 165 74">
  <defs>
    <linearGradient id="linear-gradient" x1="0.012" y1="740.691" x2="1.002" y2="741.388" gradientUnits="objectBoundingBox">
      <stop offset="0" stop-color="#a93064"/>
      <stop offset="1" stop-color="#044990"/>
    </linearGradient>
    <linearGradient id="linear-gradient-2" x1="-0.153" y1="0.556" x2="1.17" y2="0.442" gradientUnits="objectBoundingBox">
      <stop offset="0" stop-color="#d41e43"/>
      <stop offset="1" stop-color="#a93064"/>
    </linearGradient>
    <linearGradient id="linear-gradient-3" x1="-0.162" y1="0.556" x2="1.175" y2="0.442" xlink:href="#linear-gradient-2"/>
  </defs>
  <g id="_93" data-name="93" transform="translate(-8413.329 -4424)">
    <rect id="Rectangle_838" data-name="Rectangle 838" width="165" height="74" transform="translate(8413.329 4424)" fill="#011a39"/>
    <g id="Group_1830" data-name="Group 1830" transform="translate(8083.329 4424)">
      <path id="Path_1303" data-name="Path 1303" d="M403.6,26H483V48H400.7Z" fill="url(#linear-gradient)"/>
      <path id="Path_1304" data-name="Path 1304" d="M392.4,48h7.2l2.9-22h-7.2Z" fill="url(#linear-gradient-2)"/>
      <path id="Path_1305" data-name="Path 1305" d="M383.3,48h7.1l2.9-22h-7.2Z" fill="url(#linear-gradient-3)"/>
      <g id="Group_1829" data-name="Group 1829">
        <path id="Path_1306" data-name="Path 1306" d="M382.1,32.1h-5.4l.6-6.1h5.4Z" fill="#d12045"/>
        <path id="Path_1307" data-name="Path 1307" d="M380.7,39.9h-5.5l.6-6.1h5.5Z" fill="#d12045"/>
        <path id="Path_1308" data-name="Path 1308" d="M378.7,48h-5.5l.6-6.1h5.5Z" fill="#d12045"/>
        <path id="Path_1309" data-name="Path 1309" d="M365.7,44.7h-3.1l.4-3.1h3.1Z" fill="#e31837"/>
        <path id="Path_1310" data-name="Path 1310" d="M370.3,38.3h-3.1l.3-3.1h3.2Z" fill="#e31837"/>
        <path id="Path_1311" data-name="Path 1311" d="M373.2,30.4h-3.1l.3-3h3.1Z" fill="#e31837"/>
        <path id="Path_1312" data-name="Path 1312" d="M360.3,39.1h-3.1l.3-2.5h3.1Z" fill="#e31837"/>
        <path id="Path_1313" data-name="Path 1313" d="M363.7,31.6h-3.1L361,29h3.1Z" fill="#e31837"/>
        <path id="Path_1314" data-name="Path 1314" d="M351.3,39.5h-2.7l.3-2.2h2.7Z" fill="#e31837"/>
        <path id="Path_1315" data-name="Path 1315" d="M343.8,36.8H342l.2-1.4H344Z" fill="#e31837"/>
        <path id="Path_1316" data-name="Path 1316" d="M354.3,33.8h-2.7l.3-2.2h2.7Z" fill="#e31837"/>
      </g>
    </g>
    <g id="Group_1831" data-name="Group 1831" transform="translate(8083.329 4424)">
      <path id="Path_1317" data-name="Path 1317" d="M391.1,37s2.1-.8,2.1-3.9c0-2.2-1.3-4-5.5-4h-7.3L378,44.9h9c4.7,0,6.1-2.5,6.1-4.7A3.8,3.8,0,0,0,391.1,37Zm-4.8,4.2h-2.8l.5-2.8h2.4c.6,0,1.6,0,1.6,1.2C388.1,41.2,386.3,41.2,386.3,41.2Zm.5-5.6h-2.6l.5-2.4H387c.6,0,1.5,0,1.5,1.1C388.4,35.5,386.8,35.6,386.8,35.6Z" fill="#fff"/>
      <path id="Path_1318" data-name="Path 1318" d="M407.3,33l.6-3.9H395.7l-2.5,15.8H406l.6-3.8H399l.3-2.4h6.3l.6-3.6h-6.5L400,33Z" fill="#fff"/>
      <path id="Path_1319" data-name="Path 1319" d="M464.2,33l.5-3.9H452.5l-2.4,15.8h12.8l.5-3.8h-7.6l.3-2.4h6.4l.5-3.6h-6.4l.2-2.1Z" fill="#fff"/>
      <path id="Path_1320" data-name="Path 1320" d="M409.1,29.1h13.8l-.7,4.2h-4.3l-1.6,11.6h-5.2l1.7-11.7h-4.5Z" fill="#fff"/>
      <path id="Path_1321" data-name="Path 1321" d="M424,29.1l-2.4,15.8h5.1l.9-5.5h5.1l.7-3.9h-5.3l.5-2.4h6.1l.5-4Z" fill="#fff"/>
      <path id="Path_1322" data-name="Path 1322" d="M448.4,43.1c0-1.6,1.2-4.2-1.7-5.1,2.6-1.2,3.1-2.8,3.1-4.5s-1-4.3-5.1-4.3h-8.3L434.1,45H439l1-5.5h1.5a2.011,2.011,0,0,1,2.1,2.7,10.374,10.374,0,0,0-.2,2.8H449C449,44.2,448.5,45,448.4,43.1Zm-5.2-7.2h-2.7l.5-2.8h2.4c.6,0,1.5,0,1.5,1.2C444.9,35.9,443.2,35.9,443.2,35.9Zm30.5-6.8h-7.1l-2.3,15.8h7.2c6.1,0,8.7-3.7,8.7-8.1C480.1,32.3,477.9,29.1,473.7,29.1Zm1.1,8.7c-.5,2.9-1.9,3.2-5,3.2l1.1-7.8C474.8,32.7,475.4,34.9,474.8,37.8Z" fill="#fff"/>
    </g>
  </g>
</svg>
